ply
format ascii 1.0
comment Created by Blender 2.78 (sub 0) - www.blender.org, source file: ''
element vertex 128
property float x
property float y
property float z
element face 252
property list uchar uint vertex_indices
end_header
0.000000 1.000000 -1.000000
0.097545 0.490393 1.000000
0.195090 0.980785 -1.000000
0.382683 0.923880 -1.000000
0.277785 0.415735 1.000000
0.555570 0.831470 -1.000000
0.707107 0.707107 -1.000000
0.353553 0.353553 1.000000
0.831470 0.555570 -1.000000
0.415735 0.277785 1.000000
0.923880 0.382683 -1.000000
0.490393 0.097545 1.000000
0.980785 0.195090 -1.000000
1.000000 0.000000 -1.000000
0.500000 0.000000 1.000000
0.980785 -0.195090 -1.000000
0.490393 -0.097545 1.000000
0.923880 -0.382683 -1.000000
0.461940 -0.191342 1.000000
0.831470 -0.555570 -1.000000
0.415735 -0.277785 1.000000
0.707107 -0.707107 -1.000000
0.353553 -0.353553 1.000000
0.555570 -0.831470 -1.000000
0.277785 -0.415735 1.000000
0.382683 -0.923880 -1.000000
0.191342 -0.461940 1.000000
0.195090 -0.980785 -1.000000
0.097545 -0.490393 1.000000
-0.000000 -1.000000 -1.000000
-0.000000 -0.500000 1.000000
-0.195091 -0.980785 -1.000000
-0.097545 -0.490393 1.000000
-0.382684 -0.923879 -1.000000
-0.191342 -0.461940 1.000000
-0.555571 -0.831469 -1.000000
-0.277785 -0.415735 1.000000
-0.707107 -0.707106 -1.000000
-0.353554 -0.353553 1.000000
-0.831470 -0.555570 -1.000000
-0.415735 -0.277785 1.000000
-0.923880 -0.382683 -1.000000
-0.461940 -0.191341 1.000000
-0.980785 -0.195089 -1.000000
-0.490393 -0.097545 1.000000
-1.000000 0.000001 -1.000000
-0.500000 0.000000 1.000000
-0.980785 0.195091 -1.000000
-0.490393 0.097546 1.000000
-0.923879 0.382684 -1.000000
-0.461940 0.191342 1.000000
-0.831469 0.555571 -1.000000
-0.415734 0.277786 1.000000
-0.707106 0.707108 -1.000000
-0.353553 0.353554 1.000000
-0.555569 0.831470 -1.000000
-0.191341 0.461940 1.000000
-0.382682 0.923880 -1.000000
-0.195089 0.980786 -1.000000
0.000000 0.500000 1.000000
0.000000 0.919452 -0.940742
0.078621 0.395245 0.975747
0.000000 0.402988 0.975747
0.351860 0.849463 -0.940742
0.179376 0.901785 -0.940742
0.510821 0.764497 -0.940742
0.154219 0.372313 0.975747
0.284957 0.284957 0.975747
0.223889 0.335071 0.975747
0.764497 0.510821 -0.940742
0.650150 0.650150 -0.940742
0.372313 0.154219 0.975747
0.335071 0.223889 0.975747
0.901785 0.179376 -0.940742
0.849463 0.351860 -0.940742
0.919452 0.000000 -0.940742
0.395245 0.078621 0.975747
0.395245 -0.078621 0.975747
0.402988 0.000000 0.975747
0.901785 -0.179376 -0.940742
0.372313 -0.154219 0.975747
0.764497 -0.510821 -0.940742
0.849463 -0.351860 -0.940742
0.284957 -0.284957 0.975747
0.335071 -0.223889 0.975747
0.510821 -0.764497 -0.940742
0.650150 -0.650150 -0.940742
0.154219 -0.372313 0.975747
0.223889 -0.335071 0.975747
0.179376 -0.901785 -0.940742
0.351860 -0.849463 -0.940742
-0.000000 -0.919452 -0.940742
0.078621 -0.395245 0.975747
-0.078621 -0.395245 0.975747
-0.000000 -0.402988 0.975747
-0.351860 -0.849463 -0.940742
-0.179377 -0.901785 -0.940742
-0.223890 -0.335071 0.975747
-0.154216 -0.372313 0.975747
-0.650151 -0.650150 -0.940742
-0.510821 -0.764496 -0.940742
-0.764497 -0.510820 -0.940742
-0.284957 -0.284957 0.975747
-0.372313 -0.154219 0.975747
-0.335072 -0.223889 0.975747
-0.901785 -0.179375 -0.940742
-0.849464 -0.351859 -0.940742
-0.919452 0.000001 -0.940742
-0.395245 -0.078620 0.975747
-0.901785 0.179377 -0.940742
-0.402988 0.000000 0.975747
-0.372313 0.154216 0.975747
-0.395245 0.078621 0.975747
-0.764496 0.510822 -0.940742
-0.849463 0.351861 -0.940742
-0.650149 0.650151 -0.940742
-0.335071 0.223890 0.975747
-0.223889 0.335072 0.975747
-0.284956 0.284954 0.975747
-0.510820 0.764498 -0.940742
-0.154218 0.372313 0.975747
-0.179375 0.901785 -0.940742
-0.351858 0.849464 -0.940742
-0.078620 0.395245 0.975747
0.191342 0.461940 1.000000
0.461940 0.191342 1.000000
-0.277785 0.415735 1.000000
-0.097544 0.490393 1.000000
3 0 1 2
3 1 3 2
3 3 4 5
3 4 6 5
3 7 8 6
3 9 10 8
3 10 11 12
3 11 13 12
3 14 15 13
3 16 17 15
3 18 19 17
3 20 21 19
3 22 23 21
3 24 25 23
3 26 27 25
3 28 29 27
3 30 31 29
3 32 33 31
3 34 35 33
3 36 37 35
3 38 39 37
3 40 41 39
3 42 43 41
3 44 45 43
3 46 47 45
3 48 49 47
3 50 51 49
3 52 53 51
3 54 55 53
3 55 56 57
3 56 58 57
3 58 59 0
3 27 43 12
3 60 61 62
3 63 61 64
3 65 66 63
3 65 67 68
3 69 67 70
3 69 71 72
3 73 71 74
3 75 76 73
3 75 77 78
3 79 80 77
3 81 80 82
3 81 83 84
3 85 83 86
3 85 87 88
3 89 87 90
3 91 92 89
3 91 93 94
3 95 93 96
3 95 97 98
3 99 97 100
3 101 102 99
3 101 103 104
3 105 103 106
3 107 108 105
3 109 110 107
3 109 111 112
3 113 111 114
3 115 116 113
3 115 117 118
3 119 120 117
3 121 120 122
3 121 62 123
3 96 79 109
3 1 62 61
3 124 61 66
3 4 66 68
3 4 67 7
3 9 67 72
3 9 71 125
3 125 76 11
3 11 78 14
3 16 78 77
3 18 77 80
3 20 80 84
3 20 83 22
3 24 83 88
3 24 87 26
3 26 92 28
3 28 94 30
3 32 94 93
3 34 93 98
3 36 98 97
3 36 102 38
3 40 102 104
3 40 103 42
3 42 108 44
3 44 110 46
3 48 110 112
3 50 112 111
3 52 111 116
3 52 118 54
3 54 117 126
3 126 120 56
3 56 123 127
3 127 62 59
3 0 59 1
3 1 124 3
3 3 124 4
3 4 7 6
3 7 9 8
3 9 125 10
3 10 125 11
3 11 14 13
3 14 16 15
3 16 18 17
3 18 20 19
3 20 22 21
3 22 24 23
3 24 26 25
3 26 28 27
3 28 30 29
3 30 32 31
3 32 34 33
3 34 36 35
3 36 38 37
3 38 40 39
3 40 42 41
3 42 44 43
3 44 46 45
3 46 48 47
3 48 50 49
3 50 52 51
3 52 54 53
3 54 126 55
3 55 126 56
3 56 127 58
3 58 127 59
3 58 0 2
3 2 3 5
3 5 6 8
3 8 10 5
3 12 13 15
3 15 17 12
3 19 21 27
3 23 25 27
3 27 29 31
3 31 33 35
3 35 37 39
3 39 41 43
3 43 45 47
3 47 49 51
3 51 53 58
3 55 57 58
3 58 2 12
3 5 10 12
3 12 17 19
3 21 23 27
3 27 31 43
3 35 39 43
3 43 47 58
3 53 55 58
3 2 5 12
3 12 19 27
3 31 35 43
3 47 51 58
3 58 12 43
3 60 64 61
3 63 66 61
3 65 68 66
3 65 70 67
3 69 72 67
3 69 74 71
3 73 76 71
3 75 78 76
3 75 79 77
3 79 82 80
3 81 84 80
3 81 86 83
3 85 88 83
3 85 90 87
3 89 92 87
3 91 94 92
3 91 96 93
3 95 98 93
3 95 100 97
3 99 102 97
3 101 104 102
3 101 106 103
3 105 108 103
3 107 110 108
3 109 112 110
3 109 114 111
3 113 116 111
3 115 118 116
3 115 119 117
3 119 122 120
3 121 123 120
3 121 60 62
3 64 60 121
3 121 122 119
3 119 115 109
3 113 114 109
3 109 107 105
3 105 106 101
3 101 99 96
3 100 95 96
3 96 91 89
3 89 90 85
3 85 86 79
3 81 82 79
3 79 75 73
3 73 74 69
3 69 70 64
3 65 63 64
3 64 121 109
3 115 113 109
3 109 105 96
3 99 100 96
3 96 89 79
3 86 81 79
3 79 73 64
3 70 65 64
3 121 119 109
3 105 101 96
3 89 85 79
3 73 69 64
3 64 109 79
3 1 59 62
3 124 1 61
3 4 124 66
3 4 68 67
3 9 7 67
3 9 72 71
3 125 71 76
3 11 76 78
3 16 14 78
3 18 16 77
3 20 18 80
3 20 84 83
3 24 22 83
3 24 88 87
3 26 87 92
3 28 92 94
3 32 30 94
3 34 32 93
3 36 34 98
3 36 97 102
3 40 38 102
3 40 104 103
3 42 103 108
3 44 108 110
3 48 46 110
3 50 48 112
3 52 50 111
3 52 116 118
3 54 118 117
3 126 117 120
3 56 120 123
3 127 123 62
