ply
format ascii 1.0
comment Created by Blender 2.78 (sub 0) - www.blender.org, source file: ''
element vertex 66
property float x
property float y
property float z
element face 128
property list uchar uint vertex_indices
end_header
0.000000 1.000000 -1.000000
0.000000 0.000000 1.000000
0.195090 0.980785 -1.000000
0.382683 0.923880 -1.000000
0.555570 0.831470 -1.000000
0.707107 0.707107 -1.000000
0.831470 0.555570 -1.000000
0.923880 0.382683 -1.000000
0.980785 0.195090 -1.000000
1.000000 0.000000 -1.000000
0.980785 -0.195090 -1.000000
0.923880 -0.382683 -1.000000
0.831470 -0.555570 -1.000000
0.707107 -0.707107 -1.000000
0.555570 -0.831470 -1.000000
0.382683 -0.923880 -1.000000
0.195090 -0.980785 -1.000000
-0.000000 -1.000000 -1.000000
-0.195091 -0.980785 -1.000000
-0.382684 -0.923879 -1.000000
-0.555571 -0.831469 -1.000000
-0.707107 -0.707106 -1.000000
-0.831470 -0.555570 -1.000000
-0.923880 -0.382683 -1.000000
-0.980785 -0.195089 -1.000000
-1.000000 0.000001 -1.000000
-0.980785 0.195091 -1.000000
-0.923879 0.382684 -1.000000
-0.831469 0.555571 -1.000000
-0.707106 0.707108 -1.000000
-0.555569 0.831470 -1.000000
-0.382682 0.923880 -1.000000
-0.195089 0.980786 -1.000000
0.000000 0.910559 -1.044719
0.177643 0.893063 -1.044719
0.000000 0.000000 0.900000
0.348457 0.841248 -1.044719
0.505880 0.757102 -1.044719
0.643863 0.643863 -1.044719
0.757102 0.505880 -1.044719
0.841248 0.348457 -1.044719
0.893063 0.177643 -1.044719
0.910559 0.000000 -1.044719
0.893063 -0.177643 -1.044719
0.841248 -0.348457 -1.044719
0.757102 -0.505880 -1.044719
0.643863 -0.643863 -1.044719
0.505880 -0.757102 -1.044719
0.348457 -0.841248 -1.044719
0.177643 -0.893063 -1.044719
-0.000000 -0.910559 -1.044719
-0.177643 -0.893063 -1.044719
-0.348457 -0.841247 -1.044719
-0.505880 -0.757102 -1.044719
-0.643864 -0.643863 -1.044719
-0.757102 -0.505879 -1.044719
-0.841248 -0.348456 -1.044719
-0.893063 -0.177642 -1.044719
-0.910559 0.000001 -1.044719
-0.893063 0.177644 -1.044719
-0.841247 0.348458 -1.044719
-0.757101 0.505881 -1.044719
-0.643862 0.643864 -1.044719
-0.505879 0.757103 -1.044719
-0.348456 0.841248 -1.044719
-0.177641 0.893063 -1.044719
3 0 1 2
3 2 1 3
3 3 1 4
3 4 1 5
3 5 1 6
3 6 1 7
3 7 1 8
3 8 1 9
3 9 1 10
3 10 1 11
3 11 1 12
3 12 1 13
3 13 1 14
3 14 1 15
3 15 1 16
3 16 1 17
3 17 1 18
3 18 1 19
3 19 1 20
3 20 1 21
3 21 1 22
3 22 1 23
3 23 1 24
3 24 1 25
3 25 1 26
3 26 1 27
3 27 1 28
3 28 1 29
3 29 1 30
3 30 1 31
3 31 1 32
3 32 1 0
3 33 34 35
3 34 36 35
3 36 37 35
3 37 38 35
3 38 39 35
3 39 40 35
3 40 41 35
3 41 42 35
3 42 43 35
3 43 44 35
3 44 45 35
3 45 46 35
3 46 47 35
3 47 48 35
3 48 49 35
3 49 50 35
3 50 51 35
3 51 52 35
3 52 53 35
3 53 54 35
3 54 55 35
3 55 56 35
3 56 57 35
3 57 58 35
3 58 59 35
3 59 60 35
3 60 61 35
3 61 62 35
3 62 63 35
3 63 64 35
3 64 65 35
3 65 33 35
3 2 33 0
3 3 34 2
3 4 36 3
3 4 38 37
3 5 39 38
3 6 40 39
3 7 41 40
3 8 42 41
3 10 42 9
3 11 43 10
3 12 44 11
3 13 45 12
3 13 47 46
3 14 48 47
3 15 49 48
3 16 50 49
3 18 50 17
3 19 51 18
3 20 52 19
3 21 53 20
3 22 54 21
3 22 56 55
3 23 57 56
3 24 58 57
3 26 58 25
3 27 59 26
3 28 60 27
3 29 61 28
3 30 62 29
3 30 64 63
3 31 65 64
3 32 33 65
3 2 34 33
3 3 36 34
3 4 37 36
3 4 5 38
3 5 6 39
3 6 7 40
3 7 8 41
3 8 9 42
3 10 43 42
3 11 44 43
3 12 45 44
3 13 46 45
3 13 14 47
3 14 15 48
3 15 16 49
3 16 17 50
3 18 51 50
3 19 52 51
3 20 53 52
3 21 54 53
3 22 55 54
3 22 23 56
3 23 24 57
3 24 25 58
3 26 59 58
3 27 60 59
3 28 61 60
3 29 62 61
3 30 63 62
3 30 31 64
3 31 32 65
3 32 0 33
