ply
format ascii 1.0
comment Created by Blender 2.78 (sub 0) - www.blender.org, source file: ''
element vertex 128
property float x
property float y
property float z
element face 252
property list uchar uint vertex_indices
end_header
0.000000 1.000000 -1.000000
0.097545 0.490393 1.000000
0.195090 0.980785 -1.000000
0.382683 0.923880 -1.000000
0.277785 0.415735 1.000000
0.555570 0.831470 -1.000000
0.707107 0.707107 -1.000000
0.353553 0.353553 1.000000
0.831470 0.555570 -1.000000
0.415735 0.277785 1.000000
0.923880 0.382683 -1.000000
0.490393 0.097545 1.000000
0.980785 0.195090 -1.000000
1.000000 0.000000 -1.000000
0.500000 0.000000 1.000000
0.980785 -0.195090 -1.000000
0.490393 -0.097545 1.000000
0.923880 -0.382683 -1.000000
0.461940 -0.191342 1.000000
0.831470 -0.555570 -1.000000
0.415735 -0.277785 1.000000
0.707107 -0.707107 -1.000000
0.353553 -0.353553 1.000000
0.555570 -0.831470 -1.000000
0.277785 -0.415735 1.000000
0.382683 -0.923880 -1.000000
0.191342 -0.461940 1.000000
0.195090 -0.980785 -1.000000
0.097545 -0.490393 1.000000
-0.000000 -1.000000 -1.000000
-0.000000 -0.500000 1.000000
-0.195091 -0.980785 -1.000000
-0.097545 -0.490393 1.000000
-0.382684 -0.923879 -1.000000
-0.191342 -0.461940 1.000000
-0.555571 -0.831469 -1.000000
-0.277785 -0.415735 1.000000
-0.707107 -0.707106 -1.000000
-0.353554 -0.353553 1.000000
-0.831470 -0.555570 -1.000000
-0.415735 -0.277785 1.000000
-0.923880 -0.382683 -1.000000
-0.461940 -0.191341 1.000000
-0.980785 -0.195089 -1.000000
-0.490393 -0.097545 1.000000
-1.000000 0.000001 -1.000000
-0.500000 0.000000 1.000000
-0.980785 0.195091 -1.000000
-0.490393 0.097546 1.000000
-0.923879 0.382684 -1.000000
-0.461940 0.191342 1.000000
-0.831469 0.555571 -1.000000
-0.415734 0.277786 1.000000
-0.707106 0.707108 -1.000000
-0.353553 0.353554 1.000000
-0.555569 0.831470 -1.000000
-0.191341 0.461940 1.000000
-0.382682 0.923880 -1.000000
-0.195089 0.980786 -1.000000
0.000000 0.500000 1.000000
0.176166 0.885638 -1.024253
0.000000 0.436180 0.923014
0.000000 0.902988 -1.024253
0.345561 0.834253 -1.024253
0.085097 0.427799 0.923014
0.501675 0.750806 -1.024253
0.166921 0.402978 0.923014
0.308426 0.308426 0.923014
0.242329 0.362672 0.923014
0.750806 0.501674 -1.024253
0.638510 0.638510 -1.024253
0.402978 0.166921 0.923014
0.362672 0.242329 0.923014
0.885638 0.176166 -1.024253
0.834253 0.345561 -1.024253
0.902988 0.000000 -1.024253
0.427799 0.085097 0.923014
0.427799 -0.085097 0.923014
0.436180 0.000000 0.923014
0.834253 -0.345561 -1.024253
0.885638 -0.176166 -1.024253
0.750806 -0.501674 -1.024253
0.402978 -0.166921 0.923014
0.308426 -0.308426 0.923014
0.362672 -0.242329 0.923014
0.501674 -0.750806 -1.024253
0.638510 -0.638510 -1.024253
0.345561 -0.834253 -1.024253
0.242329 -0.362672 0.923014
0.085097 -0.427799 0.923014
0.166921 -0.402978 0.923014
-0.000000 -0.902988 -1.024253
0.176166 -0.885638 -1.024253
-0.176166 -0.885638 -1.024253
-0.000000 -0.436180 0.923014
-0.345558 -0.834253 -1.024253
-0.085097 -0.427799 0.923014
-0.501675 -0.750806 -1.024253
-0.166921 -0.402978 0.923014
-0.308426 -0.308425 0.923014
-0.242329 -0.362672 0.923014
-0.750807 -0.501674 -1.024253
-0.638511 -0.638510 -1.024253
-0.834253 -0.345560 -1.024253
-0.362672 -0.242328 0.923014
-0.885638 -0.176165 -1.024253
-0.402978 -0.166920 0.923014
-0.902988 0.000001 -1.024253
-0.427799 -0.085096 0.923014
-0.885638 0.176167 -1.024253
-0.436180 0.000000 0.923014
-0.834252 0.345559 -1.024253
-0.427799 0.085097 0.923014
-0.750805 0.501676 -1.024253
-0.402978 0.166921 0.923014
-0.638509 0.638508 -1.024253
-0.362672 0.242329 0.923014
-0.242328 0.362673 0.923014
-0.308425 0.308426 0.923014
-0.345559 0.834253 -1.024253
-0.501673 0.750807 -1.024253
-0.176164 0.885638 -1.024253
-0.166920 0.402978 0.923014
-0.085096 0.427799 0.923014
0.191342 0.461940 1.000000
0.461940 0.191342 1.000000
-0.277785 0.415735 1.000000
-0.097544 0.490393 1.000000
3 0 1 2
3 1 3 2
3 3 4 5
3 4 6 5
3 7 8 6
3 9 10 8
3 10 11 12
3 11 13 12
3 14 15 13
3 16 17 15
3 18 19 17
3 20 21 19
3 22 23 21
3 24 25 23
3 26 27 25
3 28 29 27
3 30 31 29
3 32 33 31
3 34 35 33
3 36 37 35
3 38 39 37
3 40 41 39
3 42 43 41
3 44 45 43
3 46 47 45
3 48 49 47
3 50 51 49
3 52 53 51
3 54 55 53
3 55 56 57
3 34 18 50
3 56 58 57
3 58 59 0
3 60 61 62
3 63 64 60
3 65 66 63
3 65 67 68
3 69 67 70
3 69 71 72
3 73 71 74
3 75 76 73
3 75 77 78
3 79 77 80
3 81 82 79
3 81 83 84
3 85 83 86
3 87 88 85
3 87 89 90
3 91 89 92
3 93 94 91
3 95 96 93
3 97 98 95
3 97 99 100
3 101 99 102
3 103 104 101
3 105 106 103
3 107 108 105
3 109 110 107
3 111 112 109
3 113 114 111
3 115 116 113
3 115 117 118
3 119 117 120
3 94 110 61
3 121 122 119
3 62 123 121
3 2 62 0
3 3 60 2
3 5 63 3
3 6 65 5
3 6 69 70
3 8 74 69
3 10 73 74
3 12 75 73
3 15 75 13
3 17 80 15
3 19 79 17
3 21 81 19
3 21 85 86
3 23 87 85
3 25 92 87
3 27 91 92
3 31 91 29
3 33 93 31
3 35 95 33
3 37 97 35
3 37 101 102
3 39 103 101
3 41 105 103
3 43 107 105
3 47 107 45
3 49 109 47
3 51 111 49
3 51 115 113
3 53 120 115
3 55 119 120
3 57 121 119
3 58 62 121
3 0 59 1
3 1 124 3
3 3 124 4
3 4 7 6
3 7 9 8
3 9 125 10
3 10 125 11
3 11 14 13
3 14 16 15
3 16 18 17
3 18 20 19
3 20 22 21
3 22 24 23
3 24 26 25
3 26 28 27
3 28 30 29
3 30 32 31
3 32 34 33
3 34 36 35
3 36 38 37
3 38 40 39
3 40 42 41
3 42 44 43
3 44 46 45
3 46 48 47
3 48 50 49
3 50 52 51
3 52 54 53
3 54 126 55
3 55 126 56
3 124 1 59
3 59 127 124
3 56 126 54
3 54 52 50
3 50 48 46
3 46 44 50
3 42 40 34
3 38 36 34
3 34 32 30
3 30 28 26
3 26 24 22
3 22 20 18
3 18 16 14
3 14 11 18
3 125 9 7
3 7 4 124
3 124 127 56
3 56 54 124
3 50 44 42
3 40 38 34
3 34 30 18
3 26 22 18
3 18 11 125
3 125 7 18
3 124 54 50
3 50 42 34
3 30 26 18
3 18 7 124
3 124 50 18
3 56 127 58
3 58 127 59
3 60 64 61
3 63 66 64
3 65 68 66
3 65 70 67
3 69 72 67
3 69 74 71
3 73 76 71
3 75 78 76
3 75 80 77
3 79 82 77
3 81 84 82
3 81 86 83
3 85 88 83
3 87 90 88
3 87 92 89
3 91 94 89
3 93 96 94
3 95 98 96
3 97 100 98
3 97 102 99
3 101 104 99
3 103 106 104
3 105 108 106
3 107 110 108
3 109 112 110
3 111 114 112
3 113 116 114
3 115 118 116
3 115 120 117
3 119 122 117
3 61 64 66
3 66 68 67
3 67 72 71
3 71 76 78
3 78 77 82
3 82 84 83
3 83 88 90
3 90 89 94
3 94 96 98
3 98 100 99
3 99 104 106
3 106 108 110
3 110 112 114
3 114 116 118
3 118 117 122
3 122 123 61
3 61 66 67
3 67 71 78
3 78 82 83
3 83 90 94
3 94 98 99
3 99 106 110
3 110 114 118
3 118 122 61
3 61 67 78
3 78 83 94
3 94 99 110
3 110 118 61
3 61 78 94
3 121 123 122
3 62 61 123
3 2 60 62
3 3 63 60
3 5 65 63
3 6 70 65
3 6 8 69
3 8 10 74
3 10 12 73
3 12 13 75
3 15 80 75
3 17 79 80
3 19 81 79
3 21 86 81
3 21 23 85
3 23 25 87
3 25 27 92
3 27 29 91
3 31 93 91
3 33 95 93
3 35 97 95
3 37 102 97
3 37 39 101
3 39 41 103
3 41 43 105
3 43 45 107
3 47 109 107
3 49 111 109
3 51 113 111
3 51 53 115
3 53 55 120
3 55 57 119
3 57 58 121
3 58 0 62
