ply
format ascii 1.0
comment Created by Blender 2.78 (sub 0) - www.blender.org, source file: ''
element vertex 64
property float x
property float y
property float z
element face 124
property list uchar uint vertex_indices
end_header
0.000000 1.000000 -1.000000
0.097545 0.490393 1.000000
0.195090 0.980785 -1.000000
0.382683 0.923880 -1.000000
0.277785 0.415735 1.000000
0.555570 0.831470 -1.000000
0.707107 0.707107 -1.000000
0.353553 0.353553 1.000000
0.831470 0.555570 -1.000000
0.415735 0.277785 1.000000
0.923880 0.382683 -1.000000
0.490393 0.097545 1.000000
0.980785 0.195090 -1.000000
1.000000 0.000000 -1.000000
0.500000 0.000000 1.000000
0.980785 -0.195090 -1.000000
0.490393 -0.097545 1.000000
0.923880 -0.382683 -1.000000
0.461940 -0.191342 1.000000
0.831470 -0.555570 -1.000000
0.415735 -0.277785 1.000000
0.707107 -0.707107 -1.000000
0.353553 -0.353553 1.000000
0.555570 -0.831470 -1.000000
0.277785 -0.415735 1.000000
0.382683 -0.923880 -1.000000
0.191342 -0.461940 1.000000
0.195090 -0.980785 -1.000000
0.097545 -0.490393 1.000000
-0.000000 -1.000000 -1.000000
-0.000000 -0.500000 1.000000
-0.195091 -0.980785 -1.000000
-0.097545 -0.490393 1.000000
-0.382684 -0.923879 -1.000000
-0.191342 -0.461940 1.000000
-0.555571 -0.831469 -1.000000
-0.277785 -0.415735 1.000000
-0.707107 -0.707106 -1.000000
-0.353554 -0.353553 1.000000
-0.831470 -0.555570 -1.000000
-0.415735 -0.277785 1.000000
-0.923880 -0.382683 -1.000000
-0.461940 -0.191341 1.000000
-0.980785 -0.195089 -1.000000
-0.490393 -0.097545 1.000000
-1.000000 0.000001 -1.000000
-0.500000 0.000000 1.000000
-0.980785 0.195091 -1.000000
-0.490393 0.097546 1.000000
-0.923879 0.382684 -1.000000
-0.461940 0.191342 1.000000
-0.831469 0.555571 -1.000000
-0.415734 0.277786 1.000000
-0.707106 0.707108 -1.000000
-0.353553 0.353554 1.000000
-0.555569 0.831470 -1.000000
-0.191341 0.461940 1.000000
-0.382682 0.923880 -1.000000
-0.195089 0.980786 -1.000000
0.000000 0.500000 1.000000
0.191342 0.461940 1.000000
0.461940 0.191342 1.000000
-0.277785 0.415735 1.000000
-0.097544 0.490393 1.000000
3 0 1 2
3 1 3 2
3 3 4 5
3 4 6 5
3 7 8 6
3 9 10 8
3 10 11 12
3 11 13 12
3 14 15 13
3 16 17 15
3 18 19 17
3 20 21 19
3 22 23 21
3 24 25 23
3 26 27 25
3 28 29 27
3 30 31 29
3 32 33 31
3 34 35 33
3 36 37 35
3 38 39 37
3 40 41 39
3 42 43 41
3 44 45 43
3 46 47 45
3 48 49 47
3 50 51 49
3 52 53 51
3 54 55 53
3 55 56 57
3 34 18 50
3 56 58 57
3 58 59 0
3 27 43 12
3 0 59 1
3 1 60 3
3 3 60 4
3 4 7 6
3 7 9 8
3 9 61 10
3 10 61 11
3 11 14 13
3 14 16 15
3 16 18 17
3 18 20 19
3 20 22 21
3 22 24 23
3 24 26 25
3 26 28 27
3 28 30 29
3 30 32 31
3 32 34 33
3 34 36 35
3 36 38 37
3 38 40 39
3 40 42 41
3 42 44 43
3 44 46 45
3 46 48 47
3 48 50 49
3 50 52 51
3 52 54 53
3 54 62 55
3 55 62 56
3 60 1 59
3 59 63 60
3 56 62 54
3 54 52 50
3 50 48 46
3 46 44 50
3 42 40 34
3 38 36 34
3 34 32 30
3 30 28 26
3 26 24 22
3 22 20 18
3 18 16 14
3 14 11 18
3 61 9 7
3 7 4 60
3 60 63 56
3 56 54 60
3 50 44 42
3 40 38 34
3 34 30 18
3 26 22 18
3 18 11 61
3 61 7 18
3 60 54 50
3 50 42 34
3 30 26 18
3 18 7 60
3 60 50 18
3 56 63 58
3 58 63 59
3 58 0 2
3 2 3 5
3 5 6 8
3 8 10 5
3 12 13 15
3 15 17 12
3 19 21 27
3 23 25 27
3 27 29 31
3 31 33 35
3 35 37 39
3 39 41 43
3 43 45 47
3 47 49 51
3 51 53 58
3 55 57 58
3 58 2 12
3 5 10 12
3 12 17 19
3 21 23 27
3 27 31 43
3 35 39 43
3 43 47 58
3 53 55 58
3 2 5 12
3 12 19 27
3 31 35 43
3 47 51 58
3 58 12 43
