ply
format ascii 1.0
comment Created by Blender 2.78 (sub 0) - www.blender.org, source file: ''
element vertex 128
property float x
property float y
property float z
element face 256
property list uchar uint vertex_indices
end_header
0.000000 1.000000 -1.000000
0.097545 0.490393 1.000000
0.195090 0.980785 -1.000000
0.382683 0.923880 -1.000000
0.277785 0.415735 1.000000
0.555570 0.831470 -1.000000
0.707107 0.707107 -1.000000
0.353553 0.353553 1.000000
0.831470 0.555570 -1.000000
0.415735 0.277785 1.000000
0.923880 0.382683 -1.000000
0.490393 0.097545 1.000000
0.980785 0.195090 -1.000000
1.000000 0.000000 -1.000000
0.500000 0.000000 1.000000
0.980785 -0.195090 -1.000000
0.490393 -0.097545 1.000000
0.923880 -0.382683 -1.000000
0.461940 -0.191342 1.000000
0.831470 -0.555570 -1.000000
0.415735 -0.277785 1.000000
0.707107 -0.707107 -1.000000
0.353553 -0.353553 1.000000
0.555570 -0.831470 -1.000000
0.277785 -0.415735 1.000000
0.382683 -0.923880 -1.000000
0.191342 -0.461940 1.000000
0.195090 -0.980785 -1.000000
0.097545 -0.490393 1.000000
-0.000000 -1.000000 -1.000000
-0.000000 -0.500000 1.000000
-0.195091 -0.980785 -1.000000
-0.097545 -0.490393 1.000000
-0.382684 -0.923879 -1.000000
-0.191342 -0.461940 1.000000
-0.555571 -0.831469 -1.000000
-0.277785 -0.415735 1.000000
-0.707107 -0.707106 -1.000000
-0.353554 -0.353553 1.000000
-0.831470 -0.555570 -1.000000
-0.415735 -0.277785 1.000000
-0.923880 -0.382683 -1.000000
-0.461940 -0.191341 1.000000
-0.980785 -0.195089 -1.000000
-0.490393 -0.097545 1.000000
-1.000000 0.000001 -1.000000
-0.500000 0.000000 1.000000
-0.980785 0.195091 -1.000000
-0.490393 0.097546 1.000000
-0.923879 0.382684 -1.000000
-0.461940 0.191342 1.000000
-0.831469 0.555571 -1.000000
-0.415734 0.277786 1.000000
-0.707106 0.707108 -1.000000
-0.353553 0.353554 1.000000
-0.555569 0.831470 -1.000000
-0.191341 0.461940 1.000000
-0.382682 0.923880 -1.000000
-0.195089 0.980786 -1.000000
0.000000 0.500000 1.000000
0.176166 0.885638 -1.024253
0.000000 0.402988 0.975747
0.000000 0.902988 -1.024253
0.345561 0.834253 -1.024253
0.078621 0.395245 0.975747
0.501675 0.750806 -1.024253
0.154219 0.372313 0.975747
0.284957 0.284957 0.975747
0.223889 0.335071 0.975747
0.750806 0.501674 -1.024253
0.638510 0.638510 -1.024253
0.372313 0.154219 0.975747
0.335071 0.223889 0.975747
0.885638 0.176166 -1.024253
0.834253 0.345561 -1.024253
0.902988 0.000000 -1.024253
0.395245 0.078621 0.975747
0.885638 -0.176166 -1.024253
0.402988 0.000000 0.975747
0.372313 -0.154219 0.975747
0.395245 -0.078621 0.975747
0.750806 -0.501674 -1.024253
0.834253 -0.345561 -1.024253
0.284957 -0.284957 0.975747
0.335071 -0.223889 0.975747
0.501674 -0.750806 -1.024253
0.638510 -0.638510 -1.024253
0.154219 -0.372313 0.975747
0.223889 -0.335071 0.975747
0.176166 -0.885638 -1.024253
0.345561 -0.834253 -1.024253
-0.000000 -0.902988 -1.024253
0.078621 -0.395245 0.975747
-0.078621 -0.395245 0.975747
-0.000000 -0.402988 0.975747
-0.345558 -0.834253 -1.024253
-0.176166 -0.885638 -1.024253
-0.501675 -0.750806 -1.024253
-0.154216 -0.372313 0.975747
-0.284957 -0.284957 0.975747
-0.223890 -0.335071 0.975747
-0.750807 -0.501674 -1.024253
-0.638511 -0.638510 -1.024253
-0.372313 -0.154219 0.975747
-0.335072 -0.223889 0.975747
-0.885638 -0.176165 -1.024253
-0.834253 -0.345560 -1.024253
-0.902988 0.000001 -1.024253
-0.395245 -0.078620 0.975747
-0.395245 0.078621 0.975747
-0.402988 0.000000 0.975747
-0.834252 0.345559 -1.024253
-0.885638 0.176167 -1.024253
-0.750805 0.501676 -1.024253
-0.372313 0.154216 0.975747
-0.638509 0.638508 -1.024253
-0.335071 0.223890 0.975747
-0.223889 0.335072 0.975747
-0.284956 0.284954 0.975747
-0.501673 0.750807 -1.024253
-0.154218 0.372313 0.975747
-0.345559 0.834253 -1.024253
-0.078620 0.395245 0.975747
-0.176164 0.885638 -1.024253
0.191342 0.461940 1.000000
0.461940 0.191342 1.000000
-0.277785 0.415735 1.000000
-0.097544 0.490393 1.000000
3 0 1 2
3 1 3 2
3 3 4 5
3 4 6 5
3 7 8 6
3 9 10 8
3 10 11 12
3 11 13 12
3 14 15 13
3 16 17 15
3 18 19 17
3 20 21 19
3 22 23 21
3 24 25 23
3 26 27 25
3 28 29 27
3 30 31 29
3 32 33 31
3 34 35 33
3 36 37 35
3 38 39 37
3 40 41 39
3 42 43 41
3 44 45 43
3 46 47 45
3 48 49 47
3 50 51 49
3 52 53 51
3 54 55 53
3 55 56 57
3 56 58 57
3 58 59 0
3 60 61 62
3 63 64 60
3 65 66 63
3 65 67 68
3 69 67 70
3 69 71 72
3 73 71 74
3 75 76 73
3 77 78 75
3 77 79 80
3 81 79 82
3 81 83 84
3 85 83 86
3 85 87 88
3 89 87 90
3 91 92 89
3 91 93 94
3 95 93 96
3 97 98 95
3 97 99 100
3 101 99 102
3 101 103 104
3 105 103 106
3 107 108 105
3 107 109 110
3 111 109 112
3 113 114 111
3 115 116 113
3 115 117 118
3 119 120 117
3 121 122 120
3 62 122 123
3 2 62 0
3 1 61 64
3 3 60 2
3 124 64 66
3 5 63 3
3 4 66 68
3 6 65 5
3 4 67 7
3 6 69 70
3 9 67 72
3 8 74 69
3 9 71 125
3 10 73 74
3 125 76 11
3 12 75 73
3 11 78 14
3 15 75 13
3 16 78 80
3 17 77 15
3 18 80 79
3 19 82 17
3 20 79 84
3 21 81 19
3 20 83 22
3 21 85 86
3 24 83 88
3 23 90 85
3 24 87 26
3 25 89 90
3 26 92 28
3 27 91 89
3 28 94 30
3 31 91 29
3 32 94 93
3 33 96 31
3 34 93 98
3 35 95 33
3 36 98 100
3 37 97 35
3 36 99 38
3 37 101 102
3 40 99 104
3 39 106 101
3 40 103 42
3 41 105 106
3 42 108 44
3 43 107 105
3 44 110 46
3 47 107 45
3 48 110 109
3 49 112 47
3 50 109 114
3 51 111 49
3 52 114 116
3 51 115 113
3 52 118 54
3 53 119 115
3 54 117 126
3 55 121 119
3 126 120 56
3 57 123 121
3 56 122 127
3 58 62 123
3 127 61 59
3 0 59 1
3 1 124 3
3 3 124 4
3 4 7 6
3 7 9 8
3 9 125 10
3 10 125 11
3 11 14 13
3 14 16 15
3 16 18 17
3 18 20 19
3 20 22 21
3 22 24 23
3 24 26 25
3 26 28 27
3 28 30 29
3 30 32 31
3 32 34 33
3 34 36 35
3 36 38 37
3 38 40 39
3 40 42 41
3 42 44 43
3 44 46 45
3 46 48 47
3 48 50 49
3 50 52 51
3 52 54 53
3 54 126 55
3 55 126 56
3 56 127 58
3 58 127 59
3 60 64 61
3 63 66 64
3 65 68 66
3 65 70 67
3 69 72 67
3 69 74 71
3 73 76 71
3 75 78 76
3 77 80 78
3 77 82 79
3 81 84 79
3 81 86 83
3 85 88 83
3 85 90 87
3 89 92 87
3 91 94 92
3 91 96 93
3 95 98 93
3 97 100 98
3 97 102 99
3 101 104 99
3 101 106 103
3 105 108 103
3 107 110 108
3 107 112 109
3 111 114 109
3 113 116 114
3 115 118 116
3 115 119 117
3 119 121 120
3 121 123 122
3 62 61 122
3 2 60 62
3 1 59 61
3 3 63 60
3 124 1 64
3 5 65 63
3 4 124 66
3 6 70 65
3 4 68 67
3 6 8 69
3 9 7 67
3 8 10 74
3 9 72 71
3 10 12 73
3 125 71 76
3 12 13 75
3 11 76 78
3 15 77 75
3 16 14 78
3 17 82 77
3 18 16 80
3 19 81 82
3 20 18 79
3 21 86 81
3 20 84 83
3 21 23 85
3 24 22 83
3 23 25 90
3 24 88 87
3 25 27 89
3 26 87 92
3 27 29 91
3 28 92 94
3 31 96 91
3 32 30 94
3 33 95 96
3 34 32 93
3 35 97 95
3 36 34 98
3 37 102 97
3 36 100 99
3 37 39 101
3 40 38 99
3 39 41 106
3 40 104 103
3 41 43 105
3 42 103 108
3 43 45 107
3 44 108 110
3 47 112 107
3 48 46 110
3 49 111 112
3 50 48 109
3 51 113 111
3 52 50 114
3 51 53 115
3 52 116 118
3 53 55 119
3 54 118 117
3 55 57 121
3 126 117 120
3 57 58 123
3 56 120 122
3 58 0 62
3 127 122 61
