ply
format ascii 1.0
comment Created by Blender 2.78 (sub 0) - www.blender.org, source file: ''
element vertex 16
property float x
property float y
property float z
element face 28
property list uchar uint vertex_indices
end_header
-1.000000 -1.000000 1.000000
-1.000000 1.000000 -1.000000
-1.000000 -1.000000 -1.000000
-1.000000 1.000000 1.000000
1.000000 1.000000 -1.000000
1.000000 1.000000 1.000000
1.000000 -1.000000 -1.000000
1.000000 -1.000000 1.000000
-0.929292 -0.929292 1.000000
-0.942265 -0.942265 -0.942265
-0.942265 0.942265 -0.942265
-0.929292 0.929292 1.000000
0.942265 0.942265 -0.942265
0.929292 0.929292 1.000000
0.942265 -0.942265 -0.942265
0.929292 -0.929292 1.000000
3 0 1 2
3 3 4 1
3 5 6 4
3 7 2 6
3 4 2 1
3 0 3 1
3 3 5 4
3 5 7 6
3 7 0 2
3 4 6 2
3 8 9 10
3 11 10 12
3 13 12 14
3 15 14 9
3 12 10 9
3 8 10 11
3 11 12 13
3 13 14 15
3 15 9 8
3 12 9 14
3 0 11 3
3 3 13 5
3 5 15 7
3 7 8 0
3 0 8 11
3 3 11 13
3 5 13 15
3 7 15 8
