ply
format ascii 1.0
comment Created by Blender 2.78 (sub 0) - www.blender.org, source file: ''
element vertex 16
property float x
property float y
property float z
element face 32
property list uchar uint vertex_indices
end_header
-1.000000 -1.000000 1.000000
-1.000000 1.000000 -1.000000
-1.000000 -1.000000 -1.000000
-1.000000 1.000000 1.000000
1.000000 1.000000 -1.000000
1.000000 1.000000 1.000000
1.000000 -1.000000 -1.000000
1.000000 -1.000000 1.000000
-0.929292 0.929292 -1.000000
-0.929292 -0.929292 1.000000
-0.929292 -0.929292 -1.000000
0.929292 0.929292 -1.000000
-0.929292 0.929292 1.000000
0.929292 -0.929292 -1.000000
0.929292 0.929292 1.000000
0.929292 -0.929292 1.000000
3 0 1 2
3 3 4 1
3 5 6 4
3 7 2 6
3 8 9 10
3 11 12 8
3 13 14 11
3 10 15 13
3 1 10 2
3 0 12 3
3 4 8 1
3 3 14 5
3 6 11 4
3 5 15 7
3 2 13 6
3 7 9 0
3 0 3 1
3 3 5 4
3 5 7 6
3 7 0 2
3 8 12 9
3 11 14 12
3 13 15 14
3 10 9 15
3 1 8 10
3 0 9 12
3 4 11 8
3 3 12 14
3 6 13 11
3 5 14 15
3 2 10 13
3 7 15 9
