ply
format ascii 1.0
comment Created by Blender 2.78 (sub 0) - www.blender.org, source file: ''
element vertex 128
property float x
property float y
property float z
element face 252
property list uchar uint vertex_indices
end_header
0.000000 1.000000 1.000000
0.195090 0.980785 -1.000000
0.000000 1.000000 -1.000000
0.195090 0.980785 1.000000
0.382683 0.923880 -1.000000
0.382683 0.923880 1.000000
0.555570 0.831470 -1.000000
0.555570 0.831470 1.000000
0.707107 0.707107 -1.000000
0.707107 0.707107 1.000000
0.831470 0.555570 -1.000000
0.831470 0.555570 1.000000
0.923880 0.382683 -1.000000
0.923880 0.382683 1.000000
0.980785 0.195090 -1.000000
0.980785 0.195090 1.000000
1.000000 0.000000 -1.000000
1.000000 0.000000 1.000000
0.980785 -0.195090 -1.000000
0.980785 -0.195090 1.000000
0.923880 -0.382683 -1.000000
0.923880 -0.382683 1.000000
0.831470 -0.555570 -1.000000
0.831470 -0.555570 1.000000
0.707107 -0.707107 -1.000000
0.707107 -0.707107 1.000000
0.555570 -0.831470 -1.000000
0.555570 -0.831470 1.000000
0.382683 -0.923880 -1.000000
0.382683 -0.923880 1.000000
0.195090 -0.980785 -1.000000
0.195090 -0.980785 1.000000
-0.000000 -1.000000 -1.000000
-0.000000 -1.000000 1.000000
-0.195091 -0.980785 -1.000000
-0.195091 -0.980785 1.000000
-0.382684 -0.923879 -1.000000
-0.382684 -0.923879 1.000000
-0.555571 -0.831469 -1.000000
-0.555571 -0.831469 1.000000
-0.707107 -0.707106 -1.000000
-0.707107 -0.707106 1.000000
-0.831470 -0.555570 -1.000000
-0.831470 -0.555570 1.000000
-0.923880 -0.382683 -1.000000
-0.923880 -0.382683 1.000000
-0.980785 -0.195089 -1.000000
-0.980785 -0.195089 1.000000
-1.000000 0.000001 -1.000000
-1.000000 0.000001 1.000000
-0.980785 0.195091 -1.000000
-0.980785 0.195091 1.000000
-0.923879 0.382684 -1.000000
-0.923879 0.382684 1.000000
-0.831469 0.555571 -1.000000
-0.831469 0.555571 1.000000
-0.707106 0.707108 -1.000000
-0.707106 0.707108 1.000000
-0.555569 0.831470 -1.000000
-0.555569 0.831470 1.000000
-0.382682 0.923880 -1.000000
-0.382682 0.923880 1.000000
-0.195089 0.980786 -1.000000
-0.195089 0.980786 1.000000
0.180890 0.909396 -0.931431
0.000000 0.900000 1.000000
0.000000 0.927213 -0.931431
0.354829 0.856632 -0.931431
0.175583 0.882708 1.000000
0.515133 0.770948 -0.931431
0.344416 0.831494 1.000000
0.655640 0.655640 -0.931431
0.500014 0.748325 1.000000
0.770948 0.515133 -0.931431
0.636398 0.636398 1.000000
0.856632 0.354829 -0.931431
0.748325 0.500014 1.000000
0.882708 0.175583 1.000000
0.831494 0.344416 1.000000
0.927213 0.000000 -0.931431
0.909396 0.180890 -0.931431
0.909396 -0.180890 -0.931431
0.900000 0.000000 1.000000
0.856632 -0.354829 -0.931431
0.882708 -0.175583 1.000000
0.770948 -0.515133 -0.931431
0.831494 -0.344416 1.000000
0.636398 -0.636398 1.000000
0.748325 -0.500014 1.000000
0.515133 -0.770948 -0.931431
0.655640 -0.655640 -0.931431
0.354829 -0.856632 -0.931431
0.500014 -0.748325 1.000000
0.180890 -0.909396 -0.931431
0.344416 -0.831494 1.000000
-0.000000 -0.927213 -0.931431
0.175583 -0.882708 1.000000
-0.180890 -0.909396 -0.931431
-0.000000 -0.900003 1.000000
-0.354830 -0.856632 -0.931431
-0.175583 -0.882708 1.000000
-0.515134 -0.770948 -0.931431
-0.344417 -0.831494 1.000000
-0.655641 -0.655640 -0.931431
-0.500015 -0.748325 1.000000
-0.770949 -0.515133 -0.931431
-0.636399 -0.636398 1.000000
-0.856632 -0.354828 -0.931431
-0.748325 -0.500014 1.000000
-0.882708 -0.175582 1.000000
-0.831494 -0.344416 1.000000
-0.909397 -0.180889 -0.931431
-0.900003 0.000001 1.000000
-0.909396 0.180891 -0.931431
-0.927213 0.000001 -0.931431
-0.856632 0.354830 -0.931431
-0.882708 0.175584 1.000000
-0.770948 0.515134 -0.931431
-0.831493 0.344417 1.000000
-0.655639 0.655638 -0.931431
-0.748324 0.500015 1.000000
-0.515132 0.770949 -0.931431
-0.636398 0.636399 1.000000
-0.354828 0.856633 -0.931431
-0.500013 0.748326 1.000000
-0.175581 0.882708 1.000000
-0.344415 0.831494 1.000000
-0.180889 0.909397 -0.931431
3 0 1 2
3 3 4 1
3 5 6 4
3 7 8 6
3 9 10 8
3 11 12 10
3 13 14 12
3 15 16 14
3 17 18 16
3 19 20 18
3 21 22 20
3 23 24 22
3 25 26 24
3 27 28 26
3 29 30 28
3 31 32 30
3 33 34 32
3 35 36 34
3 37 38 36
3 39 40 38
3 41 42 40
3 43 44 42
3 45 46 44
3 47 48 46
3 49 50 48
3 51 52 50
3 53 54 52
3 55 56 54
3 57 58 56
3 59 60 58
3 61 62 60
3 63 2 62
3 30 46 14
3 64 65 66
3 67 68 64
3 69 70 67
3 71 72 69
3 73 74 71
3 75 76 73
3 75 77 78
3 79 77 80
3 81 82 79
3 83 84 81
3 85 86 83
3 85 87 88
3 89 87 90
3 91 92 89
3 93 94 91
3 95 96 93
3 97 98 95
3 99 100 97
3 101 102 99
3 103 104 101
3 105 106 103
3 107 108 105
3 107 109 110
3 111 112 109
3 113 112 114
3 115 116 113
3 117 118 115
3 119 120 117
3 121 122 119
3 123 124 121
3 123 125 126
3 66 125 127
3 97 81 64
3 3 65 68
3 5 68 70
3 5 72 7
3 7 74 9
3 11 74 76
3 13 76 78
3 13 77 15
3 15 82 17
3 19 82 84
3 21 84 86
3 21 88 23
3 23 87 25
3 27 87 92
3 29 92 94
3 29 96 31
3 31 98 33
3 35 98 100
3 37 100 102
3 37 104 39
3 39 106 41
3 43 106 108
3 45 108 110
3 45 109 47
3 47 112 49
3 51 112 116
3 53 116 118
3 55 118 120
3 55 122 57
3 59 122 124
3 61 124 126
3 61 125 63
3 63 65 0
3 0 3 1
3 3 5 4
3 5 7 6
3 7 9 8
3 9 11 10
3 11 13 12
3 13 15 14
3 15 17 16
3 17 19 18
3 19 21 20
3 21 23 22
3 23 25 24
3 25 27 26
3 27 29 28
3 29 31 30
3 31 33 32
3 33 35 34
3 35 37 36
3 37 39 38
3 39 41 40
3 41 43 42
3 43 45 44
3 45 47 46
3 47 49 48
3 49 51 50
3 51 53 52
3 53 55 54
3 55 57 56
3 57 59 58
3 59 61 60
3 61 63 62
3 63 0 2
3 62 2 1
3 1 4 6
3 6 8 10
3 10 12 6
3 14 16 18
3 18 20 14
3 22 24 30
3 26 28 30
3 30 32 34
3 34 36 38
3 38 40 42
3 42 44 46
3 46 48 50
3 50 52 54
3 54 56 62
3 58 60 62
3 62 1 14
3 6 12 14
3 14 20 22
3 24 26 30
3 30 34 46
3 38 42 46
3 46 50 62
3 56 58 62
3 1 6 14
3 14 22 30
3 34 38 46
3 50 54 62
3 62 14 46
3 64 68 65
3 67 70 68
3 69 72 70
3 71 74 72
3 73 76 74
3 75 78 76
3 75 80 77
3 79 82 77
3 81 84 82
3 83 86 84
3 85 88 86
3 85 90 87
3 89 92 87
3 91 94 92
3 93 96 94
3 95 98 96
3 97 100 98
3 99 102 100
3 101 104 102
3 103 106 104
3 105 108 106
3 107 110 108
3 107 111 109
3 111 114 112
3 113 116 112
3 115 118 116
3 117 120 118
3 119 122 120
3 121 124 122
3 123 126 124
3 123 127 125
3 66 65 125
3 64 66 127
3 127 123 64
3 121 119 117
3 117 115 121
3 113 114 111
3 111 107 113
3 105 103 101
3 101 99 105
3 97 95 93
3 93 91 97
3 89 90 85
3 85 83 89
3 81 79 80
3 80 75 81
3 73 71 69
3 69 67 73
3 64 123 121
3 121 115 113
3 113 107 105
3 105 99 97
3 97 91 89
3 89 83 81
3 81 75 73
3 73 67 64
3 64 121 113
3 113 105 97
3 97 89 81
3 81 73 64
3 64 113 97
3 3 0 65
3 5 3 68
3 5 70 72
3 7 72 74
3 11 9 74
3 13 11 76
3 13 78 77
3 15 77 82
3 19 17 82
3 21 19 84
3 21 86 88
3 23 88 87
3 27 25 87
3 29 27 92
3 29 94 96
3 31 96 98
3 35 33 98
3 37 35 100
3 37 102 104
3 39 104 106
3 43 41 106
3 45 43 108
3 45 110 109
3 47 109 112
3 51 49 112
3 53 51 116
3 55 53 118
3 55 120 122
3 59 57 122
3 61 59 124
3 61 126 125
3 63 125 65
