ply
format ascii 1.0
comment Created by Blender 2.78 (sub 0) - www.blender.org, source file: ''
element vertex 128
property float x
property float y
property float z
element face 256
property list uchar uint vertex_indices
end_header
0.000000 1.000000 1.000000
0.195090 0.980785 -1.000000
0.000000 1.000000 -1.000000
0.195090 0.980785 1.000000
0.382683 0.923880 -1.000000
0.382683 0.923880 1.000000
0.555570 0.831470 -1.000000
0.555570 0.831470 1.000000
0.707107 0.707107 -1.000000
0.707107 0.707107 1.000000
0.831470 0.555570 -1.000000
0.831470 0.555570 1.000000
0.923880 0.382683 -1.000000
0.923880 0.382683 1.000000
0.980785 0.195090 -1.000000
0.980785 0.195090 1.000000
1.000000 0.000000 -1.000000
1.000000 0.000000 1.000000
0.980785 -0.195090 -1.000000
0.980785 -0.195090 1.000000
0.923880 -0.382683 -1.000000
0.923880 -0.382683 1.000000
0.831470 -0.555570 -1.000000
0.831470 -0.555570 1.000000
0.707107 -0.707107 -1.000000
0.707107 -0.707107 1.000000
0.555570 -0.831470 -1.000000
0.555570 -0.831470 1.000000
0.382683 -0.923880 -1.000000
0.382683 -0.923880 1.000000
0.195090 -0.980785 -1.000000
0.195090 -0.980785 1.000000
-0.000000 -1.000000 -1.000000
-0.000000 -1.000000 1.000000
-0.195091 -0.980785 -1.000000
-0.195091 -0.980785 1.000000
-0.382684 -0.923879 -1.000000
-0.382684 -0.923879 1.000000
-0.555571 -0.831469 -1.000000
-0.555571 -0.831469 1.000000
-0.707107 -0.707106 -1.000000
-0.707107 -0.707106 1.000000
-0.831470 -0.555570 -1.000000
-0.831470 -0.555570 1.000000
-0.923880 -0.382683 -1.000000
-0.923880 -0.382683 1.000000
-0.980785 -0.195089 -1.000000
-0.980785 -0.195089 1.000000
-1.000000 0.000001 -1.000000
-1.000000 0.000001 1.000000
-0.980785 0.195091 -1.000000
-0.980785 0.195091 1.000000
-0.923879 0.382684 -1.000000
-0.923879 0.382684 1.000000
-0.831469 0.555571 -1.000000
-0.831469 0.555571 1.000000
-0.707106 0.707108 -1.000000
-0.707106 0.707108 1.000000
-0.555569 0.831470 -1.000000
-0.555569 0.831470 1.000000
-0.382682 0.923880 -1.000000
-0.382682 0.923880 1.000000
-0.195089 0.980786 -1.000000
-0.195089 0.980786 1.000000
0.175583 0.882708 -1.000000
0.000000 0.900000 1.000000
0.000000 0.900000 -1.000000
0.344416 0.831494 -1.000000
0.175583 0.882708 1.000000
0.500014 0.748325 -1.000000
0.344416 0.831494 1.000000
0.636398 0.636398 -1.000000
0.500014 0.748325 1.000000
0.748325 0.500014 -1.000000
0.636398 0.636398 1.000000
0.831494 0.344416 -1.000000
0.748325 0.500014 1.000000
0.882708 0.175583 -1.000000
0.831494 0.344416 1.000000
0.900000 0.000000 -1.000000
0.882708 0.175583 1.000000
0.882708 -0.175583 -1.000000
0.900000 0.000000 1.000000
0.831494 -0.344416 -1.000000
0.882708 -0.175583 1.000000
0.748325 -0.500014 -1.000000
0.831494 -0.344416 1.000000
0.636398 -0.636398 -1.000000
0.748325 -0.500014 1.000000
0.500014 -0.748325 -1.000000
0.636398 -0.636398 1.000000
0.344416 -0.831494 -1.000000
0.500014 -0.748325 1.000000
0.175583 -0.882708 -1.000000
0.344416 -0.831494 1.000000
-0.000000 -0.900003 -1.000000
0.175583 -0.882708 1.000000
-0.175583 -0.882708 -1.000000
-0.000000 -0.900003 1.000000
-0.344417 -0.831494 -1.000000
-0.175583 -0.882708 1.000000
-0.500015 -0.748325 -1.000000
-0.344417 -0.831494 1.000000
-0.636399 -0.636398 -1.000000
-0.500015 -0.748325 1.000000
-0.748325 -0.500014 -1.000000
-0.636399 -0.636398 1.000000
-0.831494 -0.344416 -1.000000
-0.748325 -0.500014 1.000000
-0.882708 -0.175582 -1.000000
-0.831494 -0.344416 1.000000
-0.900003 0.000001 -1.000000
-0.882708 -0.175582 1.000000
-0.882708 0.175584 -1.000000
-0.900003 0.000001 1.000000
-0.831493 0.344417 -1.000000
-0.882708 0.175584 1.000000
-0.748324 0.500015 -1.000000
-0.831493 0.344417 1.000000
-0.636398 0.636399 -1.000000
-0.748324 0.500015 1.000000
-0.500013 0.748326 -1.000000
-0.636398 0.636399 1.000000
-0.344415 0.831494 -1.000000
-0.500013 0.748326 1.000000
-0.175581 0.882708 -1.000000
-0.344415 0.831494 1.000000
-0.175581 0.882708 1.000000
3 0 1 2
3 3 4 1
3 5 6 4
3 7 8 6
3 9 10 8
3 11 12 10
3 13 14 12
3 15 16 14
3 17 18 16
3 19 20 18
3 21 22 20
3 23 24 22
3 25 26 24
3 27 28 26
3 29 30 28
3 31 32 30
3 33 34 32
3 35 36 34
3 37 38 36
3 39 40 38
3 41 42 40
3 43 44 42
3 45 46 44
3 47 48 46
3 49 50 48
3 51 52 50
3 53 54 52
3 55 56 54
3 57 58 56
3 59 60 58
3 61 62 60
3 63 2 62
3 64 65 66
3 67 68 64
3 69 70 67
3 71 72 69
3 73 74 71
3 75 76 73
3 77 78 75
3 79 80 77
3 81 82 79
3 83 84 81
3 85 86 83
3 87 88 85
3 89 90 87
3 91 92 89
3 93 94 91
3 95 96 93
3 97 98 95
3 99 100 97
3 101 102 99
3 103 104 101
3 105 106 103
3 107 108 105
3 109 110 107
3 111 112 109
3 113 114 111
3 115 116 113
3 117 118 115
3 119 120 117
3 121 122 119
3 123 124 121
3 125 126 123
3 66 127 125
3 1 66 2
3 3 65 68
3 4 64 1
3 5 68 70
3 4 69 67
3 5 72 7
3 6 71 69
3 7 74 9
3 10 71 8
3 11 74 76
3 12 73 10
3 13 76 78
3 12 77 75
3 13 80 15
3 14 79 77
3 15 82 17
3 18 79 16
3 19 82 84
3 20 81 18
3 21 84 86
3 20 85 83
3 21 88 23
3 22 87 85
3 23 90 25
3 26 87 24
3 27 90 92
3 28 89 26
3 29 92 94
3 28 93 91
3 29 96 31
3 30 95 93
3 31 98 33
3 34 95 32
3 35 98 100
3 36 97 34
3 37 100 102
3 36 101 99
3 37 104 39
3 38 103 101
3 39 106 41
3 42 103 40
3 43 106 108
3 44 105 42
3 45 108 110
3 44 109 107
3 45 112 47
3 46 111 109
3 47 114 49
3 50 111 48
3 51 114 116
3 52 113 50
3 53 116 118
3 54 115 52
3 55 118 120
3 54 119 117
3 55 122 57
3 58 119 56
3 59 122 124
3 60 121 58
3 61 124 126
3 60 125 123
3 61 127 63
3 62 66 125
3 63 65 0
3 0 3 1
3 3 5 4
3 5 7 6
3 7 9 8
3 9 11 10
3 11 13 12
3 13 15 14
3 15 17 16
3 17 19 18
3 19 21 20
3 21 23 22
3 23 25 24
3 25 27 26
3 27 29 28
3 29 31 30
3 31 33 32
3 33 35 34
3 35 37 36
3 37 39 38
3 39 41 40
3 41 43 42
3 43 45 44
3 45 47 46
3 47 49 48
3 49 51 50
3 51 53 52
3 53 55 54
3 55 57 56
3 57 59 58
3 59 61 60
3 61 63 62
3 63 0 2
3 64 68 65
3 67 70 68
3 69 72 70
3 71 74 72
3 73 76 74
3 75 78 76
3 77 80 78
3 79 82 80
3 81 84 82
3 83 86 84
3 85 88 86
3 87 90 88
3 89 92 90
3 91 94 92
3 93 96 94
3 95 98 96
3 97 100 98
3 99 102 100
3 101 104 102
3 103 106 104
3 105 108 106
3 107 110 108
3 109 112 110
3 111 114 112
3 113 116 114
3 115 118 116
3 117 120 118
3 119 122 120
3 121 124 122
3 123 126 124
3 125 127 126
3 66 65 127
3 1 64 66
3 3 0 65
3 4 67 64
3 5 3 68
3 4 6 69
3 5 70 72
3 6 8 71
3 7 72 74
3 10 73 71
3 11 9 74
3 12 75 73
3 13 11 76
3 12 14 77
3 13 78 80
3 14 16 79
3 15 80 82
3 18 81 79
3 19 17 82
3 20 83 81
3 21 19 84
3 20 22 85
3 21 86 88
3 22 24 87
3 23 88 90
3 26 89 87
3 27 25 90
3 28 91 89
3 29 27 92
3 28 30 93
3 29 94 96
3 30 32 95
3 31 96 98
3 34 97 95
3 35 33 98
3 36 99 97
3 37 35 100
3 36 38 101
3 37 102 104
3 38 40 103
3 39 104 106
3 42 105 103
3 43 41 106
3 44 107 105
3 45 43 108
3 44 46 109
3 45 110 112
3 46 48 111
3 47 112 114
3 50 113 111
3 51 49 114
3 52 115 113
3 53 51 116
3 54 117 115
3 55 53 118
3 54 56 119
3 55 120 122
3 58 121 119
3 59 57 122
3 60 123 121
3 61 59 124
3 60 62 125
3 61 126 127
3 62 2 66
3 63 127 65
