ply
format ascii 1.0
comment Created by Blender 2.78 (sub 0) - www.blender.org, source file: ''
element vertex 204
property float x
property float y
property float z
element face 136
property list uchar uint vertex_indices
end_header
0.000000 1.000000 1.000000
0.195090 0.980785 -1.000000
0.000000 1.000000 -1.000000
0.195090 0.980785 1.000000
0.382683 0.923880 -1.000000
0.195090 0.980785 -1.000000
0.382683 0.923880 1.000000
0.555570 0.831470 -1.000000
0.382683 0.923880 -1.000000
0.555570 0.831470 1.000000
0.707107 0.707107 -1.000000
0.555570 0.831470 -1.000000
0.707107 0.707107 1.000000
0.831470 0.555570 -1.000000
0.707107 0.707107 -1.000000
0.831470 0.555570 1.000000
0.923880 0.382683 -1.000000
0.831470 0.555570 -1.000000
0.923880 0.382683 1.000000
0.980785 0.195090 -1.000000
0.923880 0.382683 -1.000000
0.980785 0.195090 1.000000
1.000000 0.000000 -1.000000
0.980785 0.195090 -1.000000
-1.000000 0.000001 1.000000
-0.980785 0.195091 -1.000000
-1.000000 0.000001 -1.000000
-0.980785 0.195091 1.000000
-0.923879 0.382684 -1.000000
-0.980785 0.195091 -1.000000
-0.923879 0.382684 1.000000
-0.831469 0.555571 -1.000000
-0.923879 0.382684 -1.000000
-0.831469 0.555571 1.000000
-0.707106 0.707108 -1.000000
-0.831469 0.555571 -1.000000
-0.707106 0.707108 1.000000
-0.555569 0.831470 -1.000000
-0.707106 0.707108 -1.000000
-0.555569 0.831470 1.000000
-0.382682 0.923880 -1.000000
-0.555569 0.831470 -1.000000
-0.382682 0.923880 1.000000
-0.195089 0.980786 -1.000000
-0.382682 0.923880 -1.000000
-0.195089 0.980786 1.000000
0.000000 1.000000 -1.000000
-0.195089 0.980786 -1.000000
1.000000 0.000000 1.000000
-1.000000 0.000001 -1.000000
1.000000 0.000000 -1.000000
0.175583 0.882708 -1.000000
0.000000 0.900000 1.000000
0.000000 0.900000 -1.000000
0.344416 0.831494 -1.000000
0.175583 0.882708 1.000000
0.175583 0.882708 -1.000000
0.500014 0.748325 -1.000000
0.344416 0.831494 1.000000
0.344416 0.831494 -1.000000
0.636398 0.636398 -1.000000
0.500014 0.748325 1.000000
0.500014 0.748325 -1.000000
0.748325 0.500014 -1.000000
0.636398 0.636398 1.000000
0.636398 0.636398 -1.000000
0.831494 0.344416 -1.000000
0.748325 0.500014 1.000000
0.748325 0.500014 -1.000000
0.882708 0.175583 -1.000000
0.831494 0.344416 1.000000
0.831494 0.344416 -1.000000
0.925907 0.067153 -1.000000
0.882708 0.175583 1.000000
0.882708 0.175583 -1.000000
-0.882708 0.175584 -1.000000
-0.925907 0.067154 1.000000
-0.925907 0.067154 -1.000000
-0.831493 0.344417 -1.000000
-0.882708 0.175584 1.000000
-0.882708 0.175584 -1.000000
-0.748324 0.500015 -1.000000
-0.831493 0.344417 1.000000
-0.831493 0.344417 -1.000000
-0.636398 0.636399 -1.000000
-0.748324 0.500015 1.000000
-0.748324 0.500015 -1.000000
-0.500013 0.748326 -1.000000
-0.636398 0.636399 1.000000
-0.636398 0.636399 -1.000000
-0.344415 0.831494 -1.000000
-0.500013 0.748326 1.000000
-0.500013 0.748326 -1.000000
-0.175581 0.882708 -1.000000
-0.344415 0.831494 1.000000
-0.344415 0.831494 -1.000000
0.000000 0.900000 -1.000000
-0.175581 0.882708 1.000000
-0.175581 0.882708 -1.000000
-0.925907 0.067154 -1.000000
0.925907 0.067153 1.000000
0.925907 0.067153 -1.000000
0.195090 0.980785 -1.000000
0.000000 0.900000 -1.000000
0.000000 1.000000 -1.000000
0.195090 0.980785 1.000000
0.000000 0.900000 1.000000
0.175583 0.882708 1.000000
0.382683 0.923880 -1.000000
0.175583 0.882708 -1.000000
0.382683 0.923880 1.000000
0.344416 0.831494 1.000000
0.500014 0.748325 -1.000000
0.344416 0.831494 -1.000000
0.500014 0.748325 1.000000
0.555570 0.831470 1.000000
0.555570 0.831470 -1.000000
0.636398 0.636398 -1.000000
0.636398 0.636398 1.000000
0.707107 0.707107 1.000000
0.831470 0.555570 -1.000000
0.707107 0.707107 -1.000000
0.831470 0.555570 1.000000
0.748325 0.500014 1.000000
0.923880 0.382683 -1.000000
0.748325 0.500014 -1.000000
0.923880 0.382683 1.000000
0.831494 0.344416 1.000000
0.882708 0.175583 -1.000000
0.831494 0.344416 -1.000000
0.882708 0.175583 1.000000
0.980785 0.195090 1.000000
0.980785 0.195090 -1.000000
0.925907 0.067153 -1.000000
0.925907 0.067153 1.000000
1.000000 0.000000 1.000000
-0.980785 0.195091 -1.000000
-0.925907 0.067154 -1.000000
-1.000000 0.000001 -1.000000
-0.980785 0.195091 1.000000
-0.925907 0.067154 1.000000
-0.882708 0.175584 1.000000
-0.923879 0.382684 -1.000000
-0.882708 0.175584 -1.000000
-0.923879 0.382684 1.000000
-0.831493 0.344417 1.000000
-0.831469 0.555571 -1.000000
-0.831493 0.344417 -1.000000
-0.831469 0.555571 1.000000
-0.748324 0.500015 1.000000
-0.636398 0.636399 -1.000000
-0.748324 0.500015 -1.000000
-0.636398 0.636399 1.000000
-0.707106 0.707108 1.000000
-0.555569 0.831470 -1.000000
-0.707106 0.707108 -1.000000
-0.555569 0.831470 1.000000
-0.500013 0.748326 1.000000
-0.382682 0.923880 -1.000000
-0.500013 0.748326 -1.000000
-0.382682 0.923880 1.000000
-0.344415 0.831494 1.000000
-0.175581 0.882708 -1.000000
-0.344415 0.831494 -1.000000
-0.175581 0.882708 1.000000
-0.195089 0.980786 1.000000
-0.195089 0.980786 -1.000000
0.000000 1.000000 1.000000
-1.000000 0.000001 1.000000
1.000000 0.000000 -1.000000
0.195090 0.980785 1.000000
0.382683 0.923880 1.000000
0.555570 0.831470 1.000000
0.707107 0.707107 1.000000
0.831470 0.555570 1.000000
0.923880 0.382683 1.000000
0.980785 0.195090 1.000000
1.000000 0.000000 1.000000
-0.980785 0.195091 1.000000
-0.923879 0.382684 1.000000
-0.831469 0.555571 1.000000
-0.707106 0.707108 1.000000
-0.555569 0.831470 1.000000
-0.382682 0.923880 1.000000
-0.195089 0.980786 1.000000
0.000000 1.000000 1.000000
-1.000000 0.000001 1.000000
0.175583 0.882708 1.000000
0.344416 0.831494 1.000000
0.500014 0.748325 1.000000
0.636398 0.636398 1.000000
0.748325 0.500014 1.000000
0.831494 0.344416 1.000000
0.882708 0.175583 1.000000
0.925907 0.067153 1.000000
-0.882708 0.175584 1.000000
-0.831493 0.344417 1.000000
-0.748324 0.500015 1.000000
-0.636398 0.636399 1.000000
-0.500013 0.748326 1.000000
-0.344415 0.831494 1.000000
-0.175581 0.882708 1.000000
0.000000 0.900000 1.000000
-0.925907 0.067154 1.000000
3 0 1 2
3 3 4 5
3 6 7 8
3 9 10 11
3 12 13 14
3 15 16 17
3 18 19 20
3 21 22 23
3 24 25 26
3 27 28 29
3 30 31 32
3 33 34 35
3 36 37 38
3 39 40 41
3 42 43 44
3 45 46 47
3 48 49 50
3 51 52 53
3 54 55 56
3 57 58 59
3 60 61 62
3 63 64 65
3 66 67 68
3 69 70 71
3 72 73 74
3 75 76 77
3 78 79 80
3 81 82 83
3 84 85 86
3 87 88 89
3 90 91 92
3 93 94 95
3 96 97 98
3 99 100 101
3 102 103 104
3 105 106 107
3 108 109 102
3 110 107 111
3 108 112 113
3 110 114 115
3 116 117 112
3 115 118 119
3 120 117 121
3 122 118 123
3 124 125 120
3 126 123 127
3 124 128 129
3 126 130 131
3 132 133 128
3 131 134 135
3 136 137 138
3 139 140 141
3 142 143 136
3 144 141 145
3 146 147 142
3 148 145 149
3 146 150 151
3 148 152 153
3 154 150 155
3 156 152 157
3 158 159 154
3 160 157 161
3 158 162 163
3 160 164 165
3 166 103 162
3 165 106 167
3 168 134 140
3 138 133 169
3 0 170 1
3 3 171 4
3 6 172 7
3 9 173 10
3 12 174 13
3 15 175 16
3 18 176 19
3 21 177 22
3 24 178 25
3 27 179 28
3 30 180 31
3 33 181 34
3 36 182 37
3 39 183 40
3 42 184 43
3 45 185 46
3 48 186 49
3 51 187 52
3 54 188 55
3 57 189 58
3 60 190 61
3 63 191 64
3 66 192 67
3 69 193 70
3 72 194 73
3 75 195 76
3 78 196 79
3 81 197 82
3 84 198 85
3 87 199 88
3 90 200 91
3 93 201 94
3 96 202 97
3 99 203 100
3 102 109 103
3 105 167 106
3 108 113 109
3 110 105 107
3 108 116 112
3 110 111 114
3 116 121 117
3 115 114 118
3 120 125 117
3 122 119 118
3 124 129 125
3 126 122 123
3 124 132 128
3 126 127 130
3 132 169 133
3 131 130 134
3 136 143 137
3 139 168 140
3 142 147 143
3 144 139 141
3 146 151 147
3 148 144 145
3 146 155 150
3 148 149 152
3 154 159 150
3 156 153 152
3 158 163 159
3 160 156 157
3 158 166 162
3 160 161 164
3 166 104 103
3 165 164 106
3 168 135 134
3 138 137 133
