ply
format ascii 1.0
comment Created by Blender 2.78 (sub 0) - www.blender.org, source file: ''
element vertex 68
property float x
property float y
property float z
element face 132
property list uchar uint vertex_indices
end_header
0.000000 1.000000 1.000000
0.195090 0.980785 -1.000000
0.000000 1.000000 -1.000000
0.195090 0.980785 1.000000
0.382683 0.923880 -1.000000
0.382683 0.923880 1.000000
0.555570 0.831470 -1.000000
0.555570 0.831470 1.000000
0.707107 0.707107 -1.000000
0.707107 0.707107 1.000000
0.831470 0.555570 -1.000000
0.831470 0.555570 1.000000
0.923880 0.382683 -1.000000
0.923880 0.382683 1.000000
0.980785 0.195090 -1.000000
0.980785 0.195090 1.000000
1.000000 0.000000 -1.000000
-1.000000 0.000001 1.000000
-0.980785 0.195091 -1.000000
-1.000000 0.000001 -1.000000
-0.980785 0.195091 1.000000
-0.923879 0.382684 -1.000000
-0.923879 0.382684 1.000000
-0.831469 0.555571 -1.000000
-0.831469 0.555571 1.000000
-0.707106 0.707108 -1.000000
-0.707106 0.707108 1.000000
-0.555569 0.831470 -1.000000
-0.555569 0.831470 1.000000
-0.382682 0.923880 -1.000000
-0.382682 0.923880 1.000000
-0.195089 0.980786 -1.000000
-0.195089 0.980786 1.000000
0.180890 0.909396 -0.931431
0.000000 0.927213 0.931431
0.000000 0.927213 -0.931431
0.354829 0.856632 -0.931431
0.180890 0.909396 0.931431
0.515133 0.770948 -0.931431
0.354829 0.856632 0.931431
0.655640 0.655640 -0.931431
0.515133 0.770948 0.931431
0.770948 0.515133 -0.931431
0.655640 0.655640 0.931431
0.856632 0.354829 -0.931431
0.770948 0.515133 0.931431
0.909396 0.180890 -0.931431
0.856632 0.354829 0.931431
0.927400 -0.007150 -0.931608
0.909396 0.180890 0.931431
-0.909396 0.180891 -0.931431
-0.927400 -0.007150 0.931608
-0.927400 -0.007150 -0.931608
-0.856632 0.354830 -0.931431
-0.909396 0.180891 0.931431
-0.770948 0.515134 -0.931431
-0.856632 0.354830 0.931431
-0.655639 0.655638 -0.931431
-0.770948 0.515134 0.931431
-0.515132 0.770949 -0.931431
-0.655639 0.655638 0.931431
-0.354828 0.856633 -0.931431
-0.515132 0.770949 0.931431
-0.180889 0.909397 -0.931431
-0.354828 0.856633 0.931431
-0.180889 0.909397 0.931431
1.000000 0.000000 1.000000
0.927400 -0.007150 0.931608
3 0 1 2
3 3 4 1
3 5 6 4
3 7 8 6
3 9 10 8
3 11 12 10
3 13 14 12
3 15 16 14
3 17 18 19
3 20 21 18
3 22 23 21
3 24 25 23
3 26 27 25
3 28 29 27
3 0 17 11
3 30 31 29
3 32 2 31
3 1 19 25
3 33 34 35
3 36 37 33
3 38 39 36
3 40 41 38
3 42 43 40
3 44 45 42
3 46 47 44
3 48 49 46
3 50 51 52
3 53 54 50
3 55 56 53
3 57 58 55
3 59 60 57
3 61 62 59
3 39 54 62
3 63 64 61
3 35 65 63
3 63 44 36
3 66 48 16
3 17 67 66
3 16 52 19
3 17 52 51
3 0 3 1
3 3 5 4
3 5 7 6
3 7 9 8
3 9 11 10
3 11 13 12
3 13 15 14
3 15 66 16
3 17 20 18
3 20 22 21
3 22 24 23
3 24 26 25
3 26 28 27
3 28 30 29
3 5 3 7
3 0 32 26
3 30 28 26
3 26 24 22
3 22 20 17
3 17 66 15
3 15 13 11
3 11 9 7
3 7 3 0
3 32 30 26
3 26 22 17
3 17 15 11
3 11 7 0
3 0 26 17
3 30 32 31
3 32 0 2
3 31 2 1
3 1 4 6
3 6 8 1
3 10 12 14
3 14 16 19
3 19 18 21
3 21 23 25
3 25 27 29
3 29 31 25
3 1 8 10
3 10 14 1
3 19 21 25
3 25 31 1
3 1 14 19
3 33 37 34
3 36 39 37
3 38 41 39
3 40 43 41
3 42 45 43
3 44 47 45
3 46 49 47
3 48 67 49
3 50 54 51
3 53 56 54
3 55 58 56
3 57 60 58
3 59 62 60
3 61 64 62
3 34 37 65
3 39 41 47
3 43 45 47
3 47 49 54
3 67 51 54
3 54 56 62
3 58 60 62
3 62 64 39
3 65 37 39
3 41 43 47
3 49 67 54
3 56 58 62
3 64 65 39
3 39 47 54
3 63 65 64
3 35 34 65
3 33 35 63
3 63 61 55
3 59 57 55
3 55 53 50
3 50 52 48
3 48 46 50
3 44 42 40
3 40 38 36
3 36 33 63
3 61 59 55
3 55 50 46
3 46 44 63
3 40 36 44
3 63 55 46
3 66 67 48
3 17 51 67
3 16 48 52
3 17 19 52
