ply
format ascii 1.0
comment Created by Blender 2.78 (sub 0) - www.blender.org, source file: ''
element vertex 34
property float x
property float y
property float z
element face 64
property list uchar uint vertex_indices
end_header
-0.000000 -1.000000 1.000000
-0.195091 -0.980785 -1.000000
-0.000000 -1.000000 -1.000000
-0.195091 -0.980785 1.000000
-0.382684 -0.923879 -1.000000
-0.382684 -0.923879 1.000000
-0.555571 -0.831469 -1.000000
-0.555571 -0.831469 1.000000
-0.707107 -0.707106 -1.000000
-0.707107 -0.707106 1.000000
-0.831470 -0.555570 -1.000000
-0.831470 -0.555570 1.000000
-0.923880 -0.382683 -1.000000
-0.923880 -0.382683 1.000000
-0.980785 -0.195089 -1.000000
-0.980785 -0.195089 1.000000
-1.000000 0.000001 -1.000000
-1.000000 0.000001 1.000000
-0.980785 0.195091 -1.000000
-0.980785 0.195091 1.000000
-0.923879 0.382684 -1.000000
-0.923879 0.382684 1.000000
-0.831469 0.555571 -1.000000
-0.831469 0.555571 1.000000
-0.707106 0.707108 -1.000000
-0.707106 0.707108 1.000000
-0.555569 0.831470 -1.000000
-0.555569 0.831470 1.000000
-0.382682 0.923880 -1.000000
-0.382682 0.923880 1.000000
-0.195089 0.980786 -1.000000
-0.195089 0.980786 1.000000
0.000000 1.000000 -1.000000
0.000000 1.000000 1.000000
3 0 1 2
3 3 4 1
3 5 6 4
3 7 8 6
3 9 10 8
3 11 12 10
3 13 14 12
3 15 16 14
3 17 18 16
3 19 20 18
3 21 22 20
3 23 24 22
3 25 26 24
3 27 28 26
3 29 30 28
3 31 32 30
3 0 15 11
3 1 18 30
3 33 2 32
3 0 3 1
3 3 5 4
3 5 7 6
3 7 9 8
3 9 11 10
3 11 13 12
3 13 15 14
3 15 17 16
3 17 19 18
3 19 21 20
3 21 23 22
3 23 25 24
3 25 27 26
3 27 29 28
3 29 31 30
3 31 33 32
3 5 3 0
3 0 33 31
3 31 29 27
3 27 25 19
3 23 21 19
3 19 17 15
3 15 13 11
3 11 9 7
3 7 5 11
3 0 31 27
3 25 23 19
3 19 15 0
3 11 5 0
3 0 27 19
3 32 2 1
3 1 4 10
3 6 8 10
3 10 12 14
3 14 16 18
3 18 20 22
3 22 24 18
3 26 28 30
3 30 32 1
3 4 6 10
3 10 14 1
3 18 24 26
3 26 30 18
3 1 14 18
3 33 0 2
