ply
format ascii 1.0
comment Created by Blender 2.78 (sub 0) - www.blender.org, source file: ''
element vertex 8
property float x
property float y
property float z
element face 12
property list uchar uint vertex_indices
end_header
0.000000 0.500000 1.000000
1.000000 -0.000000 -1.000000
0.000000 1.000000 -1.000000
0.500000 -0.000000 1.000000
-0.000000 -1.000000 -1.000000
-0.000000 -0.500000 1.000000
-0.500000 0.000000 1.000000
-1.000000 0.000000 -1.000000
3 0 1 2
3 3 4 1
3 0 5 3
3 4 6 7
3 7 0 2
3 1 7 2
3 0 3 1
3 3 5 4
3 0 6 5
3 4 5 6
3 7 6 0
3 1 4 7
