ply
format ascii 1.0
comment Created by Blender 2.78 (sub 0) - www.blender.org, source file: ''
element vertex 10
property float x
property float y
property float z
element face 16
property list uchar uint vertex_indices
end_header
0.000000 1.000000 -1.000000
0.000000 0.000000 1.000000
1.000000 -0.000000 -1.000000
-0.000000 -1.000000 -1.000000
-1.000000 0.000000 -1.000000
0.000000 0.910559 -1.044719
0.910559 -0.000000 -1.044719
0.000000 0.000000 0.900000
-0.000000 -0.910559 -1.044719
-0.910559 0.000000 -1.044719
3 0 1 2
3 2 1 3
3 3 1 4
3 4 1 0
3 5 6 7
3 6 8 7
3 8 9 7
3 9 5 7
3 2 5 0
3 3 6 2
3 4 8 3
3 0 9 4
3 2 6 5
3 3 8 6
3 4 9 8
3 0 5 9
