ply
format ascii 1.0
comment Created by Blender 2.78 (sub 0) - www.blender.org, source file: ''
element vertex 16
property float x
property float y
property float z
element face 28
property list uchar uint vertex_indices
end_header
0.000000 0.500000 1.000000
1.000000 -0.000000 -1.000000
0.000000 1.000000 -1.000000
0.500000 -0.000000 1.000000
-0.000000 -1.000000 -1.000000
-0.000000 -0.500000 1.000000
-0.500000 0.000000 1.000000
-1.000000 0.000000 -1.000000
0.000000 0.425565 0.933226
0.000000 0.902988 -1.024253
0.902988 -0.000000 -1.024253
0.425565 -0.000000 0.933226
-0.000000 -0.902988 -1.024253
-0.000000 -0.425565 0.933226
-0.902988 0.000000 -1.024253
-0.425565 0.000000 0.933226
3 0 1 2
3 3 4 1
3 0 5 3
3 4 6 7
3 7 0 2
3 0 3 1
3 3 5 4
3 0 6 5
3 4 5 6
3 7 6 0
3 8 9 10
3 11 10 12
3 8 11 13
3 12 14 15
3 14 9 8
3 8 10 11
3 11 12 13
3 8 13 15
3 12 15 13
3 14 8 15
3 1 9 2
3 4 10 1
3 7 12 4
3 2 14 7
3 1 10 9
3 4 12 10
3 7 14 12
3 2 9 14
