ply
format ascii 1.0
comment Created by Blender 2.78 (sub 0) - www.blender.org, source file: ''
element vertex 16
property float x
property float y
property float z
element face 32
property list uchar uint vertex_indices
end_header
0.000000 0.500000 1.000000
1.000000 -0.000000 -1.000000
0.000000 1.000000 -1.000000
0.500000 -0.000000 1.000000
-0.000000 -1.000000 -1.000000
-0.500000 0.000000 1.000000
-1.000000 0.000000 -1.000000
0.902988 -0.000000 -1.024253
0.000000 0.402988 0.975747
0.000000 0.902988 -1.024253
-0.000000 -0.902988 -1.024253
0.402988 -0.000000 0.975747
-0.902988 0.000000 -1.024253
-0.000000 -0.402988 0.975747
-0.402988 0.000000 0.975747
-0.000000 -0.500000 1.000000
3 0 1 2
3 3 4 1
3 4 5 6
3 6 0 2
3 7 8 9
3 10 11 7
3 12 13 10
3 9 14 12
3 1 9 2
3 0 11 3
3 4 7 1
3 3 13 15
3 6 10 4
3 15 14 5
3 2 12 6
3 5 8 0
3 0 3 1
3 3 15 4
3 4 15 5
3 6 5 0
3 7 11 8
3 10 13 11
3 12 14 13
3 9 8 14
3 1 7 9
3 0 8 11
3 4 10 7
3 3 11 13
3 6 12 10
3 15 13 14
3 2 9 12
3 5 14 8
