ply
format ascii 1.0
comment Created by Blender 2.78 (sub 0) - www.blender.org, source file: ''
element vertex 16
property float x
property float y
property float z
element face 28
property list uchar uint vertex_indices
end_header
0.000000 0.500000 1.000000
1.000000 -0.000000 -1.000000
0.000000 1.000000 -1.000000
0.500000 -0.000000 1.000000
-0.000000 -1.000000 -1.000000
-0.500000 0.000000 1.000000
-1.000000 0.000000 -1.000000
0.912622 -0.000000 -0.951369
0.000000 0.402988 0.975747
0.000000 0.912622 -0.951369
-0.000000 -0.912622 -0.951369
0.402988 -0.000000 0.975747
-0.402988 0.000000 0.975747
-0.000000 -0.402988 0.975747
-0.912622 0.000000 -0.951369
-0.000000 -0.500000 1.000000
3 0 1 2
3 3 4 1
3 4 5 6
3 6 0 2
3 1 6 2
3 7 8 9
3 10 11 7
3 10 12 13
3 9 12 14
3 14 7 9
3 0 11 3
3 3 13 15
3 15 12 5
3 5 8 0
3 0 3 1
3 3 15 4
3 4 15 5
3 6 5 0
3 1 4 6
3 7 11 8
3 10 13 11
3 10 14 12
3 9 8 12
3 14 10 7
3 0 8 11
3 3 11 13
3 15 13 12
3 5 12 8
