ply
format ascii 1.0
comment Created by Blender 2.78 (sub 0) - www.blender.org, source file: ''
element vertex 482
property float x
property float y
property float z
element face 960
property list uchar uint vertex_indices
end_header
0.000000 0.707106 -0.707107
0.108386 0.544895 -0.831470
0.000000 0.555570 -0.831470
0.000000 0.923879 0.382683
0.162212 0.815493 0.555570
0.180240 0.906127 0.382683
0.074658 0.375330 -0.923880
0.000000 0.382683 -0.923880
0.000000 0.980784 0.195090
0.191342 0.961940 0.195090
0.038060 0.191341 -0.980785
0.000000 0.195090 -0.980785
0.000000 0.999999 0.000000
0.195090 0.980785 0.000000
0.000000 0.195090 0.980785
-0.000000 -0.000001 1.000000
0.038060 0.191342 0.980785
0.000000 -0.000000 -1.000000
0.191342 0.961940 -0.195090
0.000000 0.980784 -0.195090
0.000000 0.382683 0.923880
0.074658 0.375330 0.923880
0.180240 0.906127 -0.382683
0.000000 0.923879 -0.382683
0.000000 0.555570 0.831470
0.108386 0.544895 0.831470
0.162212 0.815493 -0.555570
0.000000 0.831469 -0.555570
0.000000 0.707106 0.707107
0.137950 0.693520 0.707107
0.137950 0.693520 -0.707107
0.000000 0.831469 0.555570
0.270598 0.653281 0.707107
0.318190 0.768178 -0.555570
0.270598 0.653281 -0.707107
0.318190 0.768178 0.555570
0.212608 0.513280 -0.831470
0.353553 0.853553 0.382683
0.146447 0.353553 -0.923880
0.375330 0.906127 0.195090
0.074658 0.180240 -0.980785
0.382684 0.923879 0.000000
0.074658 0.180240 0.980785
0.375330 0.906127 -0.195090
0.146447 0.353553 0.923880
0.353554 0.853553 -0.382683
0.212608 0.513280 0.831470
0.555570 0.831469 0.000000
0.108387 0.162212 0.980785
0.108386 0.162211 -0.980785
0.544895 0.815493 -0.195090
0.212608 0.318190 0.923880
0.513280 0.768178 -0.382683
0.308658 0.461940 0.831470
0.461940 0.691342 -0.555570
0.392848 0.587938 0.707107
0.392848 0.587938 -0.707107
0.461940 0.691342 0.555570
0.308658 0.461940 -0.831470
0.513280 0.768178 0.382683
0.212608 0.318189 -0.923880
0.544895 0.815493 0.195090
0.500000 0.500000 -0.707107
0.587938 0.587938 0.555570
0.392848 0.392847 -0.831470
0.653282 0.653281 0.382683
0.270598 0.270598 -0.923880
0.693520 0.693520 0.195090
0.137950 0.137949 -0.980785
0.707107 0.707107 0.000000
0.137950 0.137950 0.980785
0.693520 0.693520 -0.195090
0.270598 0.270598 0.923880
0.653282 0.653281 -0.382683
0.392848 0.392847 0.831470
0.587938 0.587938 -0.555570
0.500000 0.500000 0.707107
0.162212 0.108386 -0.980785
0.815493 0.544895 -0.195090
0.318190 0.212607 0.923880
0.768178 0.513280 -0.382683
0.461940 0.308658 0.831470
0.691342 0.461940 -0.555570
0.587938 0.392847 0.707107
0.587938 0.392847 -0.707107
0.691342 0.461940 0.555570
0.461940 0.308658 -0.831470
0.768178 0.513280 0.382683
0.318190 0.212607 -0.923880
0.815493 0.544895 0.195090
0.831470 0.555570 0.000000
0.162212 0.108386 0.980785
0.513280 0.212607 -0.831470
0.853554 0.353553 0.382683
0.353554 0.146446 -0.923880
0.906128 0.375330 0.195090
0.180240 0.074658 -0.980785
0.923880 0.382683 0.000000
0.180240 0.074658 0.980785
0.906128 0.375330 -0.195090
0.353554 0.146446 0.923880
0.853554 0.353553 -0.382683
0.513280 0.212607 0.831470
0.768178 0.318189 -0.555570
0.653282 0.270598 0.707107
0.653282 0.270598 -0.707107
0.768178 0.318189 0.555570
0.375331 0.074658 0.923880
0.906128 0.180240 -0.382683
0.544895 0.108386 0.831470
0.815493 0.162211 -0.555570
0.693520 0.137949 0.707107
0.693520 0.137949 -0.707107
0.815493 0.162211 0.555570
0.544895 0.108386 -0.831470
0.906128 0.180240 0.382683
0.375330 0.074658 -0.923880
0.961940 0.191341 0.195090
0.191342 0.038060 -0.980785
0.980785 0.195090 0.000000
0.191342 0.038060 0.980785
0.961940 0.191341 -0.195090
0.923880 -0.000000 0.382683
0.555570 -0.000000 -0.831470
0.382684 -0.000000 -0.923880
0.980785 -0.000000 0.195090
0.195090 -0.000000 -0.980785
1.000000 -0.000000 0.000000
0.195091 -0.000000 0.980785
0.980785 -0.000000 -0.195090
0.382684 -0.000000 0.923880
0.923880 -0.000000 -0.382683
0.555570 -0.000000 0.831470
0.831470 -0.000000 -0.555570
0.707107 -0.000000 0.707107
0.707107 -0.000000 -0.707107
0.831470 -0.000000 0.555570
0.906128 -0.180240 -0.382683
0.544895 -0.108387 0.831470
0.815493 -0.162212 -0.555570
0.693520 -0.137950 0.707107
0.693520 -0.137950 -0.707107
0.815493 -0.162212 0.555570
0.544895 -0.108387 -0.831470
0.906128 -0.180240 0.382683
0.375330 -0.074658 -0.923880
0.961940 -0.191342 0.195090
0.191342 -0.038061 -0.980785
0.980785 -0.195091 0.000000
0.191342 -0.038061 0.980785
0.961940 -0.191342 -0.195090
0.375331 -0.074658 0.923880
0.513280 -0.212608 -0.831470
0.353553 -0.146447 -0.923880
0.853554 -0.353554 0.382683
0.906127 -0.375331 0.195090
0.180240 -0.074658 -0.980785
0.923880 -0.382684 0.000000
0.180240 -0.074658 0.980785
0.906127 -0.375331 -0.195090
0.353554 -0.146447 0.923880
0.853554 -0.353554 -0.382683
0.513280 -0.212608 0.831470
0.768178 -0.318190 -0.555570
0.653282 -0.270598 0.707107
0.653282 -0.270598 -0.707107
0.768178 -0.318190 0.555570
0.461940 -0.308659 0.831470
0.768178 -0.513280 -0.382683
0.691342 -0.461940 -0.555570
0.587938 -0.392848 0.707107
0.587938 -0.392848 -0.707107
0.691342 -0.461940 0.555570
0.461940 -0.308659 -0.831470
0.768178 -0.513280 0.382683
0.318190 -0.212608 -0.923880
0.815493 -0.544895 0.195090
0.162212 -0.108387 -0.980785
0.831470 -0.555571 0.000000
0.162212 -0.108387 0.980785
0.815493 -0.544895 -0.195090
0.318190 -0.212608 0.923880
0.653282 -0.653282 0.382683
0.693520 -0.693520 0.195090
0.270598 -0.270598 -0.923880
0.137950 -0.137950 -0.980785
0.707107 -0.707107 0.000000
0.137950 -0.137950 0.980785
0.693520 -0.693520 -0.195090
0.270598 -0.270599 0.923880
0.653282 -0.653282 -0.382683
0.392848 -0.392848 0.831470
0.587938 -0.587938 -0.555570
0.500000 -0.500000 0.707107
0.500000 -0.500000 -0.707107
0.587938 -0.587938 0.555570
0.392848 -0.392848 -0.831470
0.513280 -0.768178 -0.382683
0.461940 -0.691342 -0.555570
0.308658 -0.461940 0.831470
0.392848 -0.587938 0.707107
0.392848 -0.587938 -0.707107
0.461940 -0.691342 0.555570
0.308658 -0.461940 -0.831470
0.513280 -0.768178 0.382683
0.212608 -0.318190 -0.923880
0.544895 -0.815493 0.195090
0.108386 -0.162212 -0.980785
0.555570 -0.831470 0.000000
0.108386 -0.162212 0.980785
0.544895 -0.815493 -0.195090
0.212608 -0.318190 0.923880
0.074658 -0.180240 -0.980785
0.382683 -0.923880 0.000000
0.074658 -0.180240 0.980785
0.375330 -0.906128 -0.195090
0.146447 -0.353554 0.923880
0.353553 -0.853554 -0.382683
0.212608 -0.513280 0.831470
0.318190 -0.768178 -0.555570
0.270598 -0.653282 0.707107
0.270598 -0.653282 -0.707107
0.318190 -0.768178 0.555570
0.212608 -0.513280 -0.831470
0.353553 -0.853554 0.382683
0.146447 -0.353554 -0.923880
0.375330 -0.906128 0.195090
0.137950 -0.693520 -0.707107
0.162212 -0.815493 0.555570
0.108386 -0.544895 -0.831470
0.180240 -0.906128 0.382683
0.074658 -0.375331 -0.923880
0.191342 -0.961940 0.195090
0.038060 -0.191342 -0.980785
0.195090 -0.980786 0.000000
0.038060 -0.191342 0.980785
0.191342 -0.961940 -0.195090
0.074658 -0.375331 0.923880
0.180240 -0.906128 -0.382683
0.108386 -0.544896 0.831470
0.162212 -0.815493 -0.555570
0.137950 -0.693520 0.707107
-0.000000 -0.195091 0.980785
0.000000 -0.195091 -0.980785
-0.000000 -0.980785 -0.195090
0.000000 -0.382684 0.923880
0.000000 -0.923880 -0.382683
0.000000 -0.555571 0.831470
-0.000000 -0.831470 -0.555570
-0.000000 -0.707107 0.707107
-0.000000 -0.707107 -0.707107
-0.000000 -0.831470 0.555570
-0.000000 -0.555570 -0.831470
0.000000 -0.923880 0.382683
0.000000 -0.382684 -0.923880
-0.000000 -0.980785 0.195090
-0.000000 -1.000000 0.000000
-0.137950 -0.693520 0.707107
-0.162212 -0.815493 0.555570
-0.108386 -0.544895 -0.831470
-0.180240 -0.906128 0.382683
-0.074658 -0.375331 -0.923880
-0.191342 -0.961940 0.195090
-0.038060 -0.191342 -0.980785
-0.195090 -0.980786 0.000000
-0.038060 -0.191342 0.980785
-0.191342 -0.961940 -0.195090
-0.074658 -0.375331 0.923880
-0.180240 -0.906128 -0.382683
-0.108386 -0.544896 0.831470
-0.162212 -0.815493 -0.555570
-0.137950 -0.693520 -0.707107
-0.382684 -0.923880 0.000000
-0.375330 -0.906127 -0.195090
-0.146447 -0.353554 0.923880
-0.353553 -0.853554 -0.382683
-0.212608 -0.513280 0.831470
-0.318190 -0.768178 -0.555570
-0.270598 -0.653282 0.707107
-0.270598 -0.653282 -0.707107
-0.318190 -0.768178 0.555570
-0.212608 -0.513280 -0.831470
-0.353553 -0.853554 0.382683
-0.146447 -0.353554 -0.923880
-0.375330 -0.906127 0.195090
-0.074658 -0.180240 -0.980785
-0.074658 -0.180240 0.980785
-0.392847 -0.587938 -0.707107
-0.308658 -0.461940 -0.831470
-0.513280 -0.768178 0.382683
-0.212607 -0.318190 -0.923880
-0.544895 -0.815493 0.195090
-0.108386 -0.162212 -0.980785
-0.555570 -0.831470 0.000000
-0.108386 -0.162212 0.980785
-0.544895 -0.815493 -0.195090
-0.212608 -0.318190 0.923880
-0.513280 -0.768178 -0.382683
-0.308658 -0.461940 0.831470
-0.461940 -0.691342 -0.555570
-0.392847 -0.587938 0.707107
-0.461940 -0.691342 0.555570
-0.270598 -0.270598 0.923880
-0.653281 -0.653282 -0.382683
-0.392848 -0.392848 0.831470
-0.587938 -0.587938 -0.555570
-0.500000 -0.500000 0.707107
-0.500000 -0.500000 -0.707107
-0.587938 -0.587938 0.555570
-0.392847 -0.392848 -0.831470
-0.653281 -0.653282 0.382683
-0.270598 -0.270598 -0.923880
-0.693520 -0.693520 0.195090
-0.137950 -0.137950 -0.980785
-0.707107 -0.707107 0.000000
-0.137950 -0.137950 0.980785
-0.693520 -0.693520 -0.195090
-0.768178 -0.513280 0.382683
-0.461940 -0.308658 -0.831470
-0.318190 -0.212608 -0.923880
-0.815493 -0.544895 0.195090
-0.162212 -0.108387 -0.980785
-0.831470 -0.555570 0.000000
-0.162212 -0.108387 0.980785
-0.815493 -0.544895 -0.195090
-0.318190 -0.212608 0.923880
-0.768178 -0.513280 -0.382683
-0.461940 -0.308659 0.831470
-0.691342 -0.461940 -0.555570
-0.587938 -0.392848 0.707107
-0.587938 -0.392848 -0.707107
-0.691342 -0.461940 0.555570
-0.853553 -0.353554 -0.382683
-0.513280 -0.212608 0.831470
-0.768177 -0.318190 -0.555570
-0.653281 -0.270598 0.707107
-0.653281 -0.270598 -0.707107
-0.768177 -0.318190 0.555570
-0.513280 -0.212608 -0.831470
-0.853553 -0.353554 0.382683
-0.353553 -0.146447 -0.923880
-0.906127 -0.375330 0.195090
-0.180240 -0.074658 -0.980785
-0.923880 -0.382684 0.000000
-0.180240 -0.074658 0.980785
-0.906127 -0.375330 -0.195090
-0.353553 -0.146447 0.923880
-0.544895 -0.108387 -0.831470
-0.375330 -0.074658 -0.923880
-0.906127 -0.180240 0.382683
-0.961939 -0.191342 0.195090
-0.191342 -0.038061 -0.980785
-0.980785 -0.195090 0.000000
-0.191342 -0.038061 0.980785
-0.961939 -0.191342 -0.195090
-0.375330 -0.074658 0.923880
-0.906127 -0.180240 -0.382683
-0.544895 -0.108387 0.831470
-0.815493 -0.162212 -0.555570
-0.693520 -0.137950 0.707107
-0.693520 -0.137950 -0.707107
-0.815493 -0.162212 0.555570
-0.923879 -0.000000 -0.382683
-0.831469 -0.000000 -0.555570
-0.555570 -0.000000 0.831470
-0.707107 -0.000000 0.707107
-0.707107 -0.000000 -0.707107
-0.831469 -0.000000 0.555570
-0.555570 -0.000000 -0.831470
-0.923879 -0.000000 0.382683
-0.382683 -0.000000 -0.923880
-0.980785 -0.000000 0.195090
-0.195090 -0.000000 -0.980785
-1.000000 -0.000000 0.000000
-0.195090 -0.000000 0.980785
-0.980785 -0.000000 -0.195090
-0.382683 -0.000000 0.923880
-0.191342 0.038060 -0.980785
-0.980785 0.195090 0.000000
-0.191342 0.038060 0.980785
-0.961939 0.191342 -0.195090
-0.375330 0.074658 0.923880
-0.906127 0.180240 -0.382683
-0.544895 0.108386 0.831470
-0.815493 0.162211 -0.555570
-0.693520 0.137949 0.707107
-0.693520 0.137949 -0.707107
-0.815493 0.162211 0.555570
-0.544895 0.108386 -0.831470
-0.906127 0.180240 0.382683
-0.375330 0.074658 -0.923880
-0.961939 0.191342 0.195090
-0.513280 0.212607 0.831470
-0.653281 0.270598 0.707107
-0.653281 0.270598 -0.707107
-0.768177 0.318189 0.555570
-0.513280 0.212607 -0.831470
-0.853553 0.353553 0.382683
-0.353553 0.146446 -0.923880
-0.906127 0.375330 0.195090
-0.180240 0.074657 -0.980785
-0.923879 0.382683 0.000000
-0.180240 0.074658 0.980785
-0.906127 0.375330 -0.195090
-0.353553 0.146446 0.923880
-0.853553 0.353553 -0.382683
-0.768177 0.318189 -0.555570
-0.831469 0.555570 0.000000
-0.162212 0.108386 0.980785
-0.162212 0.108386 -0.980785
-0.815493 0.544895 -0.195090
-0.318190 0.212607 0.923880
-0.768178 0.513280 -0.382683
-0.461940 0.308658 0.831470
-0.691341 0.461939 -0.555570
-0.587938 0.392847 0.707107
-0.587938 0.392847 -0.707107
-0.691341 0.461939 0.555570
-0.461940 0.308658 -0.831470
-0.768178 0.513280 0.382683
-0.318189 0.212607 -0.923880
-0.815493 0.544895 0.195090
-0.500000 0.500000 -0.707107
-0.500000 0.500000 0.707107
-0.587937 0.587937 0.555570
-0.392847 0.392847 -0.831470
-0.653281 0.653281 0.382683
-0.270598 0.270598 -0.923880
-0.693519 0.693519 0.195090
-0.137950 0.137949 -0.980785
-0.707106 0.707106 0.000000
-0.137950 0.137949 0.980785
-0.693519 0.693519 -0.195090
-0.270598 0.270598 0.923880
-0.653281 0.653281 -0.382683
-0.392847 0.392847 0.831470
-0.587937 0.587937 -0.555570
-0.108386 0.162211 0.980785
-0.108386 0.162211 -0.980785
-0.544895 0.815492 -0.195090
-0.212607 0.318189 0.923880
-0.513280 0.768177 -0.382683
-0.308658 0.461939 0.831470
-0.461939 0.691341 -0.555570
-0.392847 0.587937 0.707107
-0.392847 0.587937 -0.707107
-0.461939 0.691341 0.555570
-0.308658 0.461939 -0.831470
-0.513280 0.768177 0.382683
-0.212607 0.318189 -0.923880
-0.544895 0.815492 0.195090
-0.555570 0.831469 0.000000
-0.270598 0.653281 0.707107
-0.318189 0.768177 0.555570
-0.212607 0.513279 -0.831470
-0.353553 0.853553 0.382683
-0.146446 0.353553 -0.923880
-0.375330 0.906127 0.195090
-0.074658 0.180240 -0.980785
-0.382683 0.923879 0.000000
-0.074658 0.180240 0.980785
-0.375330 0.906127 -0.195090
-0.146447 0.353553 0.923880
-0.353553 0.853553 -0.382683
-0.212607 0.513280 0.831470
-0.318189 0.768177 -0.555570
-0.270598 0.653281 -0.707107
-0.191341 0.961939 -0.195090
-0.074658 0.375330 0.923880
-0.180240 0.906127 -0.382683
-0.108386 0.544895 0.831470
-0.162211 0.815492 -0.555570
-0.137950 0.693520 0.707107
-0.137950 0.693520 -0.707107
-0.162211 0.815492 0.555570
-0.108386 0.544895 -0.831470
-0.180240 0.906127 0.382683
-0.074658 0.375330 -0.923880
-0.191341 0.961939 0.195090
-0.038060 0.191341 -0.980785
-0.195090 0.980785 0.000000
-0.038060 0.191342 0.980785
3 0 1 2
3 3 4 5
3 2 6 7
3 8 5 9
3 7 10 11
3 12 9 13
3 14 15 16
3 17 11 10
3 12 18 19
3 20 16 21
3 19 22 23
3 24 21 25
3 23 26 27
3 28 25 29
3 27 30 0
3 31 29 4
3 25 32 29
3 30 33 34
3 29 35 4
3 30 36 1
3 4 37 5
3 1 38 6
3 5 39 9
3 6 40 10
3 9 41 13
3 16 15 42
3 17 10 40
3 18 41 43
3 16 44 21
3 22 43 45
3 21 46 25
3 22 33 26
3 39 47 41
3 42 15 48
3 17 40 49
3 41 50 43
3 42 51 44
3 43 52 45
3 44 53 46
3 33 52 54
3 46 55 32
3 34 54 56
3 32 57 35
3 34 58 36
3 35 59 37
3 36 60 38
3 39 59 61
3 38 49 40
3 54 62 56
3 55 63 57
3 56 64 58
3 57 65 59
3 58 66 60
3 59 67 61
3 60 68 49
3 47 67 69
3 48 15 70
3 17 49 68
3 47 71 50
3 48 72 51
3 50 73 52
3 51 74 53
3 54 73 75
3 53 76 55
3 17 68 77
3 69 78 71
3 70 79 72
3 71 80 73
3 72 81 74
3 75 80 82
3 74 83 76
3 75 84 62
3 63 83 85
3 64 84 86
3 63 87 65
3 66 86 88
3 65 89 67
3 66 77 68
3 69 89 90
3 70 15 91
3 84 92 86
3 85 93 87
3 88 92 94
3 89 93 95
3 88 96 77
3 89 97 90
3 91 15 98
3 17 77 96
3 90 99 78
3 91 100 79
3 78 101 80
3 79 102 81
3 82 101 103
3 81 104 83
3 84 103 105
3 85 104 106
3 98 107 100
3 99 108 101
3 100 109 102
3 103 108 110
3 104 109 111
3 105 110 112
3 104 113 106
3 105 114 92
3 106 115 93
3 92 116 94
3 95 115 117
3 96 116 118
3 95 119 97
3 98 15 120
3 17 96 118
3 97 121 99
3 113 122 115
3 116 123 124
3 117 122 125
3 118 124 126
3 117 127 119
3 120 15 128
3 17 118 126
3 121 127 129
3 120 130 107
3 121 131 108
3 107 132 109
3 110 131 133
3 109 134 111
3 110 135 112
3 111 136 113
3 114 135 123
3 129 137 131
3 130 138 132
3 133 137 139
3 132 140 134
3 133 141 135
3 136 140 142
3 123 141 143
3 136 144 122
3 123 145 124
3 125 144 146
3 126 145 147
3 125 148 127
3 128 15 149
3 17 126 147
3 127 150 129
3 130 149 151
3 145 152 153
3 146 154 155
3 145 156 147
3 146 157 148
3 149 15 158
3 17 147 156
3 148 159 150
3 149 160 151
3 150 161 137
3 138 160 162
3 139 161 163
3 138 164 140
3 139 165 141
3 140 166 142
3 141 152 143
3 142 154 144
3 160 167 162
3 163 168 169
3 162 170 164
3 163 171 165
3 166 170 172
3 152 171 173
3 166 174 154
3 152 175 153
3 155 174 176
3 153 177 156
3 155 178 157
3 158 15 179
3 17 156 177
3 159 178 180
3 158 181 160
3 159 168 161
3 176 182 183
3 177 184 185
3 176 186 178
3 179 15 187
3 17 177 185
3 178 188 180
3 179 189 181
3 180 190 168
3 181 191 167
3 168 192 169
3 167 193 170
3 169 194 171
3 170 195 172
3 173 194 196
3 172 182 174
3 173 184 175
3 192 197 198
3 193 199 200
3 192 201 194
3 195 200 202
3 196 201 203
3 195 204 182
3 196 205 184
3 183 204 206
3 185 205 207
3 183 208 186
3 187 15 209
3 17 185 207
3 188 208 210
3 187 211 189
3 188 197 190
3 189 199 191
3 205 212 207
3 206 213 208
3 209 15 214
3 17 207 212
3 208 215 210
3 209 216 211
3 210 217 197
3 199 216 218
3 198 217 219
3 199 220 200
3 198 221 201
3 200 222 202
3 203 221 223
3 202 224 204
3 203 225 205
3 206 224 226
3 219 227 221
3 220 228 222
3 221 229 223
3 222 230 224
3 223 231 225
3 226 230 232
3 212 231 233
3 226 234 213
3 214 15 235
3 17 212 233
3 213 236 215
3 214 237 216
3 215 238 217
3 216 239 218
3 219 238 240
3 218 241 220
3 235 15 242
3 17 233 243
3 234 244 236
3 235 245 237
3 236 246 238
3 239 245 247
3 240 246 248
3 241 247 249
3 240 250 227
3 241 251 228
3 229 250 252
3 228 253 230
3 229 254 231
3 232 253 255
3 233 254 243
3 232 256 234
3 251 257 258
3 250 259 252
3 251 260 253
3 252 261 254
3 255 260 262
3 254 263 243
3 255 264 256
3 242 15 265
3 17 243 263
3 256 266 244
3 242 267 245
3 244 268 246
3 245 269 247
3 248 268 270
3 249 269 257
3 248 271 250
3 266 272 273
3 265 274 267
3 266 275 268
3 267 276 269
3 270 275 277
3 257 276 278
3 270 279 271
3 258 278 280
3 271 281 259
3 258 282 260
3 261 281 283
3 262 282 284
3 263 283 285
3 262 272 264
3 265 15 286
3 17 263 285
3 281 287 288
3 280 289 282
3 281 290 283
3 284 289 291
3 285 290 292
3 284 293 272
3 286 15 294
3 17 285 292
3 272 295 273
3 286 296 274
3 273 297 275
3 274 298 276
3 277 297 299
3 276 300 278
3 277 287 279
3 280 300 301
3 294 302 296
3 295 303 297
3 296 304 298
3 299 303 305
3 300 304 306
3 299 307 287
3 301 306 308
3 287 309 288
3 301 310 289
3 288 311 290
3 291 310 312
3 290 313 292
3 293 312 314
3 294 15 315
3 17 292 313
3 293 316 295
3 308 317 310
3 311 318 319
3 312 317 320
3 311 321 313
3 312 322 314
3 315 15 323
3 17 313 321
3 314 324 316
3 315 325 302
3 316 326 303
3 302 327 304
3 305 326 328
3 306 327 329
3 305 330 307
3 308 329 331
3 307 318 309
3 324 332 326
3 325 333 327
3 328 332 334
3 329 333 335
3 330 334 336
3 331 335 337
3 330 338 318
3 331 339 317
3 319 338 340
3 320 339 341
3 321 340 342
3 320 343 322
3 323 15 344
3 17 321 342
3 322 345 324
3 323 346 325
3 340 347 348
3 341 349 350
3 340 351 342
3 341 352 343
3 344 15 353
3 17 342 351
3 343 354 345
3 346 353 355
3 345 356 332
3 346 357 333
3 334 356 358
3 335 357 359
3 334 360 336
3 337 359 361
3 336 347 338
3 337 349 339
3 358 362 363
3 359 364 365
3 358 366 360
3 359 367 361
3 347 366 368
3 361 369 349
3 348 368 370
3 350 369 371
3 348 372 351
3 350 373 352
3 353 15 374
3 17 351 372
3 354 373 375
3 355 374 376
3 354 362 356
3 355 364 357
3 370 377 372
3 371 378 373
3 374 15 379
3 17 372 377
3 375 378 380
3 376 379 381
3 375 382 362
3 376 383 364
3 363 382 384
3 365 383 385
3 363 386 366
3 367 385 387
3 366 388 368
3 367 389 369
3 370 388 390
3 371 389 391
3 385 392 393
3 384 394 386
3 385 395 387
3 386 396 388
3 387 397 389
3 390 396 398
3 391 397 399
3 390 400 377
3 391 401 378
3 379 15 402
3 17 377 400
3 378 403 380
3 379 404 381
3 380 405 382
3 381 392 383
3 384 405 406
3 399 407 401
3 402 15 408
3 17 400 409
3 403 407 410
3 402 411 404
3 403 412 405
3 392 411 413
3 406 412 414
3 393 413 415
3 406 416 394
3 395 415 417
3 394 418 396
3 395 419 397
3 398 418 420
3 399 419 421
3 398 409 400
3 414 422 416
3 417 423 424
3 416 425 418
3 417 426 419
3 418 427 420
3 421 426 428
3 420 429 409
3 421 430 407
3 408 15 431
3 17 409 429
3 410 430 432
3 408 433 411
3 410 434 412
3 411 435 413
3 414 434 436
3 413 423 415
3 431 15 437
3 17 429 438
3 430 439 432
3 431 440 433
3 432 441 434
3 433 442 435
3 436 441 443
3 435 444 423
3 436 445 422
3 424 444 446
3 425 445 447
3 424 448 426
3 425 449 427
3 428 448 450
3 427 438 429
3 430 450 451
3 446 452 453
3 445 454 447
3 446 455 448
3 447 456 449
3 450 455 457
3 449 458 438
3 450 459 451
3 437 15 460
3 17 438 458
3 451 461 439
3 440 460 462
3 439 463 441
3 442 462 464
3 443 463 465
3 444 464 452
3 443 466 445
3 459 467 461
3 460 468 462
3 461 469 463
3 462 470 464
3 465 469 471
3 464 472 452
3 465 473 466
3 453 472 474
3 466 475 454
3 453 476 455
3 454 477 456
3 457 476 478
3 458 477 479
3 457 480 459
3 460 15 481
3 17 458 479
3 473 2 475
3 474 3 476
3 475 7 477
3 478 3 8
3 477 11 479
3 478 12 480
3 481 15 14
3 17 479 11
3 480 19 467
3 468 14 20
3 467 23 469
3 468 24 470
3 471 23 27
3 470 28 472
3 471 0 473
3 474 28 31
3 0 30 1
3 3 31 4
3 2 1 6
3 8 3 5
3 7 6 10
3 12 8 9
3 12 13 18
3 20 14 16
3 19 18 22
3 24 20 21
3 23 22 26
3 28 24 25
3 27 26 30
3 31 28 29
3 25 46 32
3 30 26 33
3 29 32 35
3 30 34 36
3 4 35 37
3 1 36 38
3 5 37 39
3 6 38 40
3 9 39 41
3 18 13 41
3 16 42 44
3 22 18 43
3 21 44 46
3 22 45 33
3 39 61 47
3 41 47 50
3 42 48 51
3 43 50 52
3 44 51 53
3 33 45 52
3 46 53 55
3 34 33 54
3 32 55 57
3 34 56 58
3 35 57 59
3 36 58 60
3 39 37 59
3 38 60 49
3 54 75 62
3 55 76 63
3 56 62 64
3 57 63 65
3 58 64 66
3 59 65 67
3 60 66 68
3 47 61 67
3 47 69 71
3 48 70 72
3 50 71 73
3 51 72 74
3 54 52 73
3 53 74 76
3 69 90 78
3 70 91 79
3 71 78 80
3 72 79 81
3 75 73 80
3 74 81 83
3 75 82 84
3 63 76 83
3 64 62 84
3 63 85 87
3 66 64 86
3 65 87 89
3 66 88 77
3 69 67 89
3 84 105 92
3 85 106 93
3 88 86 92
3 89 87 93
3 88 94 96
3 89 95 97
3 90 97 99
3 91 98 100
3 78 99 101
3 79 100 102
3 82 80 101
3 81 102 104
3 84 82 103
3 85 83 104
3 98 120 107
3 99 121 108
3 100 107 109
3 103 101 108
3 104 102 109
3 105 103 110
3 104 111 113
3 105 112 114
3 106 113 115
3 92 114 116
3 95 93 115
3 96 94 116
3 95 117 119
3 97 119 121
3 113 136 122
3 116 114 123
3 117 115 122
3 118 116 124
3 117 125 127
3 121 119 127
3 120 128 130
3 121 129 131
3 107 130 132
3 110 108 131
3 109 132 134
3 110 133 135
3 111 134 136
3 114 112 135
3 129 150 137
3 130 151 138
3 133 131 137
3 132 138 140
3 133 139 141
3 136 134 140
3 123 135 141
3 136 142 144
3 123 143 145
3 125 122 144
3 126 124 145
3 125 146 148
3 127 148 150
3 130 128 149
3 145 143 152
3 146 144 154
3 145 153 156
3 146 155 157
3 148 157 159
3 149 158 160
3 150 159 161
3 138 151 160
3 139 137 161
3 138 162 164
3 139 163 165
3 140 164 166
3 141 165 152
3 142 166 154
3 160 181 167
3 163 161 168
3 162 167 170
3 163 169 171
3 166 164 170
3 152 165 171
3 166 172 174
3 152 173 175
3 155 154 174
3 153 175 177
3 155 176 178
3 159 157 178
3 158 179 181
3 159 180 168
3 176 174 182
3 177 175 184
3 176 183 186
3 178 186 188
3 179 187 189
3 180 188 190
3 181 189 191
3 168 190 192
3 167 191 193
3 169 192 194
3 170 193 195
3 173 171 194
3 172 195 182
3 173 196 184
3 192 190 197
3 193 191 199
3 192 198 201
3 195 193 200
3 196 194 201
3 195 202 204
3 196 203 205
3 183 182 204
3 185 184 205
3 183 206 208
3 188 186 208
3 187 209 211
3 188 210 197
3 189 211 199
3 205 225 212
3 206 226 213
3 208 213 215
3 209 214 216
3 210 215 217
3 199 211 216
3 198 197 217
3 199 218 220
3 198 219 221
3 200 220 222
3 203 201 221
3 202 222 224
3 203 223 225
3 206 204 224
3 219 240 227
3 220 241 228
3 221 227 229
3 222 228 230
3 223 229 231
3 226 224 230
3 212 225 231
3 226 232 234
3 213 234 236
3 214 235 237
3 215 236 238
3 216 237 239
3 219 217 238
3 218 239 241
3 234 256 244
3 235 242 245
3 236 244 246
3 239 237 245
3 240 238 246
3 241 239 247
3 240 248 250
3 241 249 251
3 229 227 250
3 228 251 253
3 229 252 254
3 232 230 253
3 233 231 254
3 232 255 256
3 251 249 257
3 250 271 259
3 251 258 260
3 252 259 261
3 255 253 260
3 254 261 263
3 255 262 264
3 256 264 266
3 242 265 267
3 244 266 268
3 245 267 269
3 248 246 268
3 249 247 269
3 248 270 271
3 266 264 272
3 265 286 274
3 266 273 275
3 267 274 276
3 270 268 275
3 257 269 276
3 270 277 279
3 258 257 278
3 271 279 281
3 258 280 282
3 261 259 281
3 262 260 282
3 263 261 283
3 262 284 272
3 281 279 287
3 280 301 289
3 281 288 290
3 284 282 289
3 285 283 290
3 284 291 293
3 272 293 295
3 286 294 296
3 273 295 297
3 274 296 298
3 277 275 297
3 276 298 300
3 277 299 287
3 280 278 300
3 294 315 302
3 295 316 303
3 296 302 304
3 299 297 303
3 300 298 304
3 299 305 307
3 301 300 306
3 287 307 309
3 301 308 310
3 288 309 311
3 291 289 310
3 290 311 313
3 293 291 312
3 293 314 316
3 308 331 317
3 311 309 318
3 312 310 317
3 311 319 321
3 312 320 322
3 314 322 324
3 315 323 325
3 316 324 326
3 302 325 327
3 305 303 326
3 306 304 327
3 305 328 330
3 308 306 329
3 307 330 318
3 324 345 332
3 325 346 333
3 328 326 332
3 329 327 333
3 330 328 334
3 331 329 335
3 330 336 338
3 331 337 339
3 319 318 338
3 320 317 339
3 321 319 340
3 320 341 343
3 322 343 345
3 323 344 346
3 340 338 347
3 341 339 349
3 340 348 351
3 341 350 352
3 343 352 354
3 346 344 353
3 345 354 356
3 346 355 357
3 334 332 356
3 335 333 357
3 334 358 360
3 337 335 359
3 336 360 347
3 337 361 349
3 358 356 362
3 359 357 364
3 358 363 366
3 359 365 367
3 347 360 366
3 361 367 369
3 348 347 368
3 350 349 369
3 348 370 372
3 350 371 373
3 354 352 373
3 355 353 374
3 354 375 362
3 355 376 364
3 370 390 377
3 371 391 378
3 375 373 378
3 376 374 379
3 375 380 382
3 376 381 383
3 363 362 382
3 365 364 383
3 363 384 386
3 367 365 385
3 366 386 388
3 367 387 389
3 370 368 388
3 371 369 389
3 385 383 392
3 384 406 394
3 385 393 395
3 386 394 396
3 387 395 397
3 390 388 396
3 391 389 397
3 390 398 400
3 391 399 401
3 378 401 403
3 379 402 404
3 380 403 405
3 381 404 392
3 384 382 405
3 399 421 407
3 403 401 407
3 402 408 411
3 403 410 412
3 392 404 411
3 406 405 412
3 393 392 413
3 406 414 416
3 395 393 415
3 394 416 418
3 395 417 419
3 398 396 418
3 399 397 419
3 398 420 409
3 414 436 422
3 417 415 423
3 416 422 425
3 417 424 426
3 418 425 427
3 421 419 426
3 420 427 429
3 421 428 430
3 410 407 430
3 408 431 433
3 410 432 434
3 411 433 435
3 414 412 434
3 413 435 423
3 430 451 439
3 431 437 440
3 432 439 441
3 433 440 442
3 436 434 441
3 435 442 444
3 436 443 445
3 424 423 444
3 425 422 445
3 424 446 448
3 425 447 449
3 428 426 448
3 427 449 438
3 430 428 450
3 446 444 452
3 445 466 454
3 446 453 455
3 447 454 456
3 450 448 455
3 449 456 458
3 450 457 459
3 451 459 461
3 440 437 460
3 439 461 463
3 442 440 462
3 443 441 463
3 444 442 464
3 443 465 466
3 459 480 467
3 460 481 468
3 461 467 469
3 462 468 470
3 465 463 469
3 464 470 472
3 465 471 473
3 453 452 472
3 466 473 475
3 453 474 476
3 454 475 477
3 457 455 476
3 458 456 477
3 457 478 480
3 473 0 2
3 474 31 3
3 475 2 7
3 478 476 3
3 477 7 11
3 478 8 12
3 480 12 19
3 468 481 14
3 467 19 23
3 468 20 24
3 471 469 23
3 470 24 28
3 471 27 0
3 474 472 28
