ply
format ascii 1.0
comment Created by Blender 2.78 (sub 0) - www.blender.org, source file: ''
element vertex 257
property float x
property float y
property float z
element face 510
property list uchar uint vertex_indices
end_header
0.000000 0.707106 -0.707107
0.108386 0.544895 -0.831470
0.000000 0.555570 -0.831470
0.074658 0.375330 -0.923880
0.000000 0.382683 -0.923880
0.038060 0.191341 -0.980785
0.000000 0.195090 -0.980785
0.000000 -0.000000 -1.000000
0.000000 0.999999 0.000000
0.191342 0.961940 -0.195090
0.000000 0.980784 -0.195090
0.180240 0.906127 -0.382683
0.000000 0.923879 -0.382683
0.162212 0.815493 -0.555570
0.000000 0.831469 -0.555570
0.137950 0.693520 -0.707107
0.318190 0.768178 -0.555570
0.270598 0.653281 -0.707107
0.212608 0.513280 -0.831470
0.146447 0.353553 -0.923880
0.074658 0.180240 -0.980785
0.382684 0.923879 0.000000
0.375330 0.906127 -0.195090
0.353554 0.853553 -0.382683
0.108386 0.162211 -0.980785
0.544895 0.815493 -0.195090
0.513280 0.768178 -0.382683
0.461940 0.691342 -0.555570
0.392848 0.587938 -0.707107
0.308658 0.461940 -0.831470
0.212608 0.318189 -0.923880
0.500000 0.500000 -0.707107
0.392848 0.392847 -0.831470
0.270598 0.270598 -0.923880
0.137950 0.137949 -0.980785
0.555570 0.831469 0.000000
0.693520 0.693520 -0.195090
0.653282 0.653281 -0.382683
0.587938 0.587938 -0.555570
0.162212 0.108386 -0.980785
0.707107 0.707107 0.000000
0.815493 0.544895 -0.195090
0.768178 0.513280 -0.382683
0.691342 0.461940 -0.555570
0.587938 0.392847 -0.707107
0.461940 0.308658 -0.831470
0.318190 0.212607 -0.923880
0.513280 0.212607 -0.831470
0.353554 0.146446 -0.923880
0.180240 0.074658 -0.980785
0.831470 0.555570 0.000000
0.906128 0.375330 -0.195090
0.853554 0.353553 -0.382683
0.768178 0.318189 -0.555570
0.653282 0.270598 -0.707107
0.906128 0.180240 -0.382683
0.815493 0.162211 -0.555570
0.693520 0.137949 -0.707107
0.544895 0.108386 -0.831470
0.375330 0.074658 -0.923880
0.191342 0.038060 -0.980785
0.923880 0.382683 0.000000
0.961940 0.191341 -0.195090
0.555570 -0.000000 -0.831470
0.382684 -0.000000 -0.923880
0.195090 -0.000000 -0.980785
1.000000 -0.000000 0.000000
0.980785 -0.000000 -0.195090
0.923880 -0.000000 -0.382683
0.831470 -0.000000 -0.555570
0.707107 -0.000000 -0.707107
0.906128 -0.180240 -0.382683
0.815493 -0.162212 -0.555570
0.693520 -0.137950 -0.707107
0.544895 -0.108387 -0.831470
0.375330 -0.074658 -0.923880
0.191342 -0.038061 -0.980785
0.961940 -0.191342 -0.195090
0.513280 -0.212608 -0.831470
0.353553 -0.146447 -0.923880
0.180240 -0.074658 -0.980785
0.980785 -0.195091 0.000000
0.906127 -0.375331 -0.195090
0.853554 -0.353554 -0.382683
0.768178 -0.318190 -0.555570
0.653282 -0.270598 -0.707107
0.768178 -0.513280 -0.382683
0.691342 -0.461940 -0.555570
0.587938 -0.392848 -0.707107
0.461940 -0.308659 -0.831470
0.318190 -0.212608 -0.923880
0.162212 -0.108387 -0.980785
0.831470 -0.555571 0.000000
0.815493 -0.544895 -0.195090
0.270598 -0.270598 -0.923880
0.137950 -0.137950 -0.980785
0.693520 -0.693520 -0.195090
0.653282 -0.653282 -0.382683
0.587938 -0.587938 -0.555570
0.500000 -0.500000 -0.707107
0.392848 -0.392848 -0.831470
0.513280 -0.768178 -0.382683
0.461940 -0.691342 -0.555570
0.392848 -0.587938 -0.707107
0.308658 -0.461940 -0.831470
0.212608 -0.318190 -0.923880
0.108386 -0.162212 -0.980785
0.555570 -0.831470 0.000000
0.544895 -0.815493 -0.195090
0.074658 -0.180240 -0.980785
0.375330 -0.906128 -0.195090
0.353553 -0.853554 -0.382683
0.318190 -0.768178 -0.555570
0.270598 -0.653282 -0.707107
0.212608 -0.513280 -0.831470
0.146447 -0.353554 -0.923880
0.137950 -0.693520 -0.707107
0.108386 -0.544895 -0.831470
0.074658 -0.375331 -0.923880
0.038060 -0.191342 -0.980785
0.382683 -0.923880 0.000000
0.191342 -0.961940 -0.195090
0.180240 -0.906128 -0.382683
0.162212 -0.815493 -0.555570
0.000000 -0.195091 -0.980785
0.195090 -0.980786 0.000000
-0.000000 -0.980785 -0.195090
0.000000 -0.923880 -0.382683
-0.000000 -0.831470 -0.555570
-0.000000 -0.707107 -0.707107
-0.000000 -0.555570 -0.831470
0.000000 -0.382684 -0.923880
-0.108386 -0.544895 -0.831470
-0.074658 -0.375331 -0.923880
-0.038060 -0.191342 -0.980785
-0.000000 -1.000000 0.000000
-0.191342 -0.961940 -0.195090
-0.180240 -0.906128 -0.382683
-0.162212 -0.815493 -0.555570
-0.137950 -0.693520 -0.707107
-0.382684 -0.923880 0.000000
-0.375330 -0.906127 -0.195090
-0.353553 -0.853554 -0.382683
-0.318190 -0.768178 -0.555570
-0.270598 -0.653282 -0.707107
-0.212608 -0.513280 -0.831470
-0.146447 -0.353554 -0.923880
-0.074658 -0.180240 -0.980785
-0.392847 -0.587938 -0.707107
-0.308658 -0.461940 -0.831470
-0.212607 -0.318190 -0.923880
-0.108386 -0.162212 -0.980785
-0.544895 -0.815493 -0.195090
-0.513280 -0.768178 -0.382683
-0.461940 -0.691342 -0.555570
-0.653281 -0.653282 -0.382683
-0.587938 -0.587938 -0.555570
-0.500000 -0.500000 -0.707107
-0.392847 -0.392848 -0.831470
-0.270598 -0.270598 -0.923880
-0.137950 -0.137950 -0.980785
-0.555570 -0.831470 0.000000
-0.693520 -0.693520 -0.195090
-0.461940 -0.308658 -0.831470
-0.318190 -0.212608 -0.923880
-0.162212 -0.108387 -0.980785
-0.707107 -0.707107 0.000000
-0.815493 -0.544895 -0.195090
-0.768178 -0.513280 -0.382683
-0.691342 -0.461940 -0.555570
-0.587938 -0.392848 -0.707107
-0.853553 -0.353554 -0.382683
-0.768177 -0.318190 -0.555570
-0.653281 -0.270598 -0.707107
-0.513280 -0.212608 -0.831470
-0.353553 -0.146447 -0.923880
-0.180240 -0.074658 -0.980785
-0.831470 -0.555570 0.000000
-0.906127 -0.375330 -0.195090
-0.544895 -0.108387 -0.831470
-0.375330 -0.074658 -0.923880
-0.191342 -0.038061 -0.980785
-0.923880 -0.382684 0.000000
-0.961939 -0.191342 -0.195090
-0.906127 -0.180240 -0.382683
-0.815493 -0.162212 -0.555570
-0.693520 -0.137950 -0.707107
-0.923879 -0.000000 -0.382683
-0.831469 -0.000000 -0.555570
-0.707107 -0.000000 -0.707107
-0.555570 -0.000000 -0.831470
-0.382683 -0.000000 -0.923880
-0.195090 -0.000000 -0.980785
-1.000000 -0.000000 0.000000
-0.980785 -0.000000 -0.195090
-0.191342 0.038060 -0.980785
-0.980785 0.195090 0.000000
-0.961939 0.191342 -0.195090
-0.906127 0.180240 -0.382683
-0.815493 0.162211 -0.555570
-0.693520 0.137949 -0.707107
-0.544895 0.108386 -0.831470
-0.375330 0.074658 -0.923880
-0.653281 0.270598 -0.707107
-0.513280 0.212607 -0.831470
-0.353553 0.146446 -0.923880
-0.180240 0.074657 -0.980785
-0.906127 0.375330 -0.195090
-0.853553 0.353553 -0.382683
-0.768177 0.318189 -0.555570
-0.162212 0.108386 -0.980785
-0.831469 0.555570 0.000000
-0.815493 0.544895 -0.195090
-0.768178 0.513280 -0.382683
-0.691341 0.461939 -0.555570
-0.587938 0.392847 -0.707107
-0.461940 0.308658 -0.831470
-0.318189 0.212607 -0.923880
-0.500000 0.500000 -0.707107
-0.392847 0.392847 -0.831470
-0.270598 0.270598 -0.923880
-0.137950 0.137949 -0.980785
-0.707106 0.707106 0.000000
-0.693519 0.693519 -0.195090
-0.653281 0.653281 -0.382683
-0.587937 0.587937 -0.555570
-0.108386 0.162211 -0.980785
-0.544895 0.815492 -0.195090
-0.513280 0.768177 -0.382683
-0.461939 0.691341 -0.555570
-0.392847 0.587937 -0.707107
-0.308658 0.461939 -0.831470
-0.212607 0.318189 -0.923880
-0.212607 0.513279 -0.831470
-0.146446 0.353553 -0.923880
-0.074658 0.180240 -0.980785
-0.555570 0.831469 0.000000
-0.375330 0.906127 -0.195090
-0.353553 0.853553 -0.382683
-0.318189 0.768177 -0.555570
-0.270598 0.653281 -0.707107
-0.382683 0.923879 0.000000
-0.191341 0.961939 -0.195090
-0.180240 0.906127 -0.382683
-0.162211 0.815492 -0.555570
-0.137950 0.693520 -0.707107
-0.108386 0.544895 -0.831470
-0.074658 0.375330 -0.923880
-0.038060 0.191341 -0.980785
-0.195090 0.980785 0.000000
0.195090 0.980785 0.000000
0.980785 0.195090 0.000000
0.923880 -0.382684 0.000000
0.707107 -0.707107 0.000000
-0.195090 -0.980786 0.000000
-0.980785 -0.195090 0.000000
-0.923879 0.382683 0.000000
3 0 1 2
3 2 3 4
3 4 5 6
3 7 6 5
3 8 9 10
3 10 11 12
3 12 13 14
3 14 15 0
3 15 16 17
3 15 18 1
3 1 19 3
3 3 20 5
3 7 5 20
3 9 21 22
3 11 22 23
3 11 16 13
3 7 20 24
3 21 25 22
3 22 26 23
3 16 26 27
3 17 27 28
3 17 29 18
3 18 30 19
3 19 24 20
3 27 31 28
3 28 32 29
3 29 33 30
3 30 34 24
3 7 24 34
3 35 36 25
3 25 37 26
3 27 37 38
3 7 34 39
3 40 41 36
3 36 42 37
3 38 42 43
3 38 44 31
3 32 44 45
3 33 45 46
3 33 39 34
3 44 47 45
3 46 47 48
3 46 49 39
3 7 39 49
3 50 51 41
3 41 52 42
3 43 52 53
3 44 53 54
3 51 55 52
3 53 55 56
3 54 56 57
3 54 58 47
3 47 59 48
3 49 59 60
3 7 49 60
3 61 62 51
3 59 63 64
3 60 64 65
3 7 60 65
3 62 66 67
3 62 68 55
3 56 68 69
3 56 70 57
3 58 70 63
3 67 71 68
3 69 71 72
3 69 73 70
3 63 73 74
3 63 75 64
3 65 75 76
3 7 65 76
3 66 77 67
3 75 78 79
3 75 80 76
3 7 76 80
3 81 82 77
3 77 83 71
3 72 83 84
3 72 85 73
3 73 78 74
3 84 86 87
3 84 88 85
3 78 88 89
3 78 90 79
3 79 91 80
3 7 80 91
3 82 92 93
3 82 86 83
3 91 94 95
3 7 91 95
3 92 96 93
3 93 97 86
3 86 98 87
3 87 99 88
3 89 99 100
3 89 94 90
3 98 101 102
3 98 103 99
3 100 103 104
3 100 105 94
3 95 105 106
3 7 95 106
3 96 107 108
3 96 101 97
3 105 109 106
3 7 106 109
3 107 110 108
3 108 111 101
3 102 111 112
3 102 113 103
3 104 113 114
3 104 115 105
3 112 116 113
3 113 117 114
3 114 118 115
3 109 118 119
3 7 109 119
3 120 121 110
3 110 122 111
3 112 122 123
3 7 119 124
3 125 126 121
3 121 127 122
3 123 127 128
3 123 129 116
3 117 129 130
3 117 131 118
3 119 131 124
3 129 132 130
3 130 133 131
3 131 134 124
3 7 124 134
3 135 136 126
3 126 137 127
3 128 137 138
3 128 139 129
3 136 140 141
3 136 142 137
3 138 142 143
3 138 144 139
3 139 145 132
3 133 145 146
3 134 146 147
3 7 134 147
3 145 148 149
3 145 150 146
3 147 150 151
3 7 147 151
3 140 152 141
3 141 153 142
3 143 153 154
3 143 148 144
3 152 155 153
3 154 155 156
3 154 157 148
3 148 158 149
3 149 159 150
3 150 160 151
3 7 151 160
3 161 162 152
3 159 163 164
3 159 165 160
3 7 160 165
3 166 167 162
3 162 168 155
3 156 168 169
3 156 170 157
3 157 163 158
3 167 171 168
3 169 171 172
3 170 172 173
3 170 174 163
3 164 174 175
3 165 175 176
3 7 165 176
3 177 178 167
3 175 179 180
3 175 181 176
3 7 176 181
3 182 183 178
3 178 184 171
3 172 184 185
3 172 186 173
3 173 179 174
3 185 187 188
3 185 189 186
3 179 189 190
3 180 190 191
3 180 192 181
3 7 181 192
3 183 193 194
3 183 187 184
3 191 195 192
3 7 192 195
3 194 196 197
3 194 198 187
3 188 198 199
3 188 200 189
3 189 201 190
3 191 201 202
3 199 203 200
3 200 204 201
3 202 204 205
3 202 206 195
3 7 195 206
3 196 207 197
3 197 208 198
3 199 208 209
3 7 206 210
3 207 211 212
3 207 213 208
3 209 213 214
3 209 215 203
3 203 216 204
3 205 216 217
3 205 210 206
3 214 218 215
3 215 219 216
3 216 220 217
3 217 221 210
3 7 210 221
3 212 222 223
3 212 224 213
3 214 224 225
3 7 221 226
3 222 227 223
3 223 228 224
3 225 228 229
3 225 230 218
3 219 230 231
3 219 232 220
3 220 226 221
3 230 233 231
3 231 234 232
3 232 235 226
3 7 226 235
3 236 237 227
3 227 238 228
3 229 238 239
3 229 240 230
3 241 242 237
3 237 243 238
3 239 243 244
3 239 245 240
3 240 246 233
3 233 247 234
3 235 247 248
3 7 235 248
3 245 2 246
3 246 4 247
3 247 6 248
3 7 248 6
3 249 10 242
3 242 12 243
3 244 12 14
3 244 0 245
3 81 236 196
3 0 15 1
3 2 1 3
3 4 3 5
3 8 250 9
3 10 9 11
3 12 11 13
3 14 13 15
3 15 13 16
3 15 17 18
3 1 18 19
3 3 19 20
3 9 250 21
3 11 9 22
3 11 23 16
3 21 35 25
3 22 25 26
3 16 23 26
3 17 16 27
3 17 28 29
3 18 29 30
3 19 30 24
3 27 38 31
3 28 31 32
3 29 32 33
3 30 33 34
3 35 40 36
3 25 36 37
3 27 26 37
3 40 50 41
3 36 41 42
3 38 37 42
3 38 43 44
3 32 31 44
3 33 32 45
3 33 46 39
3 44 54 47
3 46 45 47
3 46 48 49
3 50 61 51
3 41 51 52
3 43 42 52
3 44 43 53
3 51 62 55
3 53 52 55
3 54 53 56
3 54 57 58
3 47 58 59
3 49 48 59
3 61 251 62
3 59 58 63
3 60 59 64
3 62 251 66
3 62 67 68
3 56 55 68
3 56 69 70
3 58 57 70
3 67 77 71
3 69 68 71
3 69 72 73
3 63 70 73
3 63 74 75
3 65 64 75
3 66 81 77
3 75 74 78
3 75 79 80
3 81 252 82
3 77 82 83
3 72 71 83
3 72 84 85
3 73 85 78
3 84 83 86
3 84 87 88
3 78 85 88
3 78 89 90
3 79 90 91
3 82 252 92
3 82 93 86
3 91 90 94
3 92 253 96
3 93 96 97
3 86 97 98
3 87 98 99
3 89 88 99
3 89 100 94
3 98 97 101
3 98 102 103
3 100 99 103
3 100 104 105
3 95 94 105
3 96 253 107
3 96 108 101
3 105 115 109
3 107 120 110
3 108 110 111
3 102 101 111
3 102 112 113
3 104 103 113
3 104 114 115
3 112 123 116
3 113 116 117
3 114 117 118
3 109 115 118
3 120 125 121
3 110 121 122
3 112 111 122
3 125 135 126
3 121 126 127
3 123 122 127
3 123 128 129
3 117 116 129
3 117 130 131
3 119 118 131
3 129 139 132
3 130 132 133
3 131 133 134
3 135 254 136
3 126 136 137
3 128 127 137
3 128 138 139
3 136 254 140
3 136 141 142
3 138 137 142
3 138 143 144
3 139 144 145
3 133 132 145
3 134 133 146
3 145 144 148
3 145 149 150
3 147 146 150
3 140 161 152
3 141 152 153
3 143 142 153
3 143 154 148
3 152 162 155
3 154 153 155
3 154 156 157
3 148 157 158
3 149 158 159
3 150 159 160
3 161 166 162
3 159 158 163
3 159 164 165
3 166 177 167
3 162 167 168
3 156 155 168
3 156 169 170
3 157 170 163
3 167 178 171
3 169 168 171
3 170 169 172
3 170 173 174
3 164 163 174
3 165 164 175
3 177 182 178
3 175 174 179
3 175 180 181
3 182 255 183
3 178 183 184
3 172 171 184
3 172 185 186
3 173 186 179
3 185 184 187
3 185 188 189
3 179 186 189
3 180 179 190
3 180 191 192
3 183 255 193
3 183 194 187
3 191 202 195
3 194 193 196
3 194 197 198
3 188 187 198
3 188 199 200
3 189 200 201
3 191 190 201
3 199 209 203
3 200 203 204
3 202 201 204
3 202 205 206
3 196 256 207
3 197 207 208
3 199 198 208
3 207 256 211
3 207 212 213
3 209 208 213
3 209 214 215
3 203 215 216
3 205 204 216
3 205 217 210
3 214 225 218
3 215 218 219
3 216 219 220
3 217 220 221
3 212 211 222
3 212 223 224
3 214 213 224
3 222 236 227
3 223 227 228
3 225 224 228
3 225 229 230
3 219 218 230
3 219 231 232
3 220 232 226
3 230 240 233
3 231 233 234
3 232 234 235
3 236 241 237
3 227 237 238
3 229 228 238
3 229 239 240
3 241 249 242
3 237 242 243
3 239 238 243
3 239 244 245
3 240 245 246
3 233 246 247
3 235 234 247
3 245 0 2
3 246 2 4
3 247 4 6
3 249 8 10
3 242 10 12
3 244 243 12
3 244 14 0
3 196 193 177
3 255 182 177
3 177 166 161
3 161 140 177
3 254 135 125
3 125 120 254
3 107 253 92
3 92 252 107
3 81 66 251
3 251 61 50
3 50 40 35
3 35 21 50
3 250 8 236
3 249 241 236
3 236 222 211
3 211 256 196
3 193 255 177
3 177 140 254
3 254 120 107
3 107 252 81
3 81 251 50
3 50 21 250
3 8 249 236
3 236 211 196
3 196 177 254
3 254 107 196
3 81 50 250
3 250 236 81
3 196 107 81
