ply
format ascii 1.0
comment Created by Blender 2.78 (sub 0) - www.blender.org, source file: ''
element vertex 514
property float x
property float y
property float z
element face 1024
property list uchar uint vertex_indices
end_header
0.000000 0.707106 -0.707107
0.108386 0.544895 -0.831470
0.000000 0.555570 -0.831470
0.074658 0.375330 -0.923880
0.000000 0.382683 -0.923880
0.038060 0.191341 -0.980785
0.000000 0.195090 -0.980785
0.000000 -0.000000 -1.000000
0.000000 0.999999 0.000000
0.191342 0.961940 -0.195090
0.000000 0.980784 -0.195090
0.180240 0.906127 -0.382683
0.000000 0.923879 -0.382683
0.162212 0.815493 -0.555570
0.000000 0.831469 -0.555570
0.137950 0.693520 -0.707107
0.318190 0.768178 -0.555570
0.270598 0.653281 -0.707107
0.212608 0.513280 -0.831470
0.146447 0.353553 -0.923880
0.074658 0.180240 -0.980785
0.382684 0.923879 0.000000
0.375330 0.906127 -0.195090
0.353554 0.853553 -0.382683
0.108386 0.162211 -0.980785
0.544895 0.815493 -0.195090
0.513280 0.768178 -0.382683
0.461940 0.691342 -0.555570
0.392848 0.587938 -0.707107
0.308658 0.461940 -0.831470
0.212608 0.318189 -0.923880
0.500000 0.500000 -0.707107
0.392848 0.392847 -0.831470
0.270598 0.270598 -0.923880
0.137950 0.137949 -0.980785
0.555570 0.831469 0.000000
0.693520 0.693520 -0.195090
0.653282 0.653281 -0.382683
0.587938 0.587938 -0.555570
0.162212 0.108386 -0.980785
0.707107 0.707107 0.000000
0.815493 0.544895 -0.195090
0.768178 0.513280 -0.382683
0.691342 0.461940 -0.555570
0.587938 0.392847 -0.707107
0.461940 0.308658 -0.831470
0.318190 0.212607 -0.923880
0.513280 0.212607 -0.831470
0.353554 0.146446 -0.923880
0.180240 0.074658 -0.980785
0.831470 0.555570 0.000000
0.906128 0.375330 -0.195090
0.853554 0.353553 -0.382683
0.768178 0.318189 -0.555570
0.653282 0.270598 -0.707107
0.906128 0.180240 -0.382683
0.815493 0.162211 -0.555570
0.693520 0.137949 -0.707107
0.544895 0.108386 -0.831470
0.375330 0.074658 -0.923880
0.191342 0.038060 -0.980785
0.923880 0.382683 0.000000
0.961940 0.191341 -0.195090
0.555570 -0.000000 -0.831470
0.382684 -0.000000 -0.923880
0.195090 -0.000000 -0.980785
1.000000 -0.000000 0.000000
0.980785 -0.000000 -0.195090
0.923880 -0.000000 -0.382683
0.831470 -0.000000 -0.555570
0.707107 -0.000000 -0.707107
0.906128 -0.180240 -0.382683
0.815493 -0.162212 -0.555570
0.693520 -0.137950 -0.707107
0.544895 -0.108387 -0.831470
0.375330 -0.074658 -0.923880
0.191342 -0.038061 -0.980785
0.961940 -0.191342 -0.195090
0.513280 -0.212608 -0.831470
0.353553 -0.146447 -0.923880
0.180240 -0.074658 -0.980785
0.980785 -0.195091 0.000000
0.906127 -0.375331 -0.195090
0.853554 -0.353554 -0.382683
0.768178 -0.318190 -0.555570
0.653282 -0.270598 -0.707107
0.768178 -0.513280 -0.382683
0.691342 -0.461940 -0.555570
0.587938 -0.392848 -0.707107
0.461940 -0.308659 -0.831470
0.318190 -0.212608 -0.923880
0.162212 -0.108387 -0.980785
0.831470 -0.555571 0.000000
0.815493 -0.544895 -0.195090
0.270598 -0.270598 -0.923880
0.137950 -0.137950 -0.980785
0.693520 -0.693520 -0.195090
0.653282 -0.653282 -0.382683
0.587938 -0.587938 -0.555570
0.500000 -0.500000 -0.707107
0.392848 -0.392848 -0.831470
0.513280 -0.768178 -0.382683
0.461940 -0.691342 -0.555570
0.392848 -0.587938 -0.707107
0.308658 -0.461940 -0.831470
0.212608 -0.318190 -0.923880
0.108386 -0.162212 -0.980785
0.555570 -0.831470 0.000000
0.544895 -0.815493 -0.195090
0.074658 -0.180240 -0.980785
0.375330 -0.906128 -0.195090
0.353553 -0.853554 -0.382683
0.318190 -0.768178 -0.555570
0.270598 -0.653282 -0.707107
0.212608 -0.513280 -0.831470
0.146447 -0.353554 -0.923880
0.137950 -0.693520 -0.707107
0.108386 -0.544895 -0.831470
0.074658 -0.375331 -0.923880
0.038060 -0.191342 -0.980785
0.382683 -0.923880 0.000000
0.191342 -0.961940 -0.195090
0.180240 -0.906128 -0.382683
0.162212 -0.815493 -0.555570
0.000000 -0.195091 -0.980785
0.195090 -0.980786 0.000000
-0.000000 -0.980785 -0.195090
0.000000 -0.923880 -0.382683
-0.000000 -0.831470 -0.555570
-0.000000 -0.707107 -0.707107
-0.000000 -0.555570 -0.831470
0.000000 -0.382684 -0.923880
-0.108386 -0.544895 -0.831470
-0.074658 -0.375331 -0.923880
-0.038060 -0.191342 -0.980785
-0.000000 -1.000000 0.000000
-0.191342 -0.961940 -0.195090
-0.180240 -0.906128 -0.382683
-0.162212 -0.815493 -0.555570
-0.137950 -0.693520 -0.707107
-0.382684 -0.923880 0.000000
-0.375330 -0.906127 -0.195090
-0.353553 -0.853554 -0.382683
-0.318190 -0.768178 -0.555570
-0.270598 -0.653282 -0.707107
-0.212608 -0.513280 -0.831470
-0.146447 -0.353554 -0.923880
-0.074658 -0.180240 -0.980785
-0.392847 -0.587938 -0.707107
-0.308658 -0.461940 -0.831470
-0.212607 -0.318190 -0.923880
-0.108386 -0.162212 -0.980785
-0.544895 -0.815493 -0.195090
-0.513280 -0.768178 -0.382683
-0.461940 -0.691342 -0.555570
-0.653281 -0.653282 -0.382683
-0.587938 -0.587938 -0.555570
-0.500000 -0.500000 -0.707107
-0.392847 -0.392848 -0.831470
-0.270598 -0.270598 -0.923880
-0.137950 -0.137950 -0.980785
-0.555570 -0.831470 0.000000
-0.693520 -0.693520 -0.195090
-0.461940 -0.308658 -0.831470
-0.318190 -0.212608 -0.923880
-0.162212 -0.108387 -0.980785
-0.707107 -0.707107 0.000000
-0.815493 -0.544895 -0.195090
-0.768178 -0.513280 -0.382683
-0.691342 -0.461940 -0.555570
-0.587938 -0.392848 -0.707107
-0.853553 -0.353554 -0.382683
-0.768177 -0.318190 -0.555570
-0.653281 -0.270598 -0.707107
-0.513280 -0.212608 -0.831470
-0.353553 -0.146447 -0.923880
-0.180240 -0.074658 -0.980785
-0.831470 -0.555570 0.000000
-0.906127 -0.375330 -0.195090
-0.544895 -0.108387 -0.831470
-0.375330 -0.074658 -0.923880
-0.191342 -0.038061 -0.980785
-0.923880 -0.382684 0.000000
-0.961939 -0.191342 -0.195090
-0.906127 -0.180240 -0.382683
-0.815493 -0.162212 -0.555570
-0.693520 -0.137950 -0.707107
-0.923879 -0.000000 -0.382683
-0.831469 -0.000000 -0.555570
-0.707107 -0.000000 -0.707107
-0.555570 -0.000000 -0.831470
-0.382683 -0.000000 -0.923880
-0.195090 -0.000000 -0.980785
-1.000000 -0.000000 0.000000
-0.980785 -0.000000 -0.195090
-0.191342 0.038060 -0.980785
-0.980785 0.195090 0.000000
-0.961939 0.191342 -0.195090
-0.906127 0.180240 -0.382683
-0.815493 0.162211 -0.555570
-0.693520 0.137949 -0.707107
-0.544895 0.108386 -0.831470
-0.375330 0.074658 -0.923880
-0.653281 0.270598 -0.707107
-0.513280 0.212607 -0.831470
-0.353553 0.146446 -0.923880
-0.180240 0.074657 -0.980785
-0.906127 0.375330 -0.195090
-0.853553 0.353553 -0.382683
-0.768177 0.318189 -0.555570
-0.162212 0.108386 -0.980785
-0.831469 0.555570 0.000000
-0.815493 0.544895 -0.195090
-0.768178 0.513280 -0.382683
-0.691341 0.461939 -0.555570
-0.587938 0.392847 -0.707107
-0.461940 0.308658 -0.831470
-0.318189 0.212607 -0.923880
-0.500000 0.500000 -0.707107
-0.392847 0.392847 -0.831470
-0.270598 0.270598 -0.923880
-0.137950 0.137949 -0.980785
-0.707106 0.707106 0.000000
-0.693519 0.693519 -0.195090
-0.653281 0.653281 -0.382683
-0.587937 0.587937 -0.555570
-0.108386 0.162211 -0.980785
-0.544895 0.815492 -0.195090
-0.513280 0.768177 -0.382683
-0.461939 0.691341 -0.555570
-0.392847 0.587937 -0.707107
-0.308658 0.461939 -0.831470
-0.212607 0.318189 -0.923880
-0.212607 0.513279 -0.831470
-0.146446 0.353553 -0.923880
-0.074658 0.180240 -0.980785
-0.555570 0.831469 0.000000
-0.375330 0.906127 -0.195090
-0.353553 0.853553 -0.382683
-0.318189 0.768177 -0.555570
-0.270598 0.653281 -0.707107
-0.382683 0.923879 0.000000
-0.191341 0.961939 -0.195090
-0.180240 0.906127 -0.382683
-0.162211 0.815492 -0.555570
-0.137950 0.693520 -0.707107
-0.108386 0.544895 -0.831470
-0.074658 0.375330 -0.923880
-0.038060 0.191341 -0.980785
-0.195090 0.980785 0.000000
0.097467 0.489995 -0.748606
0.000000 0.636093 -0.636704
0.000000 0.499593 -0.748606
0.067092 0.337289 -0.831711
0.000000 0.343897 -0.831711
0.034142 0.171633 -0.882827
0.000000 0.174993 -0.882827
0.000000 -0.000000 -0.900000
0.172204 0.865724 -0.175699
0.000000 0.900481 0.009800
0.000000 0.882686 -0.175699
0.000000 0.831405 -0.344630
0.145955 0.733762 -0.500295
0.000000 0.748135 -0.500295
0.124097 0.623871 -0.636704
0.243424 0.587676 -0.636704
0.191187 0.461566 -0.748606
0.066967 0.161675 -0.882827
0.344599 0.831939 0.009800
0.175678 0.883181 0.009800
0.162201 0.815430 -0.344630
0.337790 0.815493 -0.175699
0.318164 0.768117 -0.344630
0.097223 0.145503 -0.882827
0.500283 0.748725 0.009800
0.461905 0.691286 -0.344630
0.286301 0.691189 -0.500295
0.415643 0.622052 -0.500295
0.277560 0.415399 -0.748606
0.131606 0.317718 -0.831711
0.191059 0.285941 -0.831711
0.449788 0.449788 -0.636704
0.353396 0.528894 -0.636704
0.353268 0.353268 -0.748606
0.243171 0.243171 -0.831711
0.123740 0.123740 -0.882827
0.490395 0.733926 -0.175699
0.636737 0.636737 0.009800
0.624155 0.624154 -0.175699
0.529013 0.529013 -0.500295
0.145503 0.097222 -0.882827
0.733926 0.490395 -0.175699
0.691287 0.461905 -0.344630
0.587893 0.587892 -0.344630
0.622053 0.415643 -0.500295
0.528894 0.353396 -0.636704
0.285941 0.191058 -0.831711
0.415399 0.277560 -0.748606
0.587676 0.243424 -0.636704
0.317719 0.131605 -0.831711
0.161676 0.066967 -0.882827
0.815494 0.337789 -0.175699
0.748725 0.500283 0.009800
0.768117 0.318167 -0.344630
0.815430 0.162200 -0.344630
0.691189 0.286301 -0.500295
0.733762 0.145954 -0.500295
0.461567 0.191186 -0.748606
0.623871 0.124097 -0.636704
0.337289 0.067092 -0.831711
0.171633 0.034141 -0.882827
0.865724 0.172203 -0.175699
0.831940 0.344599 0.009800
0.499593 -0.000000 -0.748606
0.489996 0.097467 -0.748606
0.343898 -0.000000 -0.831711
0.174994 -0.000000 -0.882827
0.900482 -0.000000 0.009800
0.883181 0.175677 0.009800
0.831406 -0.000000 -0.344630
0.636093 -0.000000 -0.636704
0.865724 -0.172204 -0.175699
0.882687 -0.000000 -0.175699
0.733762 -0.145955 -0.500295
0.748136 -0.000000 -0.500295
0.489995 -0.097467 -0.748606
0.337289 -0.067093 -0.831711
0.171633 -0.034142 -0.882827
0.461566 -0.191187 -0.748606
0.161676 -0.066967 -0.882827
0.831940 -0.344600 0.009800
0.883181 -0.175678 0.009800
0.815430 -0.162201 -0.344630
0.815493 -0.337790 -0.175699
0.691189 -0.286301 -0.500295
0.587676 -0.243425 -0.636704
0.623871 -0.124098 -0.636704
0.622053 -0.415644 -0.500295
0.768117 -0.318167 -0.344630
0.415399 -0.277560 -0.748606
0.317719 -0.131606 -0.831711
0.285941 -0.191059 -0.831711
0.145503 -0.097223 -0.882827
0.748725 -0.500283 0.009800
0.733926 -0.490395 -0.175699
0.243171 -0.243171 -0.831711
0.123740 -0.123741 -0.882827
0.636737 -0.636738 0.009800
0.587893 -0.587893 -0.344630
0.691287 -0.461905 -0.344630
0.529013 -0.529013 -0.500295
0.449788 -0.449788 -0.636704
0.528894 -0.353397 -0.636704
0.353268 -0.353268 -0.748606
0.461905 -0.691287 -0.344630
0.415643 -0.622053 -0.500295
0.353396 -0.528894 -0.636704
0.191058 -0.285941 -0.831711
0.097223 -0.145503 -0.882827
0.490395 -0.733927 -0.175699
0.624154 -0.624155 -0.175699
0.066967 -0.161676 -0.882827
0.337789 -0.815494 -0.175699
0.500283 -0.748725 0.009800
0.318167 -0.768117 -0.344630
0.243424 -0.587676 -0.636704
0.277560 -0.415399 -0.748606
0.131605 -0.317719 -0.831711
0.145954 -0.733762 -0.500295
0.286301 -0.691189 -0.500295
0.191187 -0.461567 -0.748606
0.124097 -0.623871 -0.636704
0.067092 -0.337289 -0.831711
0.034142 -0.171633 -0.882827
0.172203 -0.865724 -0.175699
0.344599 -0.831940 0.009800
0.162201 -0.815430 -0.344630
0.000000 -0.174994 -0.882827
-0.000000 -0.900483 0.009800
0.175677 -0.883181 0.009800
0.000000 -0.831406 -0.344630
-0.000000 -0.636094 -0.636704
0.097467 -0.489996 -0.748606
-0.000000 -0.499593 -0.748606
0.000000 -0.343898 -0.831711
-0.097467 -0.489996 -0.748606
-0.067092 -0.337289 -0.831711
-0.034142 -0.171633 -0.882827
-0.172204 -0.865724 -0.175699
-0.000000 -0.882687 -0.175699
-0.145955 -0.733762 -0.500295
-0.000000 -0.748136 -0.500295
-0.344600 -0.831940 0.009800
-0.175678 -0.883181 0.009800
-0.162200 -0.815430 -0.344630
-0.337789 -0.815494 -0.175699
-0.286301 -0.691189 -0.500295
-0.243424 -0.587676 -0.636704
-0.124097 -0.623871 -0.636704
-0.191187 -0.461567 -0.748606
-0.066967 -0.161676 -0.882827
-0.277560 -0.415399 -0.748606
-0.131605 -0.317719 -0.831711
-0.191058 -0.285941 -0.831711
-0.097223 -0.145503 -0.882827
-0.500283 -0.748725 0.009800
-0.318167 -0.768117 -0.344630
-0.490395 -0.733926 -0.175699
-0.415643 -0.622052 -0.500295
-0.587892 -0.587893 -0.344630
-0.461905 -0.691287 -0.344630
-0.529013 -0.529013 -0.500295
-0.449788 -0.449788 -0.636704
-0.353396 -0.528894 -0.636704
-0.353268 -0.353268 -0.748606
-0.243171 -0.243171 -0.831711
-0.123740 -0.123741 -0.882827
-0.636737 -0.636737 0.009800
-0.285941 -0.191059 -0.831711
-0.145503 -0.097223 -0.882827
-0.733926 -0.490395 -0.175699
-0.624154 -0.624154 -0.175699
-0.691286 -0.461905 -0.344630
-0.622052 -0.415643 -0.500295
-0.528894 -0.353396 -0.636704
-0.768117 -0.318168 -0.344630
-0.587676 -0.243425 -0.636704
-0.415399 -0.277560 -0.748606
-0.317718 -0.131606 -0.831711
-0.161675 -0.066967 -0.882827
-0.831939 -0.344603 0.009800
-0.748725 -0.500283 0.009800
-0.337289 -0.067093 -0.831711
-0.461566 -0.191187 -0.748606
-0.171633 -0.034142 -0.882827
-0.815493 -0.337789 -0.175699
-0.883181 -0.175678 0.009800
-0.815429 -0.162201 -0.344630
-0.691188 -0.286301 -0.500295
-0.733761 -0.145955 -0.500295
-0.623871 -0.124098 -0.636704
-0.831405 -0.000000 -0.344630
-0.636093 -0.000000 -0.636704
-0.489995 -0.097467 -0.748606
-0.499593 -0.000000 -0.748606
-0.343897 -0.000000 -0.831711
-0.174994 -0.000000 -0.882827
-0.865724 -0.172204 -0.175699
-0.900482 -0.000000 0.009800
-0.171633 0.034141 -0.882827
-0.865723 0.172203 -0.175699
-0.882686 -0.000000 -0.175699
-0.733761 0.145954 -0.500295
-0.748135 -0.000000 -0.500295
-0.489995 0.097467 -0.748606
-0.337289 0.067092 -0.831711
-0.587676 0.243424 -0.636704
-0.623870 0.124097 -0.636704
-0.461566 0.191186 -0.748606
-0.161675 0.066967 -0.882827
-0.831939 0.344599 0.009800
-0.883181 0.175677 0.009800
-0.768117 0.318164 -0.344630
-0.815429 0.162200 -0.344630
-0.145503 0.097222 -0.882827
-0.815493 0.337789 -0.175699
-0.748724 0.500283 0.009800
-0.691286 0.461905 -0.344630
-0.691188 0.286301 -0.500295
-0.622052 0.415643 -0.500295
-0.415399 0.277560 -0.748606
-0.317718 0.131605 -0.831711
-0.285941 0.191058 -0.831711
-0.449788 0.449788 -0.636704
-0.528893 0.353396 -0.636704
-0.353268 0.353268 -0.748606
-0.243171 0.243171 -0.831711
-0.123740 0.123740 -0.882827
-0.733926 0.490395 -0.175699
-0.636737 0.636737 0.009800
-0.587892 0.587892 -0.344630
-0.529012 0.529012 -0.500295
-0.097223 0.145502 -0.882827
-0.490395 0.733926 -0.175699
-0.624154 0.624154 -0.175699
-0.461905 0.691286 -0.344630
-0.415643 0.622052 -0.500295
-0.353396 0.528893 -0.636704
-0.191058 0.285940 -0.831711
-0.277560 0.415399 -0.748606
-0.243424 0.587676 -0.636704
-0.131605 0.317718 -0.831711
-0.066967 0.161675 -0.882827
-0.344602 0.831939 0.009800
-0.500282 0.748724 0.009800
-0.318167 0.768116 -0.344630
-0.337789 0.815493 -0.175699
-0.175677 0.883180 0.009800
-0.162200 0.815429 -0.344630
-0.286300 0.691188 -0.500295
-0.145954 0.733761 -0.500295
-0.191186 0.461566 -0.748606
-0.124097 0.623870 -0.636704
-0.067092 0.337288 -0.831711
-0.034142 0.171632 -0.882827
-0.097467 0.489995 -0.748606
-0.172203 0.865723 -0.175699
0.980785 0.195090 0.000000
0.923880 -0.382684 0.000000
0.707107 -0.707107 0.000000
-0.195090 -0.980786 0.000000
-0.980785 -0.195090 0.000000
-0.923879 0.382683 0.000000
0.195090 0.980785 0.000000
3 0 1 2
3 2 3 4
3 4 5 6
3 7 6 5
3 8 9 10
3 10 11 12
3 12 13 14
3 14 15 0
3 15 16 17
3 15 18 1
3 1 19 3
3 3 20 5
3 7 5 20
3 9 21 22
3 11 22 23
3 11 16 13
3 7 20 24
3 21 25 22
3 22 26 23
3 16 26 27
3 17 27 28
3 17 29 18
3 18 30 19
3 19 24 20
3 27 31 28
3 28 32 29
3 29 33 30
3 30 34 24
3 7 24 34
3 35 36 25
3 25 37 26
3 27 37 38
3 7 34 39
3 40 41 36
3 36 42 37
3 38 42 43
3 38 44 31
3 32 44 45
3 33 45 46
3 33 39 34
3 44 47 45
3 46 47 48
3 46 49 39
3 7 39 49
3 50 51 41
3 41 52 42
3 43 52 53
3 44 53 54
3 51 55 52
3 53 55 56
3 54 56 57
3 54 58 47
3 47 59 48
3 49 59 60
3 7 49 60
3 61 62 51
3 59 63 64
3 60 64 65
3 7 60 65
3 62 66 67
3 62 68 55
3 56 68 69
3 56 70 57
3 58 70 63
3 67 71 68
3 69 71 72
3 69 73 70
3 63 73 74
3 63 75 64
3 65 75 76
3 7 65 76
3 66 77 67
3 75 78 79
3 75 80 76
3 7 76 80
3 81 82 77
3 77 83 71
3 72 83 84
3 72 85 73
3 73 78 74
3 84 86 87
3 84 88 85
3 78 88 89
3 78 90 79
3 79 91 80
3 7 80 91
3 82 92 93
3 82 86 83
3 91 94 95
3 7 91 95
3 92 96 93
3 93 97 86
3 86 98 87
3 87 99 88
3 89 99 100
3 89 94 90
3 98 101 102
3 98 103 99
3 100 103 104
3 100 105 94
3 95 105 106
3 7 95 106
3 96 107 108
3 96 101 97
3 105 109 106
3 7 106 109
3 107 110 108
3 108 111 101
3 102 111 112
3 102 113 103
3 104 113 114
3 104 115 105
3 112 116 113
3 113 117 114
3 114 118 115
3 109 118 119
3 7 109 119
3 120 121 110
3 110 122 111
3 112 122 123
3 7 119 124
3 125 126 121
3 121 127 122
3 123 127 128
3 123 129 116
3 117 129 130
3 117 131 118
3 119 131 124
3 129 132 130
3 130 133 131
3 131 134 124
3 7 124 134
3 135 136 126
3 126 137 127
3 128 137 138
3 128 139 129
3 136 140 141
3 136 142 137
3 138 142 143
3 138 144 139
3 139 145 132
3 133 145 146
3 134 146 147
3 7 134 147
3 145 148 149
3 145 150 146
3 147 150 151
3 7 147 151
3 140 152 141
3 141 153 142
3 143 153 154
3 143 148 144
3 152 155 153
3 154 155 156
3 154 157 148
3 148 158 149
3 149 159 150
3 150 160 151
3 7 151 160
3 161 162 152
3 159 163 164
3 159 165 160
3 7 160 165
3 166 167 162
3 162 168 155
3 156 168 169
3 156 170 157
3 157 163 158
3 167 171 168
3 169 171 172
3 170 172 173
3 170 174 163
3 164 174 175
3 165 175 176
3 7 165 176
3 177 178 167
3 175 179 180
3 175 181 176
3 7 176 181
3 182 183 178
3 178 184 171
3 172 184 185
3 172 186 173
3 173 179 174
3 185 187 188
3 185 189 186
3 179 189 190
3 180 190 191
3 180 192 181
3 7 181 192
3 183 193 194
3 183 187 184
3 191 195 192
3 7 192 195
3 194 196 197
3 194 198 187
3 188 198 199
3 188 200 189
3 189 201 190
3 191 201 202
3 199 203 200
3 200 204 201
3 202 204 205
3 202 206 195
3 7 195 206
3 196 207 197
3 197 208 198
3 199 208 209
3 7 206 210
3 207 211 212
3 207 213 208
3 209 213 214
3 209 215 203
3 203 216 204
3 205 216 217
3 205 210 206
3 214 218 215
3 215 219 216
3 216 220 217
3 217 221 210
3 7 210 221
3 212 222 223
3 212 224 213
3 214 224 225
3 7 221 226
3 222 227 223
3 223 228 224
3 225 228 229
3 225 230 218
3 219 230 231
3 219 232 220
3 220 226 221
3 230 233 231
3 231 234 232
3 232 235 226
3 7 226 235
3 236 237 227
3 227 238 228
3 229 238 239
3 229 240 230
3 241 242 237
3 237 243 238
3 239 243 244
3 239 245 240
3 240 246 233
3 233 247 234
3 235 247 248
3 7 235 248
3 245 2 246
3 246 4 247
3 247 6 248
3 7 248 6
3 249 10 242
3 242 12 243
3 244 12 14
3 244 0 245
3 250 251 252
3 253 252 254
3 255 254 256
3 257 255 256
3 258 259 260
3 261 258 260
3 262 261 263
3 264 263 251
3 265 262 264
3 266 264 250
3 253 266 250
3 267 253 255
3 257 267 255
3 258 268 269
3 270 271 258
3 262 272 270
3 257 273 267
3 271 274 268
3 275 271 272
3 276 275 272
3 265 277 276
3 278 265 266
3 279 278 266
3 267 280 279
3 281 277 282
3 283 282 278
3 280 283 278
3 273 284 280
3 257 285 273
3 286 287 274
3 275 288 286
3 289 275 277
3 257 290 285
3 291 287 288
3 292 288 293
3 289 292 293
3 281 294 289
3 283 295 281
3 296 283 284
3 290 284 285
3 297 298 295
3 299 297 296
3 300 296 290
3 257 300 290
3 301 302 291
3 303 291 292
3 294 303 292
3 298 294 295
3 304 301 303
3 305 304 303
3 298 306 305
3 307 308 298
3 309 307 299
3 300 309 299
3 257 310 300
3 311 312 301
3 309 313 314
3 310 315 309
3 257 316 310
3 311 317 318
3 319 311 304
3 306 319 304
3 320 306 308
3 314 320 308
3 319 321 322
3 323 319 324
3 320 323 324
3 325 320 313
3 326 313 315
3 327 315 316
3 257 327 316
3 321 317 322
3 326 328 325
3 329 326 327
3 257 329 327
3 321 330 331
3 332 333 321
3 334 332 323
3 335 323 336
3 328 336 325
3 337 338 334
3 335 337 334
3 339 335 328
3 340 339 328
3 329 341 340
3 257 342 329
3 333 343 330
3 338 344 333
3 342 345 341
3 257 346 342
3 344 347 343
3 348 344 349
3 350 349 337
3 351 337 352
3 353 352 339
3 341 353 339
3 350 354 348
3 351 355 350
3 353 356 351
3 357 353 345
3 358 345 346
3 257 358 346
3 359 347 360
3 354 360 348
3 361 357 358
3 257 361 358
3 362 363 359
3 364 359 354
3 355 364 354
3 365 355 356
3 366 365 356
3 367 366 357
3 365 368 369
3 370 371 365
3 372 370 367
3 361 372 367
3 257 373 361
3 374 375 362
3 376 362 364
3 369 376 364
3 257 377 373
3 374 378 379
3 380 374 376
3 368 380 376
3 381 368 371
3 382 381 371
3 372 383 382
3 373 384 372
3 385 381 383
3 386 383 384
3 387 384 377
3 257 387 377
3 388 378 389
3 380 388 389
3 390 380 391
3 381 390 391
3 388 392 393
3 394 395 388
3 396 394 390
3 397 390 398
3 399 398 385
3 386 399 385
3 400 386 387
3 257 400 387
3 401 397 399
3 402 401 399
3 400 403 402
3 257 404 400
3 395 405 392
3 406 407 395
3 408 406 396
3 397 408 396
3 409 407 410
3 411 410 408
3 412 408 413
3 414 413 401
3 403 414 401
3 404 415 403
3 257 416 404
3 407 417 405
3 418 414 415
3 419 415 416
3 257 419 416
3 420 417 421
3 422 421 409
3 411 422 409
3 412 423 411
3 414 424 412
3 425 420 422
3 423 425 422
3 426 423 424
3 427 426 424
3 428 427 418
3 429 418 419
3 257 429 419
3 420 430 431
3 432 433 428
3 429 432 428
3 257 434 429
3 435 436 430
3 437 435 425
3 438 437 425
3 426 439 438
3 433 440 426
3 439 441 437
3 442 439 440
3 443 442 440
3 432 444 443
3 434 445 432
3 257 446 434
3 447 448 436
3 441 447 437
3 449 445 446
3 257 449 446
3 450 448 451
3 441 450 451
3 452 441 453
3 442 452 453
3 454 442 444
3 455 444 445
3 456 452 457
3 458 457 454
3 455 458 454
3 459 455 449
3 257 459 449
3 450 460 461
3 462 450 463
3 452 462 463
3 257 464 459
3 465 466 460
3 467 465 462
3 468 467 462
3 456 469 468
3 470 456 458
3 471 470 458
3 459 472 471
3 473 469 474
3 475 474 470
3 472 475 470
3 464 476 472
3 257 477 464
3 478 479 466
3 480 478 467
3 481 467 469
3 257 482 477
3 483 479 484
3 485 484 480
3 481 485 480
3 473 486 481
3 475 487 473
3 488 475 476
3 482 476 477
3 489 490 487
3 491 489 488
3 492 488 482
3 257 492 482
3 483 493 494
3 495 483 485
3 486 495 485
3 490 486 487
3 496 497 493
3 498 496 495
3 499 498 495
3 490 500 499
3 501 502 490
3 503 501 491
3 492 503 491
3 257 504 492
3 505 251 502
3 503 252 505
3 504 254 503
3 257 256 504
3 506 259 497
3 261 506 498
3 500 261 498
3 251 500 502
3 21 269 268
3 21 274 35
3 40 274 287
3 40 302 50
3 61 302 312
3 61 318 507
3 507 317 66
3 81 317 331
3 508 331 330
3 508 343 92
3 509 343 347
3 509 363 107
3 120 363 375
3 120 379 125
3 125 378 135
3 510 378 393
3 140 393 392
3 140 405 161
3 166 405 417
3 166 431 177
3 177 430 182
3 182 436 511
3 511 448 193
3 196 448 461
3 512 461 460
3 512 466 211
3 222 466 479
3 222 494 236
3 236 493 241
3 241 497 249
3 249 259 8
3 513 259 269
3 0 15 1
3 2 1 3
3 4 3 5
3 8 513 9
3 10 9 11
3 12 11 13
3 14 13 15
3 15 13 16
3 15 17 18
3 1 18 19
3 3 19 20
3 9 513 21
3 11 9 22
3 11 23 16
3 21 35 25
3 22 25 26
3 16 23 26
3 17 16 27
3 17 28 29
3 18 29 30
3 19 30 24
3 27 38 31
3 28 31 32
3 29 32 33
3 30 33 34
3 35 40 36
3 25 36 37
3 27 26 37
3 40 50 41
3 36 41 42
3 38 37 42
3 38 43 44
3 32 31 44
3 33 32 45
3 33 46 39
3 44 54 47
3 46 45 47
3 46 48 49
3 50 61 51
3 41 51 52
3 43 42 52
3 44 43 53
3 51 62 55
3 53 52 55
3 54 53 56
3 54 57 58
3 47 58 59
3 49 48 59
3 61 507 62
3 59 58 63
3 60 59 64
3 62 507 66
3 62 67 68
3 56 55 68
3 56 69 70
3 58 57 70
3 67 77 71
3 69 68 71
3 69 72 73
3 63 70 73
3 63 74 75
3 65 64 75
3 66 81 77
3 75 74 78
3 75 79 80
3 81 508 82
3 77 82 83
3 72 71 83
3 72 84 85
3 73 85 78
3 84 83 86
3 84 87 88
3 78 85 88
3 78 89 90
3 79 90 91
3 82 508 92
3 82 93 86
3 91 90 94
3 92 509 96
3 93 96 97
3 86 97 98
3 87 98 99
3 89 88 99
3 89 100 94
3 98 97 101
3 98 102 103
3 100 99 103
3 100 104 105
3 95 94 105
3 96 509 107
3 96 108 101
3 105 115 109
3 107 120 110
3 108 110 111
3 102 101 111
3 102 112 113
3 104 103 113
3 104 114 115
3 112 123 116
3 113 116 117
3 114 117 118
3 109 115 118
3 120 125 121
3 110 121 122
3 112 111 122
3 125 135 126
3 121 126 127
3 123 122 127
3 123 128 129
3 117 116 129
3 117 130 131
3 119 118 131
3 129 139 132
3 130 132 133
3 131 133 134
3 135 510 136
3 126 136 137
3 128 127 137
3 128 138 139
3 136 510 140
3 136 141 142
3 138 137 142
3 138 143 144
3 139 144 145
3 133 132 145
3 134 133 146
3 145 144 148
3 145 149 150
3 147 146 150
3 140 161 152
3 141 152 153
3 143 142 153
3 143 154 148
3 152 162 155
3 154 153 155
3 154 156 157
3 148 157 158
3 149 158 159
3 150 159 160
3 161 166 162
3 159 158 163
3 159 164 165
3 166 177 167
3 162 167 168
3 156 155 168
3 156 169 170
3 157 170 163
3 167 178 171
3 169 168 171
3 170 169 172
3 170 173 174
3 164 163 174
3 165 164 175
3 177 182 178
3 175 174 179
3 175 180 181
3 182 511 183
3 178 183 184
3 172 171 184
3 172 185 186
3 173 186 179
3 185 184 187
3 185 188 189
3 179 186 189
3 180 179 190
3 180 191 192
3 183 511 193
3 183 194 187
3 191 202 195
3 194 193 196
3 194 197 198
3 188 187 198
3 188 199 200
3 189 200 201
3 191 190 201
3 199 209 203
3 200 203 204
3 202 201 204
3 202 205 206
3 196 512 207
3 197 207 208
3 199 198 208
3 207 512 211
3 207 212 213
3 209 208 213
3 209 214 215
3 203 215 216
3 205 204 216
3 205 217 210
3 214 225 218
3 215 218 219
3 216 219 220
3 217 220 221
3 212 211 222
3 212 223 224
3 214 213 224
3 222 236 227
3 223 227 228
3 225 224 228
3 225 229 230
3 219 218 230
3 219 231 232
3 220 232 226
3 230 240 233
3 231 233 234
3 232 234 235
3 236 241 237
3 227 237 238
3 229 228 238
3 229 239 240
3 241 249 242
3 237 242 243
3 239 238 243
3 239 244 245
3 240 245 246
3 233 246 247
3 235 234 247
3 245 0 2
3 246 2 4
3 247 4 6
3 249 8 10
3 242 10 12
3 244 243 12
3 244 14 0
3 250 264 251
3 253 250 252
3 255 253 254
3 258 269 259
3 261 270 258
3 262 270 261
3 264 262 263
3 265 276 262
3 266 265 264
3 253 279 266
3 267 279 253
3 258 271 268
3 270 272 271
3 262 276 272
3 271 286 274
3 275 286 271
3 276 277 275
3 265 282 277
3 278 282 265
3 279 280 278
3 267 273 280
3 281 289 277
3 283 281 282
3 280 284 283
3 273 285 284
3 286 288 287
3 275 293 288
3 289 293 275
3 291 302 287
3 292 291 288
3 289 294 292
3 281 295 294
3 283 297 295
3 296 297 283
3 290 296 284
3 297 307 298
3 299 307 297
3 300 299 296
3 301 312 302
3 303 301 291
3 294 305 303
3 298 305 294
3 304 311 301
3 305 306 304
3 298 308 306
3 307 314 308
3 309 314 307
3 300 310 309
3 311 318 312
3 309 315 313
3 310 316 315
3 311 322 317
3 319 322 311
3 306 324 319
3 320 324 306
3 314 313 320
3 319 332 321
3 323 332 319
3 320 336 323
3 325 336 320
3 326 325 313
3 327 326 315
3 321 331 317
3 326 340 328
3 329 340 326
3 321 333 330
3 332 338 333
3 334 338 332
3 335 334 323
3 328 335 336
3 337 349 338
3 335 352 337
3 339 352 335
3 340 341 339
3 329 342 341
3 333 344 343
3 338 349 344
3 342 346 345
3 344 360 347
3 348 360 344
3 350 348 349
3 351 350 337
3 353 351 352
3 341 345 353
3 350 355 354
3 351 356 355
3 353 366 356
3 357 366 353
3 358 357 345
3 359 363 347
3 354 359 360
3 361 367 357
3 362 375 363
3 364 362 359
3 355 369 364
3 365 369 355
3 366 370 365
3 367 370 366
3 365 371 368
3 370 382 371
3 372 382 370
3 361 373 372
3 374 379 375
3 376 374 362
3 369 368 376
3 374 389 378
3 380 389 374
3 368 391 380
3 381 391 368
3 382 383 381
3 372 384 383
3 373 377 384
3 385 398 381
3 386 385 383
3 387 386 384
3 388 393 378
3 380 394 388
3 390 394 380
3 381 398 390
3 388 395 392
3 394 406 395
3 396 406 394
3 397 396 390
3 399 397 398
3 386 402 399
3 400 402 386
3 401 413 397
3 402 403 401
3 400 404 403
3 395 407 405
3 406 410 407
3 408 410 406
3 397 413 408
3 409 421 407
3 411 409 410
3 412 411 408
3 414 412 413
3 403 415 414
3 404 416 415
3 407 421 417
3 418 427 414
3 419 418 415
3 420 431 417
3 422 420 421
3 411 423 422
3 412 424 423
3 414 427 424
3 425 435 420
3 423 438 425
3 426 438 423
3 427 433 426
3 428 433 427
3 429 428 418
3 420 435 430
3 432 443 433
3 429 434 432
3 435 447 436
3 437 447 435
3 438 439 437
3 426 440 439
3 433 443 440
3 439 453 441
3 442 453 439
3 443 444 442
3 432 445 444
3 434 446 445
3 447 451 448
3 441 451 447
3 449 455 445
3 450 461 448
3 441 463 450
3 452 463 441
3 442 457 452
3 454 457 442
3 455 454 444
3 456 468 452
3 458 456 457
3 455 471 458
3 459 471 455
3 450 465 460
3 462 465 450
3 452 468 462
3 465 478 466
3 467 478 465
3 468 469 467
3 456 474 469
3 470 474 456
3 471 472 470
3 459 464 472
3 473 481 469
3 475 473 474
3 472 476 475
3 464 477 476
3 478 484 479
3 480 484 478
3 481 480 467
3 483 494 479
3 485 483 484
3 481 486 485
3 473 487 486
3 475 489 487
3 488 489 475
3 482 488 476
3 489 501 490
3 491 501 489
3 492 491 488
3 483 496 493
3 495 496 483
3 486 499 495
3 490 499 486
3 496 506 497
3 498 506 496
3 499 500 498
3 490 502 500
3 501 505 502
3 503 505 501
3 492 504 503
3 505 252 251
3 503 254 252
3 504 256 254
3 506 260 259
3 261 260 506
3 500 263 261
3 251 263 500
3 21 513 269
3 21 268 274
3 40 35 274
3 40 287 302
3 61 50 302
3 61 312 318
3 507 318 317
3 81 66 317
3 508 81 331
3 508 330 343
3 509 92 343
3 509 347 363
3 120 107 363
3 120 375 379
3 125 379 378
3 510 135 378
3 140 510 393
3 140 392 405
3 166 161 405
3 166 417 431
3 177 431 430
3 182 430 436
3 511 436 448
3 196 193 448
3 512 196 461
3 512 460 466
3 222 211 466
3 222 479 494
3 236 494 493
3 241 493 497
3 249 497 259
3 513 8 259
