ply
format ascii 1.0
comment Created by Blender 2.78 (sub 0) - www.blender.org, source file: ''
element vertex 8
property float x
property float y
property float z
element face 12
property list uchar uint vertex_indices
end_header
0.000000 1.000000 -1.000000
0.000000 0.000000 1.000000
0.866025 -0.500000 -1.000000
-0.866025 -0.500000 -1.000000
0.000000 0.910559 -1.044719
0.788566 -0.455281 -1.044719
0.000000 0.000000 0.900000
-0.788566 -0.455281 -1.044719
3 0 1 2
3 2 1 3
3 3 1 0
3 4 5 6
3 5 7 6
3 7 4 6
3 2 4 0
3 3 5 2
3 3 4 7
3 2 5 4
3 3 7 5
3 3 0 4
