ply
format ascii 1.0
comment Created by Blender 2.78 (sub 0) - www.blender.org, source file: ''
element vertex 12
property float x
property float y
property float z
element face 20
property list uchar uint vertex_indices
end_header
0.000000 0.500000 1.000000
0.866025 -0.500000 -1.000000
0.000000 1.000000 -1.000000
0.433013 -0.250000 1.000000
-0.866025 -0.500000 -1.000000
-0.433013 -0.250000 1.000000
0.000000 0.911515 -0.953417
0.348998 -0.201494 0.975747
0.000000 0.402988 0.975747
-0.789397 -0.455757 -0.953417
0.789396 -0.455757 -0.953417
-0.348998 -0.201494 0.975747
3 0 1 2
3 3 4 1
3 5 2 4
3 2 1 4
3 6 7 8
3 9 7 10
3 6 11 9
3 6 9 10
3 0 7 3
3 3 11 5
3 0 11 8
3 0 3 1
3 3 5 4
3 5 0 2
3 6 10 7
3 9 11 7
3 6 8 11
3 0 8 7
3 3 7 11
3 0 5 11
