ply
format ascii 1.0
comment Created by Blender 2.78 (sub 0) - www.blender.org, source file: ''
element vertex 576
property float x
property float y
property float z
element face 1152
property list uchar uint vertex_indices
end_header
1.350000 0.000000 0.000000
1.291961 0.170090 0.175000
1.303109 0.000000 0.175000
1.164948 0.153368 0.303109
1.175000 0.000000 0.303109
1.000000 0.000000 0.350000
0.817942 0.107684 0.303109
0.825000 0.000000 0.303109
0.690929 0.090963 0.175000
0.696891 0.000000 0.175000
0.650000 0.000000 0.000000
0.644439 0.084842 0.000000
0.696891 0.000000 -0.175000
0.690929 0.090963 -0.175000
0.825000 0.000000 -0.303109
0.817942 0.107684 -0.303109
1.000000 0.000000 -0.350000
1.164948 0.153368 -0.303109
1.175000 0.000000 -0.303109
1.303109 0.000000 -0.175000
1.291961 0.170090 -0.175000
1.338451 0.176210 0.000000
1.304000 0.349406 0.000000
1.258707 0.337269 0.175000
1.134963 0.304112 0.303109
0.991445 0.130526 0.350000
0.965926 0.258819 0.350000
0.673145 0.180369 0.175000
0.627852 0.168232 0.000000
0.673145 0.180369 -0.175000
0.796889 0.213526 -0.303109
0.991445 0.130526 -0.350000
0.965926 0.258819 -0.350000
1.134963 0.304112 -0.303109
1.258707 0.337269 -0.175000
1.203916 0.498678 0.175000
1.085558 0.449653 0.303109
0.923880 0.382683 0.350000
0.796889 0.213526 0.303109
0.643844 0.266689 0.175000
0.600522 0.248744 0.000000
0.643844 0.266689 -0.175000
0.762201 0.315714 -0.303109
0.923880 0.382683 -0.350000
1.203916 0.498678 -0.175000
1.247237 0.516623 0.000000
1.128525 0.651555 0.175000
1.017580 0.587500 0.303109
0.866025 0.500000 0.350000
0.762201 0.315714 0.303109
0.714471 0.412500 0.303109
0.603525 0.348446 0.175000
0.562916 0.325000 0.000000
0.714471 0.412500 -0.303109
0.866025 0.500000 -0.350000
1.017580 0.587500 -0.303109
1.085558 0.449653 -0.303109
1.128525 0.651555 -0.175000
1.169134 0.675000 0.000000
1.033826 0.793282 0.175000
0.932190 0.715295 0.303109
0.654517 0.502228 0.303109
0.515680 0.395695 0.000000
0.603525 0.348446 -0.175000
0.552881 0.424240 -0.175000
0.654517 0.502228 -0.303109
0.793353 0.608761 -0.350000
1.033826 0.793282 -0.175000
1.071027 0.821828 0.000000
0.954594 0.954594 0.000000
0.921437 0.921437 0.175000
0.830850 0.830850 0.303109
0.793353 0.608761 0.350000
0.583363 0.583363 0.303109
0.552881 0.424240 0.175000
0.492776 0.492776 0.175000
0.459619 0.459619 0.000000
0.492776 0.492776 -0.175000
0.583363 0.583363 -0.303109
0.830850 0.830850 -0.303109
0.932190 0.715295 -0.303109
0.921437 0.921437 -0.175000
0.793283 1.033826 0.175000
0.608762 0.793353 0.350000
0.707107 0.707107 0.350000
0.502228 0.654516 0.303109
0.424240 0.552881 0.175000
0.395695 0.515680 0.000000
0.424240 0.552881 -0.175000
0.502228 0.654516 -0.303109
0.707107 0.707107 -0.350000
0.608762 0.793353 -0.350000
0.715295 0.932190 -0.303109
0.793283 1.033826 -0.175000
0.675000 1.169134 0.000000
0.821828 1.071027 0.000000
0.651554 1.128525 0.175000
0.715295 0.932190 0.303109
0.587500 1.017580 0.303109
0.412500 0.714471 0.303109
0.325000 0.562916 0.000000
0.348446 0.603525 -0.175000
0.412500 0.714471 -0.303109
0.500000 0.866025 -0.350000
0.587500 1.017580 -0.303109
0.516623 1.247237 0.000000
0.498678 1.203915 0.175000
0.382684 0.923879 0.350000
0.500000 0.866025 0.350000
0.315714 0.762200 0.303109
0.348446 0.603525 0.175000
0.266689 0.643843 0.175000
0.266689 0.643843 -0.175000
0.315714 0.762200 -0.303109
0.382684 0.923879 -0.350000
0.498678 1.203915 -0.175000
0.651554 1.128525 -0.175000
0.349406 1.304000 0.000000
0.304112 1.134963 0.303109
0.449653 1.085558 0.303109
0.258819 0.965926 0.350000
0.180369 0.673145 0.175000
0.248744 0.600522 0.000000
0.168232 0.627852 0.000000
0.180369 0.673145 -0.175000
0.213526 0.796889 -0.303109
0.258819 0.965926 -0.350000
0.449653 1.085558 -0.303109
0.304112 1.134963 -0.303109
0.170090 1.291961 0.175000
0.337269 1.258707 0.175000
0.153368 1.164948 0.303109
0.130526 0.991445 0.350000
0.213526 0.796889 0.303109
0.090962 0.690929 0.175000
0.084842 0.644439 0.000000
0.090962 0.690929 -0.175000
0.107684 0.817942 -0.303109
0.130526 0.991445 -0.350000
0.153368 1.164948 -0.303109
0.337269 1.258707 -0.175000
0.170090 1.291961 -0.175000
0.176210 1.338451 0.000000
0.000000 1.303109 0.175000
0.000000 1.175000 0.303109
0.000000 1.000000 0.350000
0.107684 0.817942 0.303109
0.000000 0.825000 0.303109
0.000000 0.696891 0.175000
0.000000 0.650000 0.000000
0.000000 0.825000 -0.303109
0.000000 1.000000 -0.350000
0.000000 1.303109 -0.175000
-0.176211 1.338451 0.000000
0.000000 1.350000 0.000000
-0.170090 1.291961 0.175000
-0.153368 1.164948 0.303109
-0.130526 0.991445 0.350000
-0.107684 0.817942 0.303109
-0.090963 0.690929 0.175000
-0.084842 0.644439 0.000000
0.000000 0.696891 -0.175000
-0.090963 0.690929 -0.175000
-0.130526 0.991445 -0.350000
0.000000 1.175000 -0.303109
-0.153368 1.164948 -0.303109
-0.349406 1.304000 0.000000
-0.337269 1.258707 0.175000
-0.258819 0.965926 0.350000
-0.213526 0.796889 0.303109
-0.168232 0.627852 0.000000
-0.180369 0.673145 -0.175000
-0.107684 0.817942 -0.303109
-0.213526 0.796889 -0.303109
-0.304112 1.134963 -0.303109
-0.337269 1.258707 -0.175000
-0.170090 1.291961 -0.175000
-0.516623 1.247237 0.000000
-0.498678 1.203916 0.175000
-0.304112 1.134963 0.303109
-0.449653 1.085558 0.303109
-0.382684 0.923880 0.350000
-0.315714 0.762201 0.303109
-0.180369 0.673145 0.175000
-0.266689 0.643843 0.175000
-0.248744 0.600522 0.000000
-0.315714 0.762201 -0.303109
-0.382684 0.923880 -0.350000
-0.258819 0.965926 -0.350000
-0.449653 1.085558 -0.303109
-0.498678 1.203916 -0.175000
-0.675000 1.169134 0.000000
-0.651554 1.128525 0.175000
-0.587500 1.017580 0.303109
-0.412500 0.714471 0.303109
-0.348445 0.603525 0.175000
-0.348445 0.603525 -0.175000
-0.266689 0.643843 -0.175000
-0.412500 0.714471 -0.303109
-0.500000 0.866026 -0.350000
-0.651554 1.128525 -0.175000
-0.793283 1.033826 0.175000
-0.608761 0.793353 0.350000
-0.500000 0.866026 0.350000
-0.424240 0.552881 0.175000
-0.325000 0.562917 0.000000
-0.395695 0.515680 0.000000
-0.424240 0.552881 -0.175000
-0.502228 0.654516 -0.303109
-0.608761 0.793353 -0.350000
-0.587500 1.017580 -0.303109
-0.793283 1.033826 -0.175000
-0.954594 0.954594 0.000000
-0.821828 1.071027 0.000000
-0.921437 0.921437 0.175000
-0.715295 0.932190 0.303109
-0.830851 0.830850 0.303109
-0.707107 0.707107 0.350000
-0.502228 0.654516 0.303109
-0.492777 0.492776 0.175000
-0.459619 0.459619 0.000000
-0.492777 0.492776 -0.175000
-0.583363 0.583363 -0.303109
-0.707107 0.707107 -0.350000
-0.715295 0.932190 -0.303109
-0.921437 0.921437 -0.175000
-1.071027 0.821828 0.000000
-0.932190 0.715295 0.303109
-0.793353 0.608761 0.350000
-0.583363 0.583363 0.303109
-0.552881 0.424240 0.175000
-0.515680 0.395695 0.000000
-0.552881 0.424240 -0.175000
-0.654516 0.502228 -0.303109
-0.932190 0.715295 -0.303109
-0.830851 0.830850 -0.303109
-1.169134 0.675000 0.000000
-1.033826 0.793283 0.175000
-1.017580 0.587500 0.303109
-0.714471 0.412500 0.303109
-0.654516 0.502228 0.303109
-0.603525 0.348446 0.175000
-0.562916 0.325000 0.000000
-0.603525 0.348446 -0.175000
-0.714471 0.412500 -0.303109
-0.793353 0.608761 -0.350000
-0.866025 0.500000 -0.350000
-1.017580 0.587500 -0.303109
-1.033826 0.793283 -0.175000
-1.247237 0.516623 0.000000
-1.128525 0.651555 0.175000
-1.203915 0.498678 0.175000
-1.085558 0.449653 0.303109
-0.866025 0.500000 0.350000
-0.923879 0.382683 0.350000
-0.762201 0.315714 0.303109
-0.643843 0.266689 0.175000
-0.600522 0.248744 0.000000
-0.762201 0.315714 -0.303109
-0.923879 0.382683 -0.350000
-1.085558 0.449653 -0.303109
-1.203915 0.498678 -0.175000
-1.128525 0.651555 -0.175000
-1.258707 0.337269 0.175000
-1.134963 0.304112 0.303109
-0.965926 0.258819 0.350000
-0.796889 0.213526 0.303109
-0.673145 0.180369 0.175000
-0.627852 0.168232 0.000000
-0.643843 0.266689 -0.175000
-0.673145 0.180369 -0.175000
-0.796889 0.213526 -0.303109
-0.965926 0.258819 -0.350000
-1.134963 0.304112 -0.303109
-1.258707 0.337269 -0.175000
-1.304000 0.349406 0.000000
-1.291961 0.170090 0.175000
-1.164948 0.153368 0.303109
-0.991445 0.130526 0.350000
-0.690929 0.090963 0.175000
-0.644439 0.084842 0.000000
-0.690929 0.090963 -0.175000
-0.817942 0.107684 -0.303109
-0.991445 0.130526 -0.350000
-1.164948 0.153368 -0.303109
-1.338451 0.176211 0.000000
-1.350000 0.000000 0.000000
-1.303109 0.000000 0.175000
-1.175000 0.000000 0.303109
-1.000000 0.000000 0.350000
-0.817942 0.107684 0.303109
-0.825000 0.000000 0.303109
-0.650000 0.000000 0.000000
-0.825000 0.000000 -0.303109
-1.000000 0.000000 -0.350000
-1.175000 0.000000 -0.303109
-1.303109 0.000000 -0.175000
-1.291961 0.170090 -0.175000
-1.291961 -0.170090 0.175000
-1.164948 -0.153368 0.303109
-0.991445 -0.130526 0.350000
-0.690929 -0.090963 0.175000
-0.696891 0.000000 0.175000
-0.644439 -0.084842 0.000000
-0.696891 0.000000 -0.175000
-0.690929 -0.090963 -0.175000
-0.817942 -0.107684 -0.303109
-0.991445 -0.130526 -0.350000
-1.164948 -0.153368 -0.303109
-1.291961 -0.170090 -0.175000
-1.304000 -0.349406 0.000000
-1.338451 -0.176211 0.000000
-1.258707 -0.337269 0.175000
-1.134963 -0.304112 0.303109
-0.796889 -0.213526 0.303109
-0.817942 -0.107684 0.303109
-0.673145 -0.180369 0.175000
-0.673145 -0.180369 -0.175000
-0.796889 -0.213526 -0.303109
-0.965926 -0.258819 -0.350000
-1.258707 -0.337269 -0.175000
-1.247238 -0.516622 0.000000
-1.203916 -0.498678 0.175000
-1.085559 -0.449653 0.303109
-0.965926 -0.258819 0.350000
-0.923880 -0.382683 0.350000
-0.643844 -0.266688 0.175000
-0.627852 -0.168232 0.000000
-0.600522 -0.248744 0.000000
-0.643844 -0.266688 -0.175000
-0.762201 -0.315714 -0.303109
-1.085559 -0.449653 -0.303109
-1.134963 -0.304112 -0.303109
-1.203916 -0.498678 -0.175000
-1.169134 -0.675000 0.000000
-1.128526 -0.651554 0.175000
-0.866026 -0.500000 0.350000
-0.714471 -0.412500 0.303109
-0.762201 -0.315714 0.303109
-0.603526 -0.348445 0.175000
-0.603526 -0.348445 -0.175000
-0.714471 -0.412500 -0.303109
-0.923880 -0.382683 -0.350000
-0.866026 -0.500000 -0.350000
-1.128526 -0.651554 -0.175000
-1.071027 -0.821828 0.000000
-1.033826 -0.793283 0.175000
-1.017580 -0.587500 0.303109
-0.793353 -0.608761 0.350000
-0.552881 -0.424240 0.175000
-0.562917 -0.325000 0.000000
-0.552881 -0.424240 -0.175000
-0.654516 -0.502228 -0.303109
-0.793353 -0.608761 -0.350000
-1.017580 -0.587500 -0.303109
-0.932190 -0.715295 -0.303109
-1.033826 -0.793283 -0.175000
-0.921437 -0.921437 0.175000
-0.932190 -0.715295 0.303109
-0.830851 -0.830850 0.303109
-0.707107 -0.707107 0.350000
-0.654516 -0.502228 0.303109
-0.583363 -0.583363 0.303109
-0.492777 -0.492776 0.175000
-0.515680 -0.395695 0.000000
-0.459619 -0.459619 0.000000
-0.583363 -0.583363 -0.303109
-0.707107 -0.707107 -0.350000
-0.921437 -0.921437 -0.175000
-0.954594 -0.954594 0.000000
-0.793283 -1.033825 0.175000
-0.715295 -0.932190 0.303109
-0.608762 -0.793353 0.350000
-0.502229 -0.654516 0.303109
-0.424241 -0.552881 0.175000
-0.395695 -0.515679 0.000000
-0.492777 -0.492776 -0.175000
-0.424241 -0.552881 -0.175000
-0.502229 -0.654516 -0.303109
-0.608762 -0.793353 -0.350000
-0.830851 -0.830850 -0.303109
-0.715295 -0.932190 -0.303109
-0.793283 -1.033825 -0.175000
-0.821828 -1.071027 0.000000
-0.651554 -1.128525 0.175000
-0.587500 -1.017580 0.303109
-0.500000 -0.866026 0.350000
-0.412500 -0.714471 0.303109
-0.325000 -0.562917 0.000000
-0.348445 -0.603525 -0.175000
-0.412500 -0.714471 -0.303109
-0.500000 -0.866026 -0.350000
-0.651554 -1.128525 -0.175000
-0.675000 -1.169134 0.000000
-0.498678 -1.203916 0.175000
-0.449653 -1.085558 0.303109
-0.382684 -0.923880 0.350000
-0.315714 -0.762201 0.303109
-0.348445 -0.603525 0.175000
-0.248744 -0.600522 0.000000
-0.266689 -0.643843 -0.175000
-0.315714 -0.762201 -0.303109
-0.449653 -1.085558 -0.303109
-0.587500 -1.017580 -0.303109
-0.498678 -1.203916 -0.175000
-0.349406 -1.304000 0.000000
-0.516623 -1.247237 0.000000
-0.337270 -1.258707 0.175000
-0.258819 -0.965926 0.350000
-0.213526 -0.796889 0.303109
-0.180369 -0.673145 0.175000
-0.266689 -0.643843 0.175000
-0.168233 -0.627852 0.000000
-0.180369 -0.673145 -0.175000
-0.213526 -0.796889 -0.303109
-0.382684 -0.923880 -0.350000
-0.304113 -1.134963 -0.303109
-0.337270 -1.258707 -0.175000
-0.170091 -1.291960 0.175000
-0.304113 -1.134963 0.303109
-0.153369 -1.164948 0.303109
-0.130527 -0.991445 0.350000
-0.107685 -0.817942 0.303109
-0.090963 -0.690929 0.175000
-0.090963 -0.690929 -0.175000
-0.107685 -0.817942 -0.303109
-0.130527 -0.991445 -0.350000
-0.258819 -0.965926 -0.350000
-0.153369 -1.164948 -0.303109
-0.170091 -1.291960 -0.175000
-0.176211 -1.338450 0.000000
0.000000 -1.303109 0.175000
0.000000 -1.175000 0.303109
0.000000 -0.825000 0.303109
0.000000 -0.696891 0.175000
0.000000 -0.650000 0.000000
-0.084842 -0.644439 0.000000
0.000000 -0.696891 -0.175000
0.000000 -0.825000 -0.303109
0.000000 -1.175000 -0.303109
0.000000 -1.303109 -0.175000
0.176210 -1.338451 0.000000
0.000000 -1.350000 0.000000
0.153368 -1.164948 0.303109
0.000000 -1.000000 0.350000
0.130526 -0.991445 0.350000
0.090962 -0.690929 0.175000
0.090962 -0.690929 -0.175000
0.107684 -0.817942 -0.303109
0.000000 -1.000000 -0.350000
0.153368 -1.164948 -0.303109
0.349405 -1.304000 0.000000
0.170090 -1.291961 0.175000
0.337269 -1.258707 0.175000
0.304112 -1.134963 0.303109
0.258819 -0.965926 0.350000
0.107684 -0.817942 0.303109
0.213525 -0.796889 0.303109
0.180368 -0.673145 0.175000
0.084842 -0.644439 0.000000
0.168232 -0.627852 0.000000
0.213525 -0.796889 -0.303109
0.258819 -0.965926 -0.350000
0.130526 -0.991445 -0.350000
0.304112 -1.134963 -0.303109
0.337269 -1.258707 -0.175000
0.170090 -1.291961 -0.175000
0.516623 -1.247237 0.000000
0.449653 -1.085558 0.303109
0.382684 -0.923879 0.350000
0.315714 -0.762200 0.303109
0.266689 -0.643843 0.175000
0.248744 -0.600522 0.000000
0.180368 -0.673145 -0.175000
0.315714 -0.762200 -0.303109
0.449653 -1.085558 -0.303109
0.498678 -1.203915 -0.175000
0.651554 -1.128525 0.175000
0.498678 -1.203915 0.175000
0.587500 -1.017580 0.303109
0.412500 -0.714471 0.303109
0.348446 -0.603525 0.175000
0.348446 -0.603525 -0.175000
0.266689 -0.643843 -0.175000
0.412500 -0.714471 -0.303109
0.382684 -0.923879 -0.350000
0.587500 -1.017580 -0.303109
0.651554 -1.128525 -0.175000
0.675000 -1.169134 0.000000
0.793282 -1.033826 0.175000
0.715294 -0.932190 0.303109
0.608761 -0.793354 0.350000
0.500000 -0.866025 0.350000
0.502228 -0.654517 0.303109
0.424240 -0.552881 0.175000
0.325000 -0.562916 0.000000
0.395695 -0.515680 0.000000
0.424240 -0.552881 -0.175000
0.502228 -0.654517 -0.303109
0.500000 -0.866025 -0.350000
0.608761 -0.793354 -0.350000
0.715294 -0.932190 -0.303109
0.793282 -1.033826 -0.175000
0.821828 -1.071027 0.000000
0.921437 -0.921438 0.175000
0.830850 -0.830851 0.303109
0.707106 -0.707107 0.350000
0.583363 -0.583363 0.303109
0.492776 -0.492777 0.175000
0.459619 -0.459620 0.000000
0.492776 -0.492777 -0.175000
0.583363 -0.583363 -0.303109
0.707106 -0.707107 -0.350000
0.830850 -0.830851 -0.303109
0.921437 -0.921438 -0.175000
1.071027 -0.821828 0.000000
0.954594 -0.954595 0.000000
1.033826 -0.793282 0.175000
0.932190 -0.715295 0.303109
0.654517 -0.502228 0.303109
0.552881 -0.424240 0.175000
0.552881 -0.424240 -0.175000
0.654517 -0.502228 -0.303109
0.932190 -0.715295 -0.303109
1.033826 -0.793282 -0.175000
1.128525 -0.651555 0.175000
1.017580 -0.587500 0.303109
0.793353 -0.608761 0.350000
0.866025 -0.500000 0.350000
0.714471 -0.412500 0.303109
0.603525 -0.348446 0.175000
0.515680 -0.395695 0.000000
0.603525 -0.348446 -0.175000
0.714471 -0.412500 -0.303109
0.866025 -0.500000 -0.350000
0.793353 -0.608761 -0.350000
1.017580 -0.587500 -0.303109
1.169134 -0.675000 0.000000
1.247237 -0.516623 0.000000
1.203915 -0.498679 0.175000
0.923879 -0.382684 0.350000
0.643843 -0.266689 0.175000
0.600522 -0.248744 0.000000
0.562916 -0.325000 0.000000
0.643843 -0.266689 -0.175000
0.762200 -0.315714 -0.303109
0.923879 -0.382684 -0.350000
1.203915 -0.498679 -0.175000
1.128525 -0.651555 -0.175000
1.304000 -0.349405 0.000000
1.258707 -0.337269 0.175000
1.085558 -0.449653 0.303109
1.134963 -0.304112 0.303109
0.796889 -0.213525 0.303109
0.762200 -0.315714 0.303109
0.673145 -0.180369 0.175000
0.673145 -0.180369 -0.175000
0.796889 -0.213525 -0.303109
1.134963 -0.304112 -0.303109
1.085558 -0.449653 -0.303109
1.258707 -0.337269 -0.175000
1.338451 -0.176210 0.000000
1.164948 -0.153368 0.303109
0.965926 -0.258819 0.350000
0.991445 -0.130526 0.350000
0.690929 -0.090963 0.175000
0.627852 -0.168232 0.000000
0.644439 -0.084842 0.000000
0.690929 -0.090963 -0.175000
0.817942 -0.107684 -0.303109
0.965926 -0.258819 -0.350000
1.164948 -0.153368 -0.303109
1.291961 -0.170090 -0.175000
1.291961 -0.170090 0.175000
0.817942 -0.107684 0.303109
0.991445 -0.130526 -0.350000
3 0 1 2
3 2 3 4
3 3 5 4
3 5 6 7
3 7 8 9
3 8 10 9
3 11 12 10
3 13 14 12
3 15 16 14
3 16 17 18
3 17 19 18
3 0 20 21
3 22 1 21
3 23 3 1
3 24 25 3
3 26 6 25
3 6 27 8
3 27 11 8
3 28 13 11
3 29 15 13
3 30 31 15
3 32 17 31
3 33 20 17
3 34 21 20
3 22 35 23
3 35 24 23
3 36 26 24
3 37 38 26
3 38 39 27
3 39 28 27
3 40 29 28
3 41 30 29
3 42 32 30
3 43 33 32
3 33 44 34
3 44 22 34
3 45 46 35
3 35 47 36
3 47 37 36
3 48 49 37
3 50 39 49
3 51 40 39
3 52 41 40
3 41 53 42
3 42 54 43
3 43 55 56
3 55 44 56
3 57 45 44
3 58 59 46
3 59 47 46
3 60 48 47
3 48 61 50
3 61 51 50
3 51 62 52
3 62 63 52
3 64 53 63
3 65 54 53
3 66 55 54
3 55 67 57
3 57 68 58
3 69 59 68
3 70 60 59
3 71 72 60
3 72 73 61
3 73 74 61
3 75 62 74
3 76 64 62
3 77 65 64
3 78 66 65
3 66 79 80
3 80 81 67
3 81 68 67
3 69 82 70
3 82 71 70
3 71 83 84
3 83 73 84
3 85 75 73
3 86 76 75
3 87 77 76
3 88 78 77
3 89 90 78
3 91 79 90
3 92 81 79
3 93 69 81
3 94 82 95
3 96 97 82
3 98 83 97
3 83 99 85
3 99 86 85
3 86 100 87
3 100 88 87
3 101 89 88
3 102 91 89
3 103 92 91
3 104 93 92
3 93 94 95
3 105 96 94
3 106 98 96
3 98 107 108
3 107 99 108
3 109 110 99
3 111 100 110
3 100 112 101
3 101 113 102
3 102 114 103
3 114 104 103
3 104 115 116
3 116 105 94
3 117 106 105
3 106 118 119
3 118 107 119
3 120 109 107
3 109 121 111
3 121 122 111
3 123 112 122
3 124 113 112
3 125 114 113
3 126 127 114
3 128 115 127
3 115 117 105
3 117 129 130
3 130 131 118
3 118 132 120
3 132 133 120
3 133 134 121
3 121 135 123
3 135 124 123
3 136 125 124
3 137 126 125
3 138 128 126
3 139 140 128
3 141 117 140
3 142 143 129
3 143 131 129
3 144 132 131
3 145 146 132
3 147 134 146
3 148 135 134
3 149 136 135
3 136 150 137
3 150 138 137
3 151 139 138
3 139 152 141
3 152 142 141
3 153 143 154
3 155 144 143
3 156 145 144
3 157 147 145
3 158 148 147
3 159 149 148
3 160 161 149
3 162 150 161
3 150 163 151
3 163 164 151
3 165 152 164
3 152 153 154
3 166 155 153
3 167 156 155
3 156 168 157
3 157 169 158
3 169 159 158
3 159 170 160
3 170 162 160
3 171 172 162
3 173 163 172
3 163 174 165
3 165 175 176
3 175 153 176
3 177 167 166
3 178 179 167
3 180 168 179
3 181 169 168
3 182 183 169
3 184 170 183
3 185 171 170
3 171 186 173
3 173 187 188
3 187 174 188
3 189 175 174
3 190 166 175
3 191 178 177
3 192 180 178
3 193 181 180
3 181 194 182
3 194 184 182
3 195 185 184
3 185 196 197
3 196 186 197
3 198 187 186
3 199 189 187
3 189 200 190
3 190 191 177
3 191 201 192
3 201 193 192
3 193 202 203
3 202 194 203
3 194 204 195
3 204 205 195
3 206 196 205
3 207 198 196
3 208 199 198
3 209 210 199
3 210 211 200
3 211 191 200
3 212 201 213
3 214 215 201
3 216 202 215
3 217 218 202
3 218 219 204
3 219 206 204
3 220 207 206
3 221 208 207
3 222 209 208
3 223 224 209
3 224 225 211
3 225 213 211
3 226 214 212
3 214 227 216
3 227 217 216
3 228 229 217
3 229 230 219
3 230 220 219
3 231 221 220
3 232 222 221
3 233 223 222
3 223 234 235
3 234 225 235
3 225 226 212
3 236 237 226
3 237 238 227
3 238 228 227
3 228 239 240
3 239 230 240
3 241 231 230
3 242 232 231
3 243 233 232
3 244 245 233
3 246 234 245
3 247 248 234
3 248 236 226
3 249 250 236
3 251 238 250
3 252 253 238
3 254 239 253
3 255 241 239
3 256 242 241
3 257 243 242
3 243 258 244
3 244 259 246
3 246 260 247
3 247 261 262
3 262 249 236
3 249 263 251
3 251 264 252
3 252 265 254
3 254 266 255
3 255 267 256
3 256 268 257
3 268 269 257
3 270 258 269
3 271 259 258
3 272 260 259
3 273 261 260
3 274 249 261
3 275 276 263
3 276 264 263
3 277 265 264
3 278 266 265
3 266 279 267
3 267 280 268
3 280 270 268
3 281 271 270
3 282 272 271
3 283 273 272
3 284 274 273
3 274 285 275
3 286 276 285
3 287 277 276
3 288 278 277
3 289 290 278
3 291 279 290
3 279 292 280
3 292 281 280
3 281 293 282
3 282 294 283
3 283 295 284
3 284 296 297
3 297 286 285
3 286 298 287
3 287 299 288
3 288 300 289
3 300 291 289
3 291 301 302
3 301 292 302
3 303 304 292
3 305 293 304
3 306 294 293
3 307 295 294
3 308 296 295
3 309 286 296
3 310 298 311
3 312 299 298
3 313 300 299
3 300 314 315
3 314 301 315
3 316 303 301
3 303 317 305
3 305 318 306
3 318 307 306
3 319 308 307
3 308 320 309
3 320 311 309
3 321 312 310
3 322 313 312
3 323 324 313
3 325 314 324
3 314 326 316
3 326 327 316
3 328 317 327
3 329 318 317
3 330 319 318
3 319 331 332
3 332 333 320
3 320 321 310
3 334 322 321
3 335 323 322
3 323 336 325
3 325 337 338
3 338 339 326
3 339 328 326
3 328 340 329
3 340 330 329
3 341 342 330
3 343 331 342
3 331 344 333
3 333 334 321
3 345 335 334
3 346 347 335
3 347 348 336
3 348 337 336
3 337 349 339
3 349 350 339
3 350 351 340
3 351 341 340
3 352 343 341
3 353 354 343
3 355 344 354
3 356 334 344
3 345 357 346
3 357 358 346
3 359 348 358
3 360 361 348
3 362 349 361
3 363 364 349
3 365 351 364
3 351 366 352
3 352 367 353
3 367 355 353
3 355 368 356
3 368 345 356
3 369 370 357
3 357 371 359
3 359 372 360
3 360 373 362
3 362 374 363
3 374 365 363
3 375 376 365
3 377 366 376
3 378 367 366
3 379 380 367
3 381 368 380
3 382 369 368
3 383 384 370
3 384 371 370
3 385 372 371
3 386 373 372
3 387 374 373
3 374 388 375
3 375 389 377
3 377 390 378
3 378 391 379
3 391 381 379
3 381 392 382
3 392 383 382
3 393 394 384
3 384 395 385
3 395 386 385
3 396 387 386
3 397 398 387
3 398 399 388
3 399 389 388
3 400 390 389
3 401 391 390
3 391 402 403
3 402 392 403
3 404 393 392
3 405 394 406
3 407 395 394
3 395 408 396
3 396 409 397
3 397 410 411
3 410 399 411
3 412 400 399
3 413 401 400
3 414 415 401
3 415 416 402
3 416 404 402
3 417 406 404
3 405 418 407
3 418 419 407
3 420 408 419
3 421 409 408
3 422 410 409
3 423 412 410
3 412 424 413
3 413 425 414
3 414 426 427
3 427 428 416
3 416 429 417
3 417 430 405
3 430 431 418
3 431 420 418
3 432 421 420
3 421 433 422
3 422 434 423
3 423 435 436
3 435 424 436
3 437 425 424
3 438 426 425
3 426 439 428
3 439 429 428
3 440 430 429
3 441 431 442
3 431 443 432
3 443 444 432
3 445 433 444
3 433 446 434
3 446 435 434
3 435 447 437
3 447 438 437
3 448 449 438
3 449 450 439
3 450 440 439
3 440 441 442
3 451 452 441
3 453 443 452
3 454 445 443
3 455 456 445
3 457 446 456
3 458 459 446
3 460 447 459
3 447 461 448
3 448 462 463
3 463 464 450
3 450 465 466
3 466 451 441
3 467 453 451
3 453 468 454
3 468 455 454
3 469 457 455
3 470 458 457
3 471 460 458
3 472 473 460
3 473 474 461
3 474 462 461
3 462 475 464
3 475 465 464
3 476 451 465
3 467 477 478
3 477 468 478
3 479 469 468
3 469 480 470
3 480 471 470
3 481 472 471
3 472 482 483
3 482 474 483
3 484 485 474
3 485 486 475
3 475 487 476
3 487 467 476
3 488 489 477
3 477 490 479
3 479 491 492
3 492 493 480
3 480 494 481
3 494 495 481
3 496 482 495
3 497 484 482
3 498 499 484
3 500 486 499
3 501 487 486
3 502 488 487
3 503 504 489
3 489 505 490
3 505 491 490
3 506 493 491
3 507 494 493
3 508 496 494
3 509 497 496
3 510 498 497
3 511 500 498
3 512 501 500
3 513 502 501
3 514 503 502
3 515 504 516
3 517 505 504
3 518 506 505
3 506 519 507
3 519 508 507
3 520 509 508
3 509 521 510
3 510 522 511
3 522 512 511
3 512 523 513
3 513 524 514
3 524 516 514
3 515 525 517
3 517 526 518
3 526 527 518
3 528 519 527
3 529 520 519
3 530 531 520
3 531 532 521
3 521 533 522
3 522 534 535
3 534 523 535
3 536 524 523
3 524 537 515
3 538 525 537
3 539 526 525
3 526 540 528
3 540 529 528
3 529 541 530
3 530 542 543
3 542 532 543
3 544 533 532
3 545 534 533
3 546 536 534
3 536 547 548
3 547 537 548
3 549 539 538
3 550 551 539
3 552 540 551
3 540 553 554
3 553 541 554
3 555 542 541
3 542 556 544
3 556 545 544
3 557 546 545
3 546 558 559
3 558 547 559
3 560 538 547
3 561 550 549
3 550 562 552
3 562 563 552
3 564 553 563
3 553 565 555
3 565 566 555
3 567 556 566
3 568 557 556
3 569 570 557
3 570 571 558
3 571 560 558
3 572 549 560
3 0 573 561
3 2 562 573
3 562 5 564
3 5 574 564
3 7 565 574
3 9 567 565
3 10 568 567
3 568 14 569
3 569 16 575
3 16 571 575
3 571 19 572
3 572 0 561
3 0 21 1
3 2 1 3
3 3 25 5
3 5 25 6
3 7 6 8
3 8 11 10
3 11 13 12
3 13 15 14
3 15 31 16
3 16 31 17
3 17 20 19
3 0 19 20
3 22 23 1
3 23 24 3
3 24 26 25
3 26 38 6
3 6 38 27
3 27 28 11
3 28 29 13
3 29 30 15
3 30 32 31
3 32 33 17
3 33 34 20
3 34 22 21
3 22 45 35
3 35 36 24
3 36 37 26
3 37 49 38
3 38 49 39
3 39 40 28
3 40 41 29
3 41 42 30
3 42 43 32
3 43 56 33
3 33 56 44
3 44 45 22
3 45 58 46
3 35 46 47
3 47 48 37
3 48 50 49
3 50 51 39
3 51 52 40
3 52 63 41
3 41 63 53
3 42 53 54
3 43 54 55
3 55 57 44
3 57 58 45
3 58 68 59
3 59 60 47
3 60 72 48
3 48 72 61
3 61 74 51
3 51 74 62
3 62 64 63
3 64 65 53
3 65 66 54
3 66 80 55
3 55 80 67
3 57 67 68
3 69 70 59
3 70 71 60
3 71 84 72
3 72 84 73
3 73 75 74
3 75 76 62
3 76 77 64
3 77 78 65
3 78 90 66
3 66 90 79
3 80 79 81
3 81 69 68
3 69 95 82
3 82 97 71
3 71 97 83
3 83 85 73
3 85 86 75
3 86 87 76
3 87 88 77
3 88 89 78
3 89 91 90
3 91 92 79
3 92 93 81
3 93 95 69
3 94 96 82
3 96 98 97
3 98 108 83
3 83 108 99
3 99 110 86
3 86 110 100
3 100 101 88
3 101 102 89
3 102 103 91
3 103 104 92
3 104 116 93
3 93 116 94
3 105 106 96
3 106 119 98
3 98 119 107
3 107 109 99
3 109 111 110
3 111 122 100
3 100 122 112
3 101 112 113
3 102 113 114
3 114 127 104
3 104 127 115
3 116 115 105
3 117 130 106
3 106 130 118
3 118 120 107
3 120 133 109
3 109 133 121
3 121 123 122
3 123 124 112
3 124 125 113
3 125 126 114
3 126 128 127
3 128 140 115
3 115 140 117
3 117 142 129
3 130 129 131
3 118 131 132
3 132 146 133
3 133 146 134
3 121 134 135
3 135 136 124
3 136 137 125
3 137 138 126
3 138 139 128
3 139 141 140
3 141 142 117
3 142 154 143
3 143 144 131
3 144 145 132
3 145 147 146
3 147 148 134
3 148 149 135
3 149 161 136
3 136 161 150
3 150 151 138
3 151 164 139
3 139 164 152
3 152 154 142
3 153 155 143
3 155 156 144
3 156 157 145
3 157 158 147
3 158 159 148
3 159 160 149
3 160 162 161
3 162 172 150
3 150 172 163
3 163 165 164
3 165 176 152
3 152 176 153
3 166 167 155
3 167 179 156
3 156 179 168
3 157 168 169
3 169 183 159
3 159 183 170
3 170 171 162
3 171 173 172
3 173 188 163
3 163 188 174
3 165 174 175
3 175 166 153
3 177 178 167
3 178 180 179
3 180 181 168
3 181 182 169
3 182 184 183
3 184 185 170
3 185 197 171
3 171 197 186
3 173 186 187
3 187 189 174
3 189 190 175
3 190 177 166
3 191 192 178
3 192 193 180
3 193 203 181
3 181 203 194
3 194 195 184
3 195 205 185
3 185 205 196
3 196 198 186
3 198 199 187
3 199 210 189
3 189 210 200
3 190 200 191
3 191 213 201
3 201 215 193
3 193 215 202
3 202 218 194
3 194 218 204
3 204 206 205
3 206 207 196
3 207 208 198
3 208 209 199
3 209 224 210
3 210 224 211
3 211 213 191
3 212 214 201
3 214 216 215
3 216 217 202
3 217 229 218
3 218 229 219
3 219 220 206
3 220 221 207
3 221 222 208
3 222 223 209
3 223 235 224
3 224 235 225
3 225 212 213
3 226 237 214
3 214 237 227
3 227 228 217
3 228 240 229
3 229 240 230
3 230 231 220
3 231 232 221
3 232 233 222
3 233 245 223
3 223 245 234
3 234 248 225
3 225 248 226
3 236 250 237
3 237 250 238
3 238 253 228
3 228 253 239
3 239 241 230
3 241 242 231
3 242 243 232
3 243 244 233
3 244 246 245
3 246 247 234
3 247 262 248
3 248 262 236
3 249 251 250
3 251 252 238
3 252 254 253
3 254 255 239
3 255 256 241
3 256 257 242
3 257 269 243
3 243 269 258
3 244 258 259
3 246 259 260
3 247 260 261
3 262 261 249
3 249 275 263
3 251 263 264
3 252 264 265
3 254 265 266
3 255 266 267
3 256 267 268
3 268 270 269
3 270 271 258
3 271 272 259
3 272 273 260
3 273 274 261
3 274 275 249
3 275 285 276
3 276 277 264
3 277 278 265
3 278 290 266
3 266 290 279
3 267 279 280
3 280 281 270
3 281 282 271
3 282 283 272
3 283 284 273
3 284 297 274
3 274 297 285
3 286 287 276
3 287 288 277
3 288 289 278
3 289 291 290
3 291 302 279
3 279 302 292
3 292 304 281
3 281 304 293
3 282 293 294
3 283 294 295
3 284 295 296
3 297 296 286
3 286 311 298
3 287 298 299
3 288 299 300
3 300 315 291
3 291 315 301
3 301 303 292
3 303 305 304
3 305 306 293
3 306 307 294
3 307 308 295
3 308 309 296
3 309 311 286
3 310 312 298
3 312 313 299
3 313 324 300
3 300 324 314
3 314 316 301
3 316 327 303
3 303 327 317
3 305 317 318
3 318 319 307
3 319 332 308
3 308 332 320
3 320 310 311
3 321 322 312
3 322 323 313
3 323 325 324
3 325 338 314
3 314 338 326
3 326 328 327
3 328 329 317
3 329 330 318
3 330 342 319
3 319 342 331
3 332 331 333
3 320 333 321
3 334 335 322
3 335 347 323
3 323 347 336
3 325 336 337
3 338 337 339
3 339 350 328
3 328 350 340
3 340 341 330
3 341 343 342
3 343 354 331
3 331 354 344
3 333 344 334
3 345 346 335
3 346 358 347
3 347 358 348
3 348 361 337
3 337 361 349
3 349 364 350
3 350 364 351
3 351 352 341
3 352 353 343
3 353 355 354
3 355 356 344
3 356 345 334
3 345 369 357
3 357 359 358
3 359 360 348
3 360 362 361
3 362 363 349
3 363 365 364
3 365 376 351
3 351 376 366
3 352 366 367
3 367 380 355
3 355 380 368
3 368 369 345
3 369 383 370
3 357 370 371
3 359 371 372
3 360 372 373
3 362 373 374
3 374 375 365
3 375 377 376
3 377 378 366
3 378 379 367
3 379 381 380
3 381 382 368
3 382 383 369
3 383 393 384
3 384 385 371
3 385 386 372
3 386 387 373
3 387 398 374
3 374 398 388
3 375 388 389
3 377 389 390
3 378 390 391
3 391 403 381
3 381 403 392
3 392 393 383
3 393 406 394
3 384 394 395
3 395 396 386
3 396 397 387
3 397 411 398
3 398 411 399
3 399 400 389
3 400 401 390
3 401 415 391
3 391 415 402
3 402 404 392
3 404 406 393
3 405 407 394
3 407 419 395
3 395 419 408
3 396 408 409
3 397 409 410
3 410 412 399
3 412 413 400
3 413 414 401
3 414 427 415
3 415 427 416
3 416 417 404
3 417 405 406
3 405 430 418
3 418 420 419
3 420 421 408
3 421 422 409
3 422 423 410
3 423 436 412
3 412 436 424
3 413 424 425
3 414 425 426
3 427 426 428
3 416 428 429
3 417 429 430
3 430 442 431
3 431 432 420
3 432 444 421
3 421 444 433
3 422 433 434
3 423 434 435
3 435 437 424
3 437 438 425
3 438 449 426
3 426 449 439
3 439 440 429
3 440 442 430
3 441 452 431
3 431 452 443
3 443 445 444
3 445 456 433
3 433 456 446
3 446 459 435
3 435 459 447
3 447 448 438
3 448 463 449
3 449 463 450
3 450 466 440
3 440 466 441
3 451 453 452
3 453 454 443
3 454 455 445
3 455 457 456
3 457 458 446
3 458 460 459
3 460 473 447
3 447 473 461
3 448 461 462
3 463 462 464
3 450 464 465
3 466 465 451
3 467 478 453
3 453 478 468
3 468 469 455
3 469 470 457
3 470 471 458
3 471 472 460
3 472 483 473
3 473 483 474
3 474 485 462
3 462 485 475
3 475 476 465
3 476 467 451
3 467 488 477
3 477 479 468
3 479 492 469
3 469 492 480
3 480 481 471
3 481 495 472
3 472 495 482
3 482 484 474
3 484 499 485
3 485 499 486
3 475 486 487
3 487 488 467
3 488 503 489
3 477 489 490
3 479 490 491
3 492 491 493
3 480 493 494
3 494 496 495
3 496 497 482
3 497 498 484
3 498 500 499
3 500 501 486
3 501 502 487
3 502 503 488
3 503 516 504
3 489 504 505
3 505 506 491
3 506 507 493
3 507 508 494
3 508 509 496
3 509 510 497
3 510 511 498
3 511 512 500
3 512 513 501
3 513 514 502
3 514 516 503
3 515 517 504
3 517 518 505
3 518 527 506
3 506 527 519
3 519 520 508
3 520 531 509
3 509 531 521
3 510 521 522
3 522 535 512
3 512 535 523
3 513 523 524
3 524 515 516
3 515 537 525
3 517 525 526
3 526 528 527
3 528 529 519
3 529 530 520
3 530 543 531
3 531 543 532
3 521 532 533
3 522 533 534
3 534 536 523
3 536 548 524
3 524 548 537
3 538 539 525
3 539 551 526
3 526 551 540
3 540 554 529
3 529 554 541
3 530 541 542
3 542 544 532
3 544 545 533
3 545 546 534
3 546 559 536
3 536 559 547
3 547 538 537
3 549 550 539
3 550 552 551
3 552 563 540
3 540 563 553
3 553 555 541
3 555 566 542
3 542 566 556
3 556 557 545
3 557 570 546
3 546 570 558
3 558 560 547
3 560 549 538
3 561 573 550
3 550 573 562
3 562 564 563
3 564 574 553
3 553 574 565
3 565 567 566
3 567 568 556
3 568 569 557
3 569 575 570
3 570 575 571
3 571 572 560
3 572 561 549
3 0 2 573
3 2 4 562
3 562 4 5
3 5 7 574
3 7 9 565
3 9 10 567
3 10 12 568
3 568 12 14
3 569 14 16
3 16 18 571
3 571 18 19
3 572 19 0
