ply
format ascii 1.0
comment Created by Blender 2.78 (sub 0) - www.blender.org, source file: ''
element vertex 576
property float x
property float y
property float z
element face 1152
property list uchar uint vertex_indices
end_header
1.239306 0.163158 0.000000
1.216506 0.000000 0.125000
1.250000 0.000000 0.000000
1.206099 0.158786 0.125000
1.125000 0.000000 0.216506
0.991445 0.130526 0.250000
1.000000 0.000000 0.250000
0.875000 0.000000 0.216506
0.867514 0.114210 0.216506
0.783494 0.000000 0.125000
0.776791 0.102266 0.125000
0.750000 0.000000 0.000000
0.743584 0.097895 0.000000
0.783494 0.000000 -0.125000
0.776791 0.102266 -0.125000
0.875000 0.000000 -0.216506
0.991445 0.130526 -0.250000
1.000000 0.000000 -0.250000
1.125000 0.000000 -0.216506
1.115376 0.146842 -0.216506
1.216506 0.000000 -0.125000
1.175055 0.314855 0.125000
1.086667 0.291171 0.216506
1.115376 0.146842 0.216506
0.965926 0.258819 0.250000
0.845185 0.226467 0.216506
0.756797 0.202783 0.125000
0.724444 0.194114 0.000000
0.756797 0.202783 -0.125000
0.867514 0.114210 -0.216506
0.845185 0.226467 -0.216506
0.965926 0.258819 -0.250000
1.086667 0.291171 -0.216506
1.206099 0.158786 -0.125000
1.175055 0.314855 -0.125000
1.154850 0.478354 0.000000
1.207407 0.323524 0.000000
1.123905 0.465537 0.125000
1.039365 0.430519 0.216506
0.923880 0.382683 0.250000
0.808395 0.334848 0.216506
0.723854 0.299830 0.125000
0.692910 0.287013 0.000000
0.808395 0.334848 -0.216506
1.039365 0.430519 -0.216506
1.082532 0.625000 0.000000
0.974279 0.562500 0.216506
0.866025 0.500000 0.250000
0.757772 0.437500 0.216506
0.649519 0.375000 0.000000
0.723854 0.299830 -0.125000
0.757772 0.437500 -0.216506
0.923880 0.382683 -0.250000
0.866025 0.500000 -0.250000
0.974279 0.562500 -0.216506
1.123905 0.465537 -0.125000
0.991692 0.760952 0.000000
1.053525 0.608253 0.125000
0.965119 0.740562 0.125000
0.892523 0.684857 0.216506
0.694184 0.532666 0.216506
0.678525 0.391747 0.125000
0.621587 0.476961 0.125000
0.595015 0.456571 0.000000
0.678525 0.391747 -0.125000
0.621587 0.476961 -0.125000
0.694184 0.532666 -0.216506
0.793353 0.608761 -0.250000
0.965119 0.740562 -0.125000
1.053525 0.608253 -0.125000
0.883883 0.883884 0.000000
0.860200 0.860200 0.125000
0.795495 0.795495 0.216506
0.793353 0.608761 0.250000
0.707107 0.707107 0.250000
0.618718 0.618718 0.216506
0.554014 0.554014 0.125000
0.554014 0.554014 -0.125000
0.618718 0.618718 -0.216506
0.707107 0.707107 -0.250000
0.892523 0.684857 -0.216506
0.860200 0.860200 -0.125000
0.760952 0.991691 0.000000
0.740562 0.965119 0.125000
0.684857 0.892522 0.216506
0.608762 0.793353 0.250000
0.476961 0.621587 0.125000
0.456571 0.595015 0.000000
0.530330 0.530330 0.000000
0.476961 0.621587 -0.125000
0.608762 0.793353 -0.250000
0.795495 0.795495 -0.216506
0.740562 0.965119 -0.125000
0.608253 1.053525 0.125000
0.500000 0.866025 0.250000
0.532666 0.694184 0.216506
0.437500 0.757772 0.216506
0.391747 0.678525 0.125000
0.375000 0.649519 0.000000
0.391747 0.678525 -0.125000
0.532666 0.694184 -0.216506
0.500000 0.866025 -0.250000
0.684857 0.892522 -0.216506
0.562500 0.974279 -0.216506
0.608253 1.053525 -0.125000
0.625000 1.082532 0.000000
0.465537 1.123905 0.125000
0.562500 0.974279 0.216506
0.430519 1.039364 0.216506
0.382684 0.923879 0.250000
0.334848 0.808394 0.216506
0.299830 0.723854 0.125000
0.299830 0.723854 -0.125000
0.334848 0.808394 -0.216506
0.437500 0.757772 -0.216506
0.382684 0.923879 -0.250000
0.465537 1.123905 -0.125000
0.323524 1.207407 0.000000
0.478355 1.154849 0.000000
0.291171 1.086666 0.216506
0.258819 0.965926 0.250000
0.226467 0.845185 0.216506
0.194114 0.724444 0.000000
0.287013 0.692910 0.000000
0.202783 0.756797 -0.125000
0.226467 0.845185 -0.216506
0.258819 0.965926 -0.250000
0.430519 1.039364 -0.216506
0.314855 1.175055 -0.125000
0.158786 1.206099 0.125000
0.314855 1.175055 0.125000
0.146842 1.115376 0.216506
0.130526 0.991445 0.250000
0.114210 0.867514 0.216506
0.102266 0.776791 0.125000
0.202783 0.756797 0.125000
0.097895 0.743584 0.000000
0.102266 0.776791 -0.125000
0.130526 0.991445 -0.250000
0.291171 1.086666 -0.216506
0.146842 1.115376 -0.216506
0.158786 1.206099 -0.125000
0.163158 1.239306 0.000000
0.000000 1.216506 0.125000
0.000000 1.125000 0.216506
0.000000 0.875000 0.216506
0.000000 0.783494 0.125000
0.000000 0.750000 0.000000
0.000000 0.783494 -0.125000
0.114210 0.867514 -0.216506
0.000000 0.875000 -0.216506
0.000000 1.000000 -0.250000
0.000000 1.216506 -0.125000
0.000000 1.250000 0.000000
-0.158786 1.206099 0.125000
-0.146842 1.115375 0.216506
0.000000 1.000000 0.250000
-0.130526 0.991445 0.250000
-0.114211 0.867514 0.216506
-0.102267 0.776791 0.125000
-0.097895 0.743584 0.000000
-0.102267 0.776791 -0.125000
-0.130526 0.991445 -0.250000
0.000000 1.125000 -0.216506
-0.146842 1.115375 -0.216506
-0.158786 1.206099 -0.125000
-0.323524 1.207407 0.000000
-0.163158 1.239306 0.000000
-0.291171 1.086667 0.216506
-0.226467 0.845185 0.216506
-0.202783 0.756797 0.125000
-0.194114 0.724444 0.000000
-0.202783 0.756797 -0.125000
-0.114211 0.867514 -0.216506
-0.226467 0.845185 -0.216506
-0.258819 0.965926 -0.250000
-0.291171 1.086667 -0.216506
-0.314855 1.175055 -0.125000
-0.478354 1.154849 0.000000
-0.314855 1.175055 0.125000
-0.430519 1.039364 0.216506
-0.258819 0.965926 0.250000
-0.382684 0.923880 0.250000
-0.334848 0.808395 0.216506
-0.299830 0.723854 0.125000
-0.287013 0.692910 0.000000
-0.334848 0.808395 -0.216506
-0.382684 0.923880 -0.250000
-0.430519 1.039364 -0.216506
-0.625000 1.082532 0.000000
-0.465537 1.123905 0.125000
-0.562500 0.974279 0.216506
-0.500000 0.866026 0.250000
-0.391747 0.678525 0.125000
-0.391747 0.678525 -0.125000
-0.299830 0.723854 -0.125000
-0.437500 0.757772 -0.216506
-0.500000 0.866026 -0.250000
-0.562500 0.974279 -0.216506
-0.465537 1.123905 -0.125000
-0.608253 1.053525 -0.125000
-0.760952 0.991692 0.000000
-0.608253 1.053525 0.125000
-0.684857 0.892522 0.216506
-0.608761 0.793353 0.250000
-0.437500 0.757772 0.216506
-0.532666 0.694184 0.216506
-0.456571 0.595015 0.000000
-0.375000 0.649519 0.000000
-0.532666 0.694184 -0.216506
-0.608761 0.793353 -0.250000
-0.684857 0.892522 -0.216506
-0.883884 0.883883 0.000000
-0.740562 0.965119 0.125000
-0.860200 0.860200 0.125000
-0.795495 0.795495 0.216506
-0.707107 0.707107 0.250000
-0.618719 0.618718 0.216506
-0.476961 0.621587 0.125000
-0.530330 0.530330 0.000000
-0.476961 0.621587 -0.125000
-0.618719 0.618718 -0.216506
-0.707107 0.707107 -0.250000
-0.795495 0.795495 -0.216506
-0.740562 0.965119 -0.125000
-0.991692 0.760952 0.000000
-0.892523 0.684857 0.216506
-0.793353 0.608761 0.250000
-0.694184 0.532666 0.216506
-0.554014 0.554013 0.125000
-0.621587 0.476961 0.125000
-0.595015 0.456571 0.000000
-0.554014 0.554013 -0.125000
-0.621587 0.476961 -0.125000
-0.694184 0.532666 -0.216506
-0.793353 0.608761 -0.250000
-0.892523 0.684857 -0.216506
-0.860200 0.860200 -0.125000
-1.082532 0.625000 0.000000
-0.965119 0.740562 0.125000
-0.974279 0.562500 0.216506
-0.866025 0.500000 0.250000
-0.757772 0.437500 0.216506
-0.678525 0.391747 0.125000
-0.678525 0.391747 -0.125000
-0.757772 0.437500 -0.216506
-0.866025 0.500000 -0.250000
-0.974279 0.562500 -0.216506
-0.965119 0.740562 -0.125000
-1.154849 0.478354 0.000000
-1.053525 0.608253 0.125000
-1.123905 0.465537 0.125000
-1.039364 0.430519 0.216506
-0.923879 0.382683 0.250000
-0.808394 0.334848 0.216506
-0.723854 0.299830 0.125000
-0.649519 0.375000 0.000000
-0.723854 0.299830 -0.125000
-0.808394 0.334848 -0.216506
-0.923879 0.382683 -0.250000
-1.039364 0.430519 -0.216506
-1.123905 0.465537 -0.125000
-1.053525 0.608253 -0.125000
-1.175055 0.314855 0.125000
-1.086667 0.291171 0.216506
-0.965926 0.258819 0.250000
-0.845185 0.226467 0.216506
-0.756797 0.202783 0.125000
-0.724444 0.194114 0.000000
-0.692910 0.287013 0.000000
-0.756797 0.202783 -0.125000
-0.845185 0.226467 -0.216506
-0.965926 0.258819 -0.250000
-1.086667 0.291171 -0.216506
-1.175055 0.314855 -0.125000
-1.239306 0.163158 0.000000
-1.207407 0.323524 0.000000
-1.206099 0.158786 0.125000
-0.991445 0.130526 0.250000
-0.867514 0.114211 0.216506
-0.743584 0.097895 0.000000
-0.776791 0.102267 -0.125000
-0.867514 0.114211 -0.216506
-0.991445 0.130526 -0.250000
-1.206099 0.158786 -0.125000
-1.250000 0.000000 0.000000
-1.216506 0.000000 0.125000
-1.115376 0.146842 0.216506
-1.125000 0.000000 0.216506
-1.000000 0.000000 0.250000
-0.875000 0.000000 0.216506
-0.776791 0.102267 0.125000
-0.783494 0.000000 0.125000
-0.750000 0.000000 0.000000
-0.875000 0.000000 -0.216506
-1.000000 0.000000 -0.250000
-1.125000 0.000000 -0.216506
-1.115376 0.146842 -0.216506
-1.216506 0.000000 -0.125000
-1.239306 -0.163158 0.000000
-1.206099 -0.158786 0.125000
-0.991445 -0.130526 0.250000
-0.867514 -0.114211 0.216506
-0.743584 -0.097895 0.000000
-0.783494 0.000000 -0.125000
-0.776791 -0.102267 -0.125000
-0.867514 -0.114211 -0.216506
-0.991445 -0.130526 -0.250000
-1.115376 -0.146842 -0.216506
-1.207407 -0.323524 0.000000
-1.086667 -0.291171 0.216506
-1.115376 -0.146842 0.216506
-0.965926 -0.258819 0.250000
-0.845185 -0.226467 0.216506
-0.776791 -0.102267 0.125000
-0.724444 -0.194114 0.000000
-0.756797 -0.202783 -0.125000
-0.845185 -0.226467 -0.216506
-0.965926 -0.258819 -0.250000
-1.086667 -0.291171 -0.216506
-1.206099 -0.158786 -0.125000
-1.175055 -0.314855 -0.125000
-1.154850 -0.478354 0.000000
-1.175055 -0.314855 0.125000
-1.123906 -0.465536 0.125000
-1.039365 -0.430518 0.216506
-0.923880 -0.382683 0.250000
-0.808395 -0.334848 0.216506
-0.756797 -0.202783 0.125000
-0.723854 -0.299830 0.125000
-0.692910 -0.287012 0.000000
-0.808395 -0.334848 -0.216506
-0.923880 -0.382683 -0.250000
-1.039365 -0.430518 -0.216506
-1.123906 -0.465536 -0.125000
-1.053526 -0.608253 0.125000
-0.974279 -0.562500 0.216506
-0.866026 -0.500000 0.250000
-0.757772 -0.437500 0.216506
-0.678526 -0.391747 0.125000
-0.649519 -0.375000 0.000000
-0.723854 -0.299830 -0.125000
-0.678526 -0.391747 -0.125000
-0.757772 -0.437500 -0.216506
-0.866026 -0.500000 -0.250000
-0.974279 -0.562500 -0.216506
-1.053526 -0.608253 -0.125000
-1.082532 -0.625000 0.000000
-0.965119 -0.740562 0.125000
-0.892523 -0.684857 0.216506
-0.793353 -0.608761 0.250000
-0.694184 -0.532666 0.216506
-0.621587 -0.476961 0.125000
-0.595015 -0.456571 0.000000
-0.694184 -0.532666 -0.216506
-0.892523 -0.684857 -0.216506
-0.965119 -0.740562 -0.125000
-0.991692 -0.760952 0.000000
-0.860200 -0.860200 0.125000
-0.795495 -0.795495 0.216506
-0.618719 -0.618718 0.216506
-0.554014 -0.554013 0.125000
-0.530330 -0.530330 0.000000
-0.621587 -0.476961 -0.125000
-0.554014 -0.554013 -0.125000
-0.618719 -0.618718 -0.216506
-0.793353 -0.608761 -0.250000
-0.707107 -0.707107 -0.250000
-0.860200 -0.860200 -0.125000
-0.760952 -0.991691 0.000000
-0.883884 -0.883883 0.000000
-0.684857 -0.892522 0.216506
-0.608762 -0.793353 0.250000
-0.707107 -0.707107 0.250000
-0.532667 -0.694184 0.216506
-0.476961 -0.621587 0.125000
-0.476961 -0.621587 -0.125000
-0.532667 -0.694184 -0.216506
-0.608762 -0.793353 -0.250000
-0.795495 -0.795495 -0.216506
-0.684857 -0.892522 -0.216506
-0.740563 -0.965119 -0.125000
-0.608253 -1.053525 0.125000
-0.740563 -0.965119 0.125000
-0.500000 -0.866026 0.250000
-0.391747 -0.678525 0.125000
-0.456571 -0.595015 0.000000
-0.391747 -0.678525 -0.125000
-0.500000 -0.866026 -0.250000
-0.608253 -1.053525 -0.125000
-0.478354 -1.154849 0.000000
-0.625000 -1.082532 0.000000
-0.465537 -1.123905 0.125000
-0.562500 -0.974279 0.216506
-0.430519 -1.039364 0.216506
-0.382684 -0.923880 0.250000
-0.437500 -0.757772 0.216506
-0.334848 -0.808395 0.216506
-0.287013 -0.692910 0.000000
-0.375000 -0.649519 0.000000
-0.334848 -0.808395 -0.216506
-0.437500 -0.757772 -0.216506
-0.430519 -1.039364 -0.216506
-0.562500 -0.974279 -0.216506
-0.465537 -1.123905 -0.125000
-0.323524 -1.207407 0.000000
-0.291172 -1.086666 0.216506
-0.258819 -0.965926 0.250000
-0.202783 -0.756797 0.125000
-0.299830 -0.723854 0.125000
-0.202783 -0.756797 -0.125000
-0.299830 -0.723854 -0.125000
-0.226467 -0.845185 -0.216506
-0.382684 -0.923880 -0.250000
-0.291172 -1.086666 -0.216506
-0.314855 -1.175055 -0.125000
-0.163159 -1.239306 0.000000
-0.314855 -1.175055 0.125000
-0.158787 -1.206099 0.125000
-0.146843 -1.115375 0.216506
-0.130527 -0.991445 0.250000
-0.226467 -0.845185 0.216506
-0.102267 -0.776791 0.125000
-0.194114 -0.724444 0.000000
-0.102267 -0.776791 -0.125000
-0.114211 -0.867514 -0.216506
-0.130527 -0.991445 -0.250000
-0.258819 -0.965926 -0.250000
-0.146843 -1.115375 -0.216506
0.000000 -1.250000 0.000000
0.000000 -1.125000 0.216506
0.000000 -1.000000 0.250000
0.000000 -0.875000 0.216506
-0.114211 -0.867514 0.216506
0.000000 -0.783494 0.125000
-0.097895 -0.743584 0.000000
0.000000 -0.750000 0.000000
0.000000 -0.783494 -0.125000
0.000000 -0.875000 -0.216506
0.000000 -1.000000 -0.250000
0.000000 -1.125000 -0.216506
-0.158787 -1.206099 -0.125000
0.163158 -1.239306 0.000000
0.000000 -1.216506 0.125000
0.158786 -1.206099 0.125000
0.130526 -0.991445 0.250000
0.114210 -0.867514 0.216506
0.102266 -0.776791 0.125000
0.102266 -0.776791 -0.125000
0.114210 -0.867514 -0.216506
0.130526 -0.991445 -0.250000
0.146842 -1.115376 -0.216506
0.000000 -1.216506 -0.125000
0.323523 -1.207407 0.000000
0.314854 -1.175055 0.125000
0.146842 -1.115376 0.216506
0.258819 -0.965926 0.250000
0.226466 -0.845185 0.216506
0.202783 -0.756797 0.125000
0.097895 -0.743584 0.000000
0.194114 -0.724445 0.000000
0.202783 -0.756797 -0.125000
0.226466 -0.845185 -0.216506
0.258819 -0.965926 -0.250000
0.314854 -1.175055 -0.125000
0.158786 -1.206099 -0.125000
0.478355 -1.154849 0.000000
0.465537 -1.123905 0.125000
0.291171 -1.086667 0.216506
0.430519 -1.039364 0.216506
0.382684 -0.923879 0.250000
0.334848 -0.808394 0.216506
0.299830 -0.723854 0.125000
0.299830 -0.723854 -0.125000
0.334848 -0.808394 -0.216506
0.382684 -0.923879 -0.250000
0.430519 -1.039364 -0.216506
0.291171 -1.086667 -0.216506
0.465537 -1.123905 -0.125000
0.625000 -1.082532 0.000000
0.562500 -0.974279 0.216506
0.437500 -0.757772 0.216506
0.391747 -0.678525 0.125000
0.375000 -0.649519 0.000000
0.287013 -0.692910 0.000000
0.391747 -0.678525 -0.125000
0.500000 -0.866025 -0.250000
0.562500 -0.974279 -0.216506
0.760952 -0.991692 0.000000
0.608253 -1.053525 0.125000
0.684856 -0.892523 0.216506
0.608761 -0.793354 0.250000
0.500000 -0.866025 0.250000
0.532666 -0.694184 0.216506
0.476961 -0.621587 0.125000
0.456571 -0.595015 0.000000
0.476961 -0.621587 -0.125000
0.437500 -0.757772 -0.216506
0.532666 -0.694184 -0.216506
0.608761 -0.793354 -0.250000
0.684856 -0.892523 -0.216506
0.608253 -1.053525 -0.125000
0.860199 -0.860200 0.125000
0.740562 -0.965120 0.125000
0.795495 -0.795496 0.216506
0.618718 -0.618719 0.216506
0.554013 -0.554014 0.125000
0.554013 -0.554014 -0.125000
0.707106 -0.707107 -0.250000
0.795495 -0.795496 -0.216506
0.860199 -0.860200 -0.125000
0.740562 -0.965120 -0.125000
0.883883 -0.883884 0.000000
0.965119 -0.740562 0.125000
0.892523 -0.684857 0.216506
0.707106 -0.707107 0.250000
0.793353 -0.608761 0.250000
0.621587 -0.476961 0.125000
0.530330 -0.530330 0.000000
0.595015 -0.456571 0.000000
0.621587 -0.476961 -0.125000
0.618718 -0.618719 -0.216506
0.694184 -0.532666 -0.216506
0.892523 -0.684857 -0.216506
0.965119 -0.740562 -0.125000
0.991692 -0.760952 0.000000
1.053525 -0.608253 0.125000
0.974279 -0.562500 0.216506
0.866025 -0.500000 0.250000
0.694184 -0.532666 0.216506
0.757772 -0.437500 0.216506
0.678525 -0.391747 0.125000
0.649519 -0.375000 0.000000
0.678525 -0.391747 -0.125000
0.866025 -0.500000 -0.250000
0.793353 -0.608761 -0.250000
0.974279 -0.562500 -0.216506
1.053525 -0.608253 -0.125000
1.082532 -0.625000 0.000000
1.123905 -0.465537 0.125000
1.039364 -0.430519 0.216506
0.923879 -0.382684 0.250000
0.808394 -0.334848 0.216506
0.723854 -0.299830 0.125000
0.723854 -0.299830 -0.125000
0.808394 -0.334848 -0.216506
0.757772 -0.437500 -0.216506
0.923879 -0.382684 -0.250000
1.123905 -0.465537 -0.125000
1.154849 -0.478355 0.000000
1.175055 -0.314855 0.125000
0.965926 -0.258819 0.250000
0.845185 -0.226466 0.216506
0.756797 -0.202783 0.125000
0.724444 -0.194114 0.000000
0.692909 -0.287013 0.000000
0.756797 -0.202783 -0.125000
0.845185 -0.226466 -0.216506
0.965926 -0.258819 -0.250000
1.039364 -0.430519 -0.216506
1.086667 -0.291171 -0.216506
1.175055 -0.314855 -0.125000
1.239306 -0.163158 0.000000
1.207407 -0.323523 0.000000
1.206099 -0.158786 0.125000
1.086667 -0.291171 0.216506
1.115376 -0.146842 0.216506
0.991445 -0.130526 0.250000
0.776791 -0.102266 0.125000
0.743584 -0.097895 0.000000
0.776791 -0.102266 -0.125000
0.867514 -0.114210 -0.216506
0.991445 -0.130526 -0.250000
1.206099 -0.158786 -0.125000
0.867514 -0.114210 0.216506
1.115376 -0.146842 -0.216506
3 0 1 2
3 3 4 1
3 4 5 6
3 5 7 6
3 8 9 7
3 10 11 9
3 12 13 11
3 14 15 13
3 15 16 17
3 16 18 17
3 19 20 18
3 20 0 2
3 0 21 3
3 3 22 23
3 23 24 5
3 5 25 8
3 8 26 10
3 10 27 12
3 27 14 12
3 28 29 14
3 30 16 29
3 31 19 16
3 32 33 19
3 34 0 33
3 35 21 36
3 37 22 21
3 38 24 22
3 39 25 24
3 40 26 25
3 41 27 26
3 42 28 27
3 28 43 30
3 43 31 30
3 31 44 32
3 44 34 32
3 34 35 36
3 45 37 35
3 37 46 38
3 46 39 38
3 47 40 39
3 48 41 40
3 41 49 42
3 49 50 42
3 50 51 43
3 51 52 43
3 53 44 52
3 54 55 44
3 55 45 35
3 56 57 45
3 58 46 57
3 59 47 46
3 47 60 48
3 60 61 48
3 62 49 61
3 63 64 49
3 65 51 64
3 66 53 51
3 67 54 53
3 54 68 69
3 69 56 45
3 70 58 56
3 71 59 58
3 72 73 59
3 74 60 73
3 75 62 60
3 76 63 62
3 63 77 65
3 65 78 66
3 66 79 67
3 79 80 67
3 80 81 68
3 68 70 56
3 82 71 70
3 83 72 71
3 84 74 72
3 85 75 74
3 75 86 76
3 76 87 88
3 87 77 88
3 89 78 77
3 78 90 79
3 90 91 79
3 91 92 81
3 92 70 81
3 82 93 83
3 93 84 83
3 84 94 85
3 94 95 85
3 96 86 95
3 97 87 86
3 98 89 87
3 99 100 89
3 100 101 90
3 101 102 90
3 103 92 102
3 104 82 92
3 105 106 93
3 106 107 93
3 108 94 107
3 109 96 94
3 110 97 96
3 111 98 97
3 98 112 99
3 99 113 114
3 113 101 114
3 115 103 101
3 103 116 104
3 116 105 104
3 117 106 118
3 106 119 108
3 119 109 108
3 120 110 109
3 121 111 110
3 111 122 123
3 123 124 112
3 112 125 113
3 125 115 113
3 126 127 115
3 127 128 116
3 128 118 116
3 117 129 130
3 130 131 119
3 119 132 120
3 120 133 121
3 121 134 135
3 135 136 122
3 136 124 122
3 137 125 124
3 125 138 126
3 138 139 126
3 140 128 139
3 141 117 128
3 142 143 129
3 143 131 129
3 144 132 131
3 132 145 133
3 133 146 134
3 146 136 134
3 147 137 136
3 148 149 137
3 150 138 149
3 151 140 138
3 140 152 141
3 152 142 141
3 153 154 143
3 154 144 143
3 155 156 144
3 157 145 156
3 158 146 145
3 159 147 146
3 160 148 147
3 161 150 148
3 150 162 151
3 162 163 151
3 164 152 163
3 165 153 152
3 166 154 167
3 154 168 155
3 168 157 155
3 157 169 158
3 169 159 158
3 170 160 159
3 171 161 160
3 172 173 161
3 174 162 173
3 175 164 162
3 176 165 164
3 177 167 165
3 178 179 166
3 179 180 168
3 180 181 168
3 182 169 181
3 183 170 169
3 184 171 170
3 185 172 171
3 172 186 174
3 174 187 175
3 175 188 176
3 188 177 176
3 177 178 166
3 189 190 178
3 190 191 180
3 180 192 182
3 192 183 182
3 183 193 184
3 193 185 184
3 185 194 195
3 194 186 195
3 196 187 186
3 197 188 187
3 198 199 188
3 200 178 199
3 201 202 189
3 202 203 191
3 191 204 192
3 204 205 192
3 206 193 205
3 193 207 208
3 207 194 208
3 194 209 196
3 196 210 197
3 197 211 198
3 211 200 198
3 200 201 189
3 212 213 201
3 214 203 213
3 215 204 203
3 216 206 204
3 217 218 206
3 218 219 207
3 219 220 207
3 220 221 209
3 209 222 210
3 210 223 211
3 223 224 211
3 224 212 201
3 225 214 212
3 214 226 215
3 226 216 215
3 227 217 216
3 228 229 217
3 230 219 229
3 231 232 219
3 233 221 232
3 234 222 221
3 235 223 222
3 236 237 223
3 237 225 212
3 238 239 225
3 239 240 226
3 226 241 227
3 227 242 228
3 228 243 230
3 243 231 230
3 231 244 233
3 244 234 233
3 245 235 234
3 246 236 235
3 247 248 236
3 248 238 225
3 249 250 238
3 251 240 250
3 252 241 240
3 253 242 241
3 254 243 242
3 255 256 243
3 256 257 244
3 244 258 245
3 245 259 246
3 246 260 247
3 247 261 262
3 262 249 238
3 249 263 251
3 251 264 252
3 252 265 253
3 253 266 254
3 254 267 255
3 255 268 269
3 268 257 269
3 270 258 257
3 271 259 258
3 272 260 259
3 273 261 260
3 274 249 261
3 275 263 276
3 277 264 263
3 264 278 265
3 278 266 265
3 279 267 266
3 267 280 268
3 280 270 268
3 281 271 270
3 282 272 271
3 283 273 272
3 273 284 274
3 284 276 274
3 285 277 275
3 286 287 277
3 288 278 287
3 289 279 278
3 290 291 279
3 292 280 291
3 293 281 280
3 281 294 282
3 282 295 283
3 283 296 297
3 297 298 284
3 284 285 275
3 299 286 285
3 300 288 286
3 288 301 289
3 289 302 290
3 302 292 290
3 292 303 293
3 303 304 293
3 305 294 304
3 306 295 294
3 307 296 295
3 308 298 296
3 298 299 285
3 309 300 299
3 300 310 311
3 310 301 311
3 312 302 301
3 313 314 302
3 314 315 303
3 315 305 303
3 316 306 305
3 317 307 306
3 318 308 307
3 319 320 308
3 321 299 320
3 322 323 309
3 324 310 323
3 325 312 310
3 326 313 312
3 327 328 313
3 329 315 328
3 330 316 315
3 316 331 317
3 317 332 318
3 318 333 319
3 333 321 319
3 334 309 321
3 322 335 324
3 324 336 325
3 325 337 326
3 326 338 327
3 327 339 329
3 339 330 329
3 340 341 330
3 342 331 341
3 343 332 331
3 344 333 332
3 345 334 333
3 346 322 334
3 347 348 335
3 348 336 335
3 349 337 336
3 350 338 337
3 351 339 338
3 352 340 339
3 353 342 340
3 342 354 343
3 354 344 343
3 344 355 345
3 355 346 345
3 356 347 346
3 357 358 348
3 358 349 348
3 359 350 349
3 350 360 351
3 360 352 351
3 361 353 352
3 362 363 353
3 364 354 363
3 365 366 354
3 367 355 366
3 355 368 356
3 368 357 356
3 369 358 370
3 358 371 359
3 359 372 373
3 373 374 360
3 360 375 361
3 375 362 361
3 362 376 364
3 376 365 364
3 377 367 365
3 378 379 367
3 380 368 379
3 381 370 368
3 369 382 383
3 382 371 383
3 371 384 372
3 384 374 372
3 374 385 375
3 385 386 375
3 386 387 376
3 387 377 376
3 377 388 378
3 388 380 378
3 380 389 381
3 389 369 381
3 390 382 391
3 392 393 382
3 394 384 393
3 395 396 384
3 397 385 396
3 385 398 399
3 398 387 399
3 387 400 401
3 400 388 401
3 388 402 403
3 403 404 389
3 404 391 389
3 405 392 390
3 392 406 394
3 406 395 394
3 407 397 395
3 397 408 409
3 408 398 409
3 398 410 411
3 411 412 400
3 412 413 400
3 413 414 402
3 414 404 402
3 415 390 404
3 416 417 405
3 418 406 417
3 419 407 406
3 420 421 407
3 421 422 408
3 422 423 408
3 423 424 410
3 410 425 412
3 412 426 427
3 427 428 414
3 428 415 414
3 415 416 405
3 429 418 416
3 418 430 419
3 419 431 420
3 420 432 433
3 433 434 422
3 434 435 422
3 436 424 435
3 437 425 424
3 438 426 425
3 439 428 426
3 440 441 428
3 441 429 416
3 442 443 429
3 444 430 443
3 430 445 431
3 445 432 431
3 446 434 432
3 447 436 434
3 436 448 437
3 437 449 438
3 438 450 439
3 450 440 439
3 451 452 440
3 452 442 429
3 453 444 442
3 454 455 444
3 455 456 445
3 445 457 446
3 457 447 446
3 458 459 447
3 460 448 459
3 461 449 448
3 462 450 449
3 463 451 450
3 451 464 465
3 464 442 465
3 466 454 453
3 467 468 454
3 469 456 468
3 470 457 456
3 471 458 457
3 472 460 458
3 460 473 461
3 461 474 462
3 462 475 463
3 463 476 477
3 477 478 464
3 478 453 464
3 479 467 466
3 467 480 469
3 480 470 469
3 470 481 471
3 471 482 472
3 472 483 484
3 483 473 484
3 485 474 473
3 474 486 475
3 486 476 475
3 487 478 476
3 478 479 466
3 488 489 479
3 489 490 480
3 480 491 492
3 492 493 481
3 481 494 482
3 494 483 482
3 495 485 483
3 496 497 485
3 498 486 497
3 499 487 486
3 500 501 487
3 501 488 479
3 488 502 503
3 502 490 503
3 504 491 490
3 491 505 493
3 493 506 494
3 506 495 494
3 495 507 496
3 507 498 496
3 498 508 499
3 499 509 500
3 500 510 511
3 510 488 511
3 512 513 502
3 513 504 502
3 514 515 504
3 516 505 515
3 505 517 506
3 517 518 506
3 519 507 518
3 520 521 507
3 522 508 521
3 508 523 509
3 509 524 510
3 524 512 510
3 525 526 513
3 513 527 514
3 514 528 516
3 528 529 516
3 530 517 529
3 531 519 517
3 532 520 519
3 533 522 520
3 522 534 535
3 535 536 523
3 536 524 523
3 537 525 524
3 538 539 526
3 539 527 526
3 540 528 527
3 541 530 528
3 542 531 530
3 543 532 531
3 532 544 533
3 533 545 546
3 546 547 534
3 547 536 534
3 536 548 537
3 548 538 537
3 549 550 539
3 550 540 539
3 540 551 541
3 541 552 542
3 542 553 543
3 543 554 555
3 554 544 555
3 556 545 544
3 557 547 545
3 558 559 547
3 560 548 559
3 561 549 548
3 562 550 563
3 564 565 550
3 566 551 565
3 567 552 551
3 552 568 553
3 568 554 553
3 569 556 554
3 570 557 556
3 571 558 557
3 572 560 558
3 560 573 561
3 573 563 561
3 2 564 562
3 1 566 564
3 4 567 566
3 567 7 574
3 7 568 574
3 9 569 568
3 11 570 569
3 570 15 571
3 15 572 571
3 572 18 575
3 18 573 575
3 20 562 573
3 0 3 1
3 3 23 4
3 4 23 5
3 5 8 7
3 8 10 9
3 10 12 11
3 12 14 13
3 14 29 15
3 15 29 16
3 16 19 18
3 19 33 20
3 20 33 0
3 0 36 21
3 3 21 22
3 23 22 24
3 5 24 25
3 8 25 26
3 10 26 27
3 27 28 14
3 28 30 29
3 30 31 16
3 31 32 19
3 32 34 33
3 34 36 0
3 35 37 21
3 37 38 22
3 38 39 24
3 39 40 25
3 40 41 26
3 41 42 27
3 42 50 28
3 28 50 43
3 43 52 31
3 31 52 44
3 44 55 34
3 34 55 35
3 45 57 37
3 37 57 46
3 46 47 39
3 47 48 40
3 48 61 41
3 41 61 49
3 49 64 50
3 50 64 51
3 51 53 52
3 53 54 44
3 54 69 55
3 55 69 45
3 56 58 57
3 58 59 46
3 59 73 47
3 47 73 60
3 60 62 61
3 62 63 49
3 63 65 64
3 65 66 51
3 66 67 53
3 67 80 54
3 54 80 68
3 69 68 56
3 70 71 58
3 71 72 59
3 72 74 73
3 74 75 60
3 75 76 62
3 76 88 63
3 63 88 77
3 65 77 78
3 66 78 79
3 79 91 80
3 80 91 81
3 68 81 70
3 82 83 71
3 83 84 72
3 84 85 74
3 85 95 75
3 75 95 86
3 76 86 87
3 87 89 77
3 89 100 78
3 78 100 90
3 90 102 91
3 91 102 92
3 92 82 70
3 82 105 93
3 93 107 84
3 84 107 94
3 94 96 95
3 96 97 86
3 97 98 87
3 98 99 89
3 99 114 100
3 100 114 101
3 101 103 102
3 103 104 92
3 104 105 82
3 105 118 106
3 106 108 107
3 108 109 94
3 109 110 96
3 110 111 97
3 111 123 98
3 98 123 112
3 99 112 113
3 113 115 101
3 115 127 103
3 103 127 116
3 116 118 105
3 117 130 106
3 106 130 119
3 119 120 109
3 120 121 110
3 121 135 111
3 111 135 122
3 123 122 124
3 112 124 125
3 125 126 115
3 126 139 127
3 127 139 128
3 128 117 118
3 117 142 129
3 130 129 131
3 119 131 132
3 120 132 133
3 121 133 134
3 135 134 136
3 136 137 124
3 137 149 125
3 125 149 138
3 138 140 139
3 140 141 128
3 141 142 117
3 142 153 143
3 143 144 131
3 144 156 132
3 132 156 145
3 133 145 146
3 146 147 136
3 147 148 137
3 148 150 149
3 150 151 138
3 151 163 140
3 140 163 152
3 152 153 142
3 153 167 154
3 154 155 144
3 155 157 156
3 157 158 145
3 158 159 146
3 159 160 147
3 160 161 148
3 161 173 150
3 150 173 162
3 162 164 163
3 164 165 152
3 165 167 153
3 166 179 154
3 154 179 168
3 168 181 157
3 157 181 169
3 169 170 159
3 170 171 160
3 171 172 161
3 172 174 173
3 174 175 162
3 175 176 164
3 176 177 165
3 177 166 167
3 178 190 179
3 179 190 180
3 180 182 181
3 182 183 169
3 183 184 170
3 184 185 171
3 185 195 172
3 172 195 186
3 174 186 187
3 175 187 188
3 188 199 177
3 177 199 178
3 189 202 190
3 190 202 191
3 180 191 192
3 192 205 183
3 183 205 193
3 193 208 185
3 185 208 194
3 194 196 186
3 196 197 187
3 197 198 188
3 198 200 199
3 200 189 178
3 201 213 202
3 202 213 203
3 191 203 204
3 204 206 205
3 206 218 193
3 193 218 207
3 207 220 194
3 194 220 209
3 196 209 210
3 197 210 211
3 211 224 200
3 200 224 201
3 212 214 213
3 214 215 203
3 215 216 204
3 216 217 206
3 217 229 218
3 218 229 219
3 219 232 220
3 220 232 221
3 209 221 222
3 210 222 223
3 223 237 224
3 224 237 212
3 225 239 214
3 214 239 226
3 226 227 216
3 227 228 217
3 228 230 229
3 230 231 219
3 231 233 232
3 233 234 221
3 234 235 222
3 235 236 223
3 236 248 237
3 237 248 225
3 238 250 239
3 239 250 240
3 226 240 241
3 227 241 242
3 228 242 243
3 243 256 231
3 231 256 244
3 244 245 234
3 245 246 235
3 246 247 236
3 247 262 248
3 248 262 238
3 249 251 250
3 251 252 240
3 252 253 241
3 253 254 242
3 254 255 243
3 255 269 256
3 256 269 257
3 244 257 258
3 245 258 259
3 246 259 260
3 247 260 261
3 262 261 249
3 249 276 263
3 251 263 264
3 252 264 265
3 253 265 266
3 254 266 267
3 255 267 268
3 268 270 257
3 270 271 258
3 271 272 259
3 272 273 260
3 273 274 261
3 274 276 249
3 275 277 263
3 277 287 264
3 264 287 278
3 278 279 266
3 279 291 267
3 267 291 280
3 280 281 270
3 281 282 271
3 282 283 272
3 283 297 273
3 273 297 284
3 284 275 276
3 285 286 277
3 286 288 287
3 288 289 278
3 289 290 279
3 290 292 291
3 292 293 280
3 293 304 281
3 281 304 294
3 282 294 295
3 283 295 296
3 297 296 298
3 284 298 285
3 299 300 286
3 300 311 288
3 288 311 301
3 289 301 302
3 302 314 292
3 292 314 303
3 303 305 304
3 305 306 294
3 306 307 295
3 307 308 296
3 308 320 298
3 298 320 299
3 309 323 300
3 300 323 310
3 310 312 301
3 312 313 302
3 313 328 314
3 314 328 315
3 315 316 305
3 316 317 306
3 317 318 307
3 318 319 308
3 319 321 320
3 321 309 299
3 322 324 323
3 324 325 310
3 325 326 312
3 326 327 313
3 327 329 328
3 329 330 315
3 330 341 316
3 316 341 331
3 317 331 332
3 318 332 333
3 333 334 321
3 334 322 309
3 322 347 335
3 324 335 336
3 325 336 337
3 326 337 338
3 327 338 339
3 339 340 330
3 340 342 341
3 342 343 331
3 343 344 332
3 344 345 333
3 345 346 334
3 346 347 322
3 347 357 348
3 348 349 336
3 349 350 337
3 350 351 338
3 351 352 339
3 352 353 340
3 353 363 342
3 342 363 354
3 354 366 344
3 344 366 355
3 355 356 346
3 356 357 347
3 357 370 358
3 358 359 349
3 359 373 350
3 350 373 360
3 360 361 352
3 361 362 353
3 362 364 363
3 364 365 354
3 365 367 366
3 367 379 355
3 355 379 368
3 368 370 357
3 369 383 358
3 358 383 371
3 359 371 372
3 373 372 374
3 360 374 375
3 375 386 362
3 362 386 376
3 376 377 365
3 377 378 367
3 378 380 379
3 380 381 368
3 381 369 370
3 369 391 382
3 382 393 371
3 371 393 384
3 384 396 374
3 374 396 385
3 385 399 386
3 386 399 387
3 387 401 377
3 377 401 388
3 388 403 380
3 380 403 389
3 389 391 369
3 390 392 382
3 392 394 393
3 394 395 384
3 395 397 396
3 397 409 385
3 385 409 398
3 398 411 387
3 387 411 400
3 400 413 388
3 388 413 402
3 403 402 404
3 404 390 391
3 405 417 392
3 392 417 406
3 406 407 395
3 407 421 397
3 397 421 408
3 408 423 398
3 398 423 410
3 411 410 412
3 412 427 413
3 413 427 414
3 414 415 404
3 415 405 390
3 416 418 417
3 418 419 406
3 419 420 407
3 420 433 421
3 421 433 422
3 422 435 423
3 423 435 424
3 410 424 425
3 412 425 426
3 427 426 428
3 428 441 415
3 415 441 416
3 429 443 418
3 418 443 430
3 419 430 431
3 420 431 432
3 433 432 434
3 434 436 435
3 436 437 424
3 437 438 425
3 438 439 426
3 439 440 428
3 440 452 441
3 441 452 429
3 442 444 443
3 444 455 430
3 430 455 445
3 445 446 432
3 446 447 434
3 447 459 436
3 436 459 448
3 437 448 449
3 438 449 450
3 450 451 440
3 451 465 452
3 452 465 442
3 453 454 444
3 454 468 455
3 455 468 456
3 445 456 457
3 457 458 447
3 458 460 459
3 460 461 448
3 461 462 449
3 462 463 450
3 463 477 451
3 451 477 464
3 464 453 442
3 466 467 454
3 467 469 468
3 469 470 456
3 470 471 457
3 471 472 458
3 472 484 460
3 460 484 473
3 461 473 474
3 462 474 475
3 463 475 476
3 477 476 478
3 478 466 453
3 479 489 467
3 467 489 480
3 480 492 470
3 470 492 481
3 471 481 482
3 472 482 483
3 483 485 473
3 485 497 474
3 474 497 486
3 486 487 476
3 487 501 478
3 478 501 479
3 488 503 489
3 489 503 490
3 480 490 491
3 492 491 493
3 481 493 494
3 494 495 483
3 495 496 485
3 496 498 497
3 498 499 486
3 499 500 487
3 500 511 501
3 501 511 488
3 488 512 502
3 502 504 490
3 504 515 491
3 491 515 505
3 493 505 506
3 506 518 495
3 495 518 507
3 507 521 498
3 498 521 508
3 499 508 509
3 500 509 510
3 510 512 488
3 512 525 513
3 513 514 504
3 514 516 515
3 516 529 505
3 505 529 517
3 517 519 518
3 519 520 507
3 520 522 521
3 522 535 508
3 508 535 523
3 509 523 524
3 524 525 512
3 525 538 526
3 513 526 527
3 514 527 528
3 528 530 529
3 530 531 517
3 531 532 519
3 532 533 520
3 533 546 522
3 522 546 534
3 535 534 536
3 536 537 524
3 537 538 525
3 538 549 539
3 539 540 527
3 540 541 528
3 541 542 530
3 542 543 531
3 543 555 532
3 532 555 544
3 533 544 545
3 546 545 547
3 547 559 536
3 536 559 548
3 548 549 538
3 549 563 550
3 550 565 540
3 540 565 551
3 541 551 552
3 542 552 553
3 543 553 554
3 554 556 544
3 556 557 545
3 557 558 547
3 558 560 559
3 560 561 548
3 561 563 549
3 562 564 550
3 564 566 565
3 566 567 551
3 567 574 552
3 552 574 568
3 568 569 554
3 569 570 556
3 570 571 557
3 571 572 558
3 572 575 560
3 560 575 573
3 573 562 563
3 2 1 564
3 1 4 566
3 4 6 567
3 567 6 7
3 7 9 568
3 9 11 569
3 11 13 570
3 570 13 15
3 15 17 572
3 572 17 18
3 18 20 573
3 20 2 562
