ply
format ascii 1.0
comment Created by Blender 2.78 (sub 0) - www.blender.org, source file: ''
element vertex 576
property float x
property float y
property float z
element face 1152
property list uchar uint vertex_indices
end_header
1.150000 0.000000 0.000000
1.120237 0.147482 0.075000
1.129904 0.000000 0.075000
1.075000 0.000000 0.129904
1.065803 0.140316 0.129904
1.000000 0.000000 0.150000
0.991445 0.130526 0.150000
0.925000 0.000000 0.129904
0.862652 0.113570 0.075000
0.870096 0.000000 0.075000
0.850000 0.000000 0.000000
0.842728 0.110947 0.000000
0.870096 0.000000 -0.075000
0.862652 0.113570 -0.075000
0.925000 0.000000 -0.129904
0.991445 0.130526 -0.150000
1.000000 0.000000 -0.150000
1.075000 0.000000 -0.129904
1.120237 0.147482 -0.075000
1.129904 0.000000 -0.075000
1.140162 0.150105 0.000000
1.110815 0.297642 0.000000
1.038370 0.278230 0.129904
0.893481 0.239408 0.129904
0.917087 0.120737 0.129904
0.840448 0.225197 0.075000
0.840448 0.225197 -0.075000
0.917087 0.120737 -0.129904
0.893481 0.239408 -0.129904
1.038370 0.278230 -0.129904
1.065803 0.140316 -0.129904
1.091403 0.292441 -0.075000
1.062462 0.440086 0.000000
1.091403 0.292441 0.075000
0.993171 0.411385 0.129904
0.923880 0.382683 0.150000
0.965926 0.258819 0.150000
0.803864 0.332971 0.075000
0.821037 0.219996 0.000000
0.785298 0.325281 0.000000
0.803864 0.332971 -0.075000
0.923880 0.382683 -0.150000
0.965926 0.258819 -0.150000
0.993171 0.411385 -0.129904
0.995929 0.575000 0.000000
1.043895 0.432395 0.075000
0.930977 0.537500 0.129904
0.801073 0.462500 0.129904
0.854589 0.353982 0.129904
0.753525 0.435048 0.075000
0.736122 0.425000 0.000000
0.801073 0.462500 -0.129904
0.854589 0.353982 -0.129904
0.930977 0.537500 -0.129904
1.043895 0.432395 -0.075000
0.912356 0.700076 0.000000
0.978525 0.564952 0.075000
0.896413 0.687842 0.075000
0.793353 0.608761 0.150000
0.866025 0.500000 0.150000
0.733852 0.563104 0.129904
0.690294 0.529681 0.075000
0.674350 0.517447 0.000000
0.753525 0.435048 -0.075000
0.690294 0.529681 -0.075000
0.733852 0.563104 -0.129904
0.866025 0.500000 -0.150000
0.793353 0.608761 -0.150000
0.852855 0.654418 -0.129904
0.978525 0.564952 -0.075000
0.813173 0.813173 0.000000
0.760140 0.760140 0.129904
0.852855 0.654418 0.129904
0.707107 0.707107 0.150000
0.654074 0.654074 0.129904
0.615251 0.615251 0.075000
0.615251 0.615251 -0.075000
0.654074 0.654074 -0.129904
0.707107 0.707107 -0.150000
0.760140 0.760140 -0.129904
0.896413 0.687842 -0.075000
0.700076 0.912356 0.000000
0.798963 0.798963 0.075000
0.654419 0.852855 0.129904
0.608762 0.793353 0.150000
0.563104 0.733852 0.129904
0.517447 0.674350 0.000000
0.601041 0.601041 0.000000
0.529681 0.690294 -0.075000
0.608762 0.793353 -0.150000
0.654419 0.852855 -0.129904
0.798963 0.798963 -0.075000
0.687842 0.896413 -0.075000
0.564952 0.978525 0.075000
0.687842 0.896413 0.075000
0.537500 0.930977 0.129904
0.500000 0.866025 0.150000
0.462500 0.801073 0.129904
0.435048 0.753525 0.075000
0.529681 0.690294 0.075000
0.425000 0.736122 0.000000
0.435048 0.753525 -0.075000
0.563104 0.733852 -0.129904
0.462500 0.801073 -0.129904
0.500000 0.866025 -0.150000
0.537500 0.930977 -0.129904
0.564952 0.978525 -0.075000
0.440086 1.062461 0.000000
0.575000 0.995929 0.000000
0.411385 0.993170 0.129904
0.382684 0.923879 0.150000
0.353982 0.854588 0.129904
0.332972 0.803864 0.075000
0.332972 0.803864 -0.075000
0.382684 0.923879 -0.150000
0.411385 0.993170 -0.129904
0.432396 1.043895 -0.075000
0.292441 1.091403 0.075000
0.432396 1.043895 0.075000
0.278230 1.038370 0.129904
0.239408 0.893481 0.129904
0.225197 0.840448 0.075000
0.325281 0.785298 0.000000
0.225197 0.840448 -0.075000
0.353982 0.854588 -0.129904
0.239408 0.893481 -0.129904
0.258819 0.965926 -0.150000
0.278230 1.038370 -0.129904
0.292441 1.091403 -0.075000
0.297642 1.110815 0.000000
0.147482 1.120237 0.075000
0.130526 0.991445 0.150000
0.258819 0.965926 0.150000
0.120737 0.917087 0.129904
0.113570 0.862652 0.075000
0.219996 0.821037 0.000000
0.110947 0.842728 0.000000
0.113570 0.862652 -0.075000
0.120737 0.917087 -0.129904
0.130526 0.991445 -0.150000
0.147482 1.120237 -0.075000
0.150105 1.140162 0.000000
0.000000 1.129904 0.075000
0.140316 1.065803 0.129904
0.000000 1.000000 0.150000
0.000000 0.925000 0.129904
0.000000 0.850000 0.000000
0.000000 0.925000 -0.129904
0.000000 1.000000 -0.150000
0.140316 1.065803 -0.129904
0.000000 1.129904 -0.075000
0.000000 1.150000 0.000000
-0.147482 1.120237 0.075000
0.000000 1.075000 0.129904
-0.140316 1.065803 0.129904
-0.130526 0.991445 0.150000
-0.120737 0.917086 0.129904
0.000000 0.870096 0.075000
-0.113571 0.862652 0.075000
-0.110947 0.842728 0.000000
0.000000 0.870096 -0.075000
-0.113571 0.862652 -0.075000
-0.130526 0.991445 -0.150000
0.000000 1.075000 -0.129904
-0.147482 1.120237 -0.075000
-0.150105 1.140162 0.000000
-0.292441 1.091403 0.075000
-0.278230 1.038370 0.129904
-0.239408 0.893481 0.129904
-0.225197 0.840448 0.075000
-0.219996 0.821037 0.000000
-0.225197 0.840448 -0.075000
-0.120737 0.917086 -0.129904
-0.239408 0.893481 -0.129904
-0.258819 0.965926 -0.150000
-0.140316 1.065803 -0.129904
-0.292441 1.091403 -0.075000
-0.297642 1.110815 0.000000
-0.432396 1.043895 0.075000
-0.411385 0.993171 0.129904
-0.258819 0.965926 0.150000
-0.382684 0.923880 0.150000
-0.353982 0.854589 0.129904
-0.332972 0.803864 0.075000
-0.325281 0.785298 0.000000
-0.353982 0.854589 -0.129904
-0.382684 0.923880 -0.150000
-0.411385 0.993171 -0.129904
-0.278230 1.038370 -0.129904
-0.432396 1.043895 -0.075000
-0.440086 1.062461 0.000000
-0.564952 0.978526 0.075000
-0.500000 0.866026 0.150000
-0.462500 0.801074 0.129904
-0.435048 0.753525 0.075000
-0.425000 0.736122 0.000000
-0.332972 0.803864 -0.075000
-0.462500 0.801074 -0.129904
-0.500000 0.866026 -0.150000
-0.564952 0.978526 -0.075000
-0.575000 0.995929 0.000000
-0.687842 0.896413 0.075000
-0.537500 0.930977 0.129904
-0.654419 0.852855 0.129904
-0.608761 0.793353 0.150000
-0.563104 0.733852 0.129904
-0.517447 0.674350 0.000000
-0.435048 0.753525 -0.075000
-0.563104 0.733852 -0.129904
-0.608761 0.793353 -0.150000
-0.537500 0.930977 -0.129904
-0.687842 0.896413 -0.075000
-0.813173 0.813173 0.000000
-0.700076 0.912356 0.000000
-0.798963 0.798962 0.075000
-0.760140 0.760140 0.129904
-0.707107 0.707107 0.150000
-0.615251 0.615251 0.075000
-0.529681 0.690294 0.075000
-0.601041 0.601041 0.000000
-0.529681 0.690294 -0.075000
-0.654074 0.654074 -0.129904
-0.707107 0.707107 -0.150000
-0.654419 0.852855 -0.129904
-0.798963 0.798962 -0.075000
-0.912356 0.700076 0.000000
-0.896413 0.687842 0.075000
-0.852855 0.654419 0.129904
-0.733852 0.563104 0.129904
-0.654074 0.654074 0.129904
-0.690294 0.529681 0.075000
-0.690294 0.529681 -0.075000
-0.615251 0.615251 -0.075000
-0.733852 0.563104 -0.129904
-0.852855 0.654419 -0.129904
-0.760140 0.760140 -0.129904
-0.978525 0.564952 0.075000
-0.930977 0.537500 0.129904
-0.793353 0.608761 0.150000
-0.801073 0.462500 0.129904
-0.753525 0.435048 0.075000
-0.674350 0.517447 0.000000
-0.753525 0.435048 -0.075000
-0.801073 0.462500 -0.129904
-0.793353 0.608761 -0.150000
-0.930977 0.537500 -0.129904
-0.896413 0.687842 -0.075000
-0.978525 0.564952 -0.075000
-1.062461 0.440086 0.000000
-0.995929 0.575000 0.000000
-1.043895 0.432396 0.075000
-0.993170 0.411385 0.129904
-0.866025 0.500000 0.150000
-0.923879 0.382683 0.150000
-0.854589 0.353982 0.129904
-0.803864 0.332971 0.075000
-0.736122 0.425000 0.000000
-0.803864 0.332971 -0.075000
-0.854589 0.353982 -0.129904
-0.923879 0.382683 -0.150000
-0.866025 0.500000 -0.150000
-0.993170 0.411385 -0.129904
-1.043895 0.432396 -0.075000
-1.091403 0.292440 0.075000
-1.038370 0.278230 0.129904
-0.965926 0.258819 0.150000
-0.893481 0.239408 0.129904
-0.840448 0.225197 0.075000
-0.785298 0.325281 0.000000
-0.821037 0.219996 0.000000
-0.840448 0.225197 -0.075000
-0.893481 0.239408 -0.129904
-0.965926 0.258819 -0.150000
-1.038370 0.278230 -0.129904
-1.091403 0.292440 -0.075000
-1.140162 0.150105 0.000000
-1.110815 0.297642 0.000000
-1.120237 0.147482 0.075000
-1.065803 0.140316 0.129904
-0.917087 0.120737 0.129904
-0.862652 0.113570 0.075000
-0.842728 0.110947 0.000000
-0.862652 0.113570 -0.075000
-0.917087 0.120737 -0.129904
-0.991445 0.130526 -0.150000
-1.120237 0.147482 -0.075000
-1.150000 0.000000 0.000000
-1.129904 0.000000 0.075000
-1.075000 0.000000 0.129904
-0.991445 0.130526 0.150000
-1.000000 0.000000 0.150000
-0.925000 0.000000 0.129904
-0.870096 0.000000 0.075000
-0.850000 0.000000 0.000000
-0.925000 0.000000 -0.129904
-1.000000 0.000000 -0.150000
-1.075000 0.000000 -0.129904
-1.065803 0.140316 -0.129904
-1.129904 0.000000 -0.075000
-1.120237 -0.147482 0.075000
-0.991445 -0.130526 0.150000
-0.862652 -0.113570 0.075000
-0.842728 -0.110947 0.000000
-0.870096 0.000000 -0.075000
-0.862652 -0.113570 -0.075000
-0.917087 -0.120737 -0.129904
-0.991445 -0.130526 -0.150000
-1.120237 -0.147482 -0.075000
-1.140162 -0.150105 0.000000
-1.091403 -0.292440 0.075000
-1.038370 -0.278230 0.129904
-1.065803 -0.140316 0.129904
-0.965926 -0.258819 0.150000
-0.917087 -0.120737 0.129904
-0.893481 -0.239408 0.129904
-0.821037 -0.219996 0.000000
-0.840448 -0.225197 -0.075000
-0.965926 -0.258819 -0.150000
-1.065803 -0.140316 -0.129904
-1.038370 -0.278230 -0.129904
-1.091403 -0.292440 -0.075000
-1.062462 -0.440086 0.000000
-1.110815 -0.297642 0.000000
-1.043895 -0.432395 0.075000
-0.993171 -0.411384 0.129904
-0.923880 -0.382683 0.150000
-0.803864 -0.332971 0.075000
-0.840448 -0.225197 0.075000
-0.803864 -0.332971 -0.075000
-0.893481 -0.239408 -0.129904
-0.923880 -0.382683 -0.150000
-0.993171 -0.411384 -0.129904
-1.043895 -0.432395 -0.075000
-0.995929 -0.575000 0.000000
-0.930978 -0.537500 0.129904
-0.801074 -0.462500 0.129904
-0.854589 -0.353982 0.129904
-0.753526 -0.435048 0.075000
-0.785298 -0.325281 0.000000
-0.736122 -0.425000 0.000000
-0.753526 -0.435048 -0.075000
-0.854589 -0.353982 -0.129904
-0.801074 -0.462500 -0.129904
-0.866026 -0.500000 -0.150000
-0.930978 -0.537500 -0.129904
-0.912356 -0.700076 0.000000
-0.978526 -0.564952 0.075000
-0.896413 -0.687842 0.075000
-0.852855 -0.654419 0.129904
-0.866026 -0.500000 0.150000
-0.733852 -0.563104 0.129904
-0.690294 -0.529681 0.075000
-0.674350 -0.517447 0.000000
-0.733852 -0.563104 -0.129904
-0.793353 -0.608761 -0.150000
-0.852855 -0.654419 -0.129904
-0.978526 -0.564952 -0.075000
-0.798963 -0.798962 0.075000
-0.760140 -0.760140 0.129904
-0.793353 -0.608761 0.150000
-0.654074 -0.654074 0.129904
-0.615251 -0.615251 0.075000
-0.601041 -0.601041 0.000000
-0.690294 -0.529681 -0.075000
-0.615251 -0.615251 -0.075000
-0.654074 -0.654074 -0.129904
-0.707107 -0.707107 -0.150000
-0.798963 -0.798962 -0.075000
-0.896413 -0.687842 -0.075000
-0.700076 -0.912356 0.000000
-0.813173 -0.813173 0.000000
-0.654419 -0.852855 0.129904
-0.608762 -0.793353 0.150000
-0.707107 -0.707107 0.150000
-0.563105 -0.733852 0.129904
-0.517448 -0.674350 0.000000
-0.563105 -0.733852 -0.129904
-0.608762 -0.793353 -0.150000
-0.760140 -0.760140 -0.129904
-0.654419 -0.852855 -0.129904
-0.687842 -0.896413 -0.075000
-0.575000 -0.995929 0.000000
-0.687842 -0.896413 0.075000
-0.564952 -0.978526 0.075000
-0.537500 -0.930977 0.129904
-0.500000 -0.866026 0.150000
-0.462500 -0.801074 0.129904
-0.529681 -0.690293 0.075000
-0.425000 -0.736122 0.000000
-0.529681 -0.690293 -0.075000
-0.435048 -0.753525 -0.075000
-0.462500 -0.801074 -0.129904
-0.537500 -0.930977 -0.129904
-0.440086 -1.062461 0.000000
-0.411385 -0.993171 0.129904
-0.382684 -0.923880 0.150000
-0.332972 -0.803864 0.075000
-0.435048 -0.753525 0.075000
-0.325281 -0.785298 0.000000
-0.332972 -0.803864 -0.075000
-0.382684 -0.923880 -0.150000
-0.500000 -0.866026 -0.150000
-0.411385 -0.993171 -0.129904
-0.564952 -0.978526 -0.075000
-0.297642 -1.110815 0.000000
-0.432396 -1.043895 0.075000
-0.292441 -1.091403 0.075000
-0.278231 -1.038370 0.129904
-0.258819 -0.965926 0.150000
-0.353982 -0.854589 0.129904
-0.239408 -0.893481 0.129904
-0.225198 -0.840448 0.075000
-0.225198 -0.840448 -0.075000
-0.353982 -0.854589 -0.129904
-0.239408 -0.893481 -0.129904
-0.278231 -1.038370 -0.129904
-0.432396 -1.043895 -0.075000
-0.150106 -1.140161 0.000000
-0.147483 -1.120237 0.075000
-0.130527 -0.991445 0.150000
-0.120737 -0.917086 0.129904
-0.113571 -0.862652 0.075000
-0.219996 -0.821037 0.000000
-0.110948 -0.842728 0.000000
-0.120737 -0.917086 -0.129904
-0.130527 -0.991445 -0.150000
-0.258819 -0.965926 -0.150000
-0.147483 -1.120237 -0.075000
-0.292441 -1.091403 -0.075000
0.000000 -1.150000 0.000000
0.000000 -1.075000 0.129904
-0.140316 -1.065803 0.129904
0.000000 -1.000000 0.150000
0.000000 -0.925000 0.129904
0.000000 -0.870096 0.075000
0.000000 -0.870096 -0.075000
-0.113571 -0.862652 -0.075000
0.000000 -0.925000 -0.129904
0.000000 -1.000000 -0.150000
-0.140316 -1.065803 -0.129904
0.000000 -1.075000 -0.129904
0.150105 -1.140162 0.000000
0.000000 -1.129904 0.075000
0.140316 -1.065803 0.129904
0.130526 -0.991445 0.150000
0.113570 -0.862652 0.075000
0.000000 -0.850000 0.000000
0.113570 -0.862652 -0.075000
0.120737 -0.917087 -0.129904
0.140316 -1.065803 -0.129904
0.000000 -1.129904 -0.075000
0.297641 -1.110815 0.000000
0.147482 -1.120237 0.075000
0.278230 -1.038370 0.129904
0.258819 -0.965926 0.150000
0.120737 -0.917087 0.129904
0.225197 -0.840448 0.075000
0.110947 -0.842728 0.000000
0.225197 -0.840448 -0.075000
0.258819 -0.965926 -0.150000
0.130526 -0.991445 -0.150000
0.278230 -1.038370 -0.129904
0.147482 -1.120237 -0.075000
0.440086 -1.062461 0.000000
0.292440 -1.091403 0.075000
0.432396 -1.043895 0.075000
0.411385 -0.993170 0.129904
0.382684 -0.923879 0.150000
0.239407 -0.893481 0.129904
0.353982 -0.854588 0.129904
0.332972 -0.803864 0.075000
0.219996 -0.821037 0.000000
0.325281 -0.785298 0.000000
0.353982 -0.854588 -0.129904
0.239407 -0.893481 -0.129904
0.382684 -0.923879 -0.150000
0.432396 -1.043895 -0.075000
0.292440 -1.091403 -0.075000
0.575000 -0.995929 0.000000
0.564952 -0.978525 0.075000
0.500000 -0.866025 0.150000
0.462500 -0.801073 0.129904
0.425000 -0.736122 0.000000
0.332972 -0.803864 -0.075000
0.435048 -0.753525 -0.075000
0.462500 -0.801073 -0.129904
0.500000 -0.866025 -0.150000
0.411385 -0.993170 -0.129904
0.564952 -0.978525 -0.075000
0.700075 -0.912356 0.000000
0.687842 -0.896413 0.075000
0.537500 -0.930977 0.129904
0.608761 -0.793354 0.150000
0.563104 -0.733852 0.129904
0.529681 -0.690294 0.075000
0.435048 -0.753525 0.075000
0.517447 -0.674351 0.000000
0.529681 -0.690294 -0.075000
0.563104 -0.733852 -0.129904
0.608761 -0.793354 -0.150000
0.537500 -0.930977 -0.129904
0.687842 -0.896413 -0.075000
0.798962 -0.798963 0.075000
0.654418 -0.852855 0.129904
0.760139 -0.760140 0.129904
0.654073 -0.654074 0.129904
0.615251 -0.615251 0.075000
0.615251 -0.615251 -0.075000
0.654073 -0.654074 -0.129904
0.707106 -0.707107 -0.150000
0.654418 -0.852855 -0.129904
0.760139 -0.760140 -0.129904
0.798962 -0.798963 -0.075000
0.912356 -0.700076 0.000000
0.813172 -0.813173 0.000000
0.896413 -0.687842 0.075000
0.852855 -0.654418 0.129904
0.707106 -0.707107 0.150000
0.793353 -0.608761 0.150000
0.733852 -0.563104 0.129904
0.690294 -0.529681 0.075000
0.601041 -0.601041 0.000000
0.674350 -0.517447 0.000000
0.733852 -0.563104 -0.129904
0.793353 -0.608761 -0.150000
0.896413 -0.687842 -0.075000
0.978525 -0.564952 0.075000
0.930977 -0.537500 0.129904
0.866025 -0.500000 0.150000
0.801073 -0.462500 0.129904
0.753525 -0.435048 0.075000
0.736122 -0.425000 0.000000
0.690294 -0.529681 -0.075000
0.801073 -0.462500 -0.129904
0.866025 -0.500000 -0.150000
0.930977 -0.537500 -0.129904
0.852855 -0.654418 -0.129904
0.978525 -0.564952 -0.075000
0.995929 -0.575000 0.000000
1.043895 -0.432396 0.075000
0.923879 -0.382684 0.150000
0.803864 -0.332972 0.075000
0.785298 -0.325281 0.000000
0.753525 -0.435048 -0.075000
0.803864 -0.332972 -0.075000
0.923879 -0.382684 -0.150000
1.043895 -0.432396 -0.075000
1.062461 -0.440086 0.000000
1.091403 -0.292440 0.075000
0.993170 -0.411385 0.129904
0.965926 -0.258819 0.150000
0.854588 -0.353983 0.129904
0.893481 -0.239407 0.129904
0.840448 -0.225197 0.075000
0.840448 -0.225197 -0.075000
0.854588 -0.353983 -0.129904
0.893481 -0.239407 -0.129904
0.965926 -0.258819 -0.150000
0.993170 -0.411385 -0.129904
1.038370 -0.278230 -0.129904
1.091403 -0.292440 -0.075000
1.140162 -0.150105 0.000000
1.110815 -0.297642 0.000000
1.065803 -0.140316 0.129904
1.038370 -0.278230 0.129904
0.991445 -0.130526 0.150000
0.917087 -0.120737 0.129904
0.862652 -0.113570 0.075000
0.821037 -0.219996 0.000000
0.842728 -0.110947 0.000000
0.917087 -0.120737 -0.129904
0.991445 -0.130526 -0.150000
1.065803 -0.140316 -0.129904
1.120237 -0.147482 -0.075000
1.120237 -0.147482 0.075000
0.862652 -0.113570 -0.075000
3 0 1 2
3 1 3 2
3 4 5 3
3 6 7 5
3 7 8 9
3 8 10 9
3 11 12 10
3 13 14 12
3 14 15 16
3 15 17 16
3 17 18 19
3 19 20 0
3 21 1 20
3 1 22 4
3 22 6 4
3 6 23 24
3 24 25 8
3 25 11 8
3 11 26 13
3 26 27 13
3 28 15 27
3 15 29 30
3 29 18 30
3 31 20 18
3 32 33 21
3 33 34 22
3 22 35 36
3 35 23 36
3 23 37 25
3 37 38 25
3 39 26 38
3 40 28 26
3 28 41 42
3 41 29 42
3 43 31 29
3 31 32 21
3 44 45 32
3 45 46 34
3 46 35 34
3 35 47 48
3 47 37 48
3 49 39 37
3 50 40 39
3 40 51 52
3 51 41 52
3 41 53 43
3 53 54 43
3 54 44 32
3 55 56 44
3 57 46 56
3 46 58 59
3 59 60 47
3 47 61 49
3 49 62 50
3 62 63 50
3 64 51 63
3 65 66 51
3 67 53 66
3 68 69 53
3 69 55 44
3 70 57 55
3 57 71 72
3 71 58 72
3 73 60 58
3 74 61 60
3 75 62 61
3 62 76 64
3 64 77 65
3 65 78 67
3 67 79 68
3 79 80 68
3 80 70 55
3 81 82 70
3 82 83 71
3 83 73 71
3 84 74 73
3 85 75 74
3 75 86 87
3 86 76 87
3 88 77 76
3 77 89 78
3 78 90 79
3 90 91 79
3 92 70 91
3 81 93 94
3 94 95 83
3 83 96 84
3 84 97 85
3 85 98 99
3 99 100 86
3 100 88 86
3 101 102 88
3 103 89 102
3 104 90 89
3 105 92 90
3 106 81 92
3 107 93 108
3 93 109 95
3 109 96 95
3 110 97 96
3 111 98 97
3 112 100 98
3 100 113 101
3 113 103 101
3 103 114 104
3 104 115 105
3 115 106 105
3 116 108 106
3 107 117 118
3 118 119 109
3 119 110 109
3 110 120 111
3 120 112 111
3 121 122 112
3 122 123 113
3 123 124 113
3 125 114 124
3 126 115 114
3 127 116 115
3 128 107 116
3 129 130 117
3 130 119 117
3 119 131 132
3 132 133 120
3 133 121 120
3 134 135 121
3 136 123 135
3 137 125 123
3 138 126 125
3 139 127 126
3 127 140 128
3 140 129 128
3 141 142 130
3 142 143 130
3 143 144 131
3 144 133 131
3 145 134 133
3 134 146 136
3 146 137 136
3 137 147 138
3 147 139 138
3 148 149 139
3 149 150 140
3 150 141 140
3 151 152 142
3 152 153 142
3 154 144 153
3 155 145 144
3 156 157 145
3 158 146 157
3 159 160 146
3 161 147 160
3 147 162 148
3 162 163 148
3 163 164 150
3 164 151 150
3 165 166 152
3 166 154 152
3 167 155 154
3 155 168 156
3 156 169 158
3 169 159 158
3 170 161 159
3 171 172 161
3 173 162 172
3 174 175 162
3 175 176 164
3 176 165 164
3 177 178 166
3 178 167 166
3 179 180 167
3 181 168 180
3 182 169 168
3 183 170 169
3 184 171 170
3 171 185 173
3 173 186 174
3 174 187 188
3 187 176 188
3 189 177 176
3 190 191 178
3 191 179 178
3 179 192 181
3 181 193 182
3 193 183 182
3 194 184 183
3 195 196 184
3 196 197 185
3 197 186 185
3 198 187 186
3 187 199 189
3 199 190 189
3 200 201 191
3 201 202 191
3 203 192 202
3 204 193 192
3 205 194 193
3 194 206 195
3 206 207 195
3 207 208 197
3 197 209 198
3 209 210 198
3 210 211 199
3 211 200 199
3 212 201 213
3 214 203 201
3 215 204 203
3 216 205 204
3 205 217 218
3 218 219 206
3 219 220 206
3 220 221 208
3 221 209 208
3 222 223 209
3 223 224 211
3 224 213 211
3 225 214 212
3 226 215 214
3 227 216 215
3 216 228 229
3 228 217 229
3 230 219 217
3 219 231 232
3 232 233 221
3 233 222 221
3 222 234 235
3 234 224 235
3 224 225 212
3 225 236 226
3 226 237 227
3 237 238 227
3 238 239 228
3 228 240 230
3 240 241 230
3 241 242 231
3 242 233 231
3 243 244 233
3 244 245 234
3 245 246 234
3 247 225 246
3 248 236 249
3 250 237 236
3 251 252 237
3 253 239 252
3 254 240 239
3 255 256 240
3 256 257 242
3 242 258 243
3 243 259 260
3 260 261 245
3 245 262 247
3 262 249 247
3 248 263 250
3 250 264 251
3 251 265 253
3 253 266 254
3 254 267 255
3 267 268 255
3 269 257 268
3 270 258 257
3 271 259 258
3 272 261 259
3 273 262 261
3 274 248 262
3 275 263 276
3 277 264 263
3 278 265 264
3 265 279 266
3 266 280 267
3 267 281 269
3 281 270 269
3 282 271 270
3 283 272 271
3 284 273 272
3 273 285 274
3 285 276 274
3 286 277 275
3 287 278 277
3 288 289 278
3 290 279 289
3 291 280 279
3 292 281 280
3 293 282 281
3 282 294 283
3 283 295 284
3 284 296 297
3 297 298 285
3 285 286 275
3 286 299 287
3 299 288 287
3 288 300 290
3 300 291 290
3 291 301 292
3 292 302 293
3 302 303 293
3 304 294 303
3 305 295 294
3 306 296 295
3 296 307 298
3 307 286 298
3 308 309 299
3 299 310 311
3 310 300 311
3 312 313 300
3 314 301 313
3 301 315 302
3 315 304 302
3 316 305 304
3 305 317 306
3 317 318 306
3 319 307 318
3 320 308 307
3 321 309 322
3 323 310 309
3 324 312 310
3 325 314 312
3 314 326 327
3 326 315 327
3 315 328 316
3 328 329 316
3 329 330 317
3 317 331 319
3 319 332 320
3 320 321 322
3 333 323 321
3 323 334 324
3 334 325 324
3 325 335 336
3 336 337 326
3 337 338 326
3 339 328 338
3 340 341 328
3 342 330 341
3 343 331 330
3 344 332 331
3 332 333 321
3 345 346 333
3 347 334 346
3 348 349 334
3 349 350 335
3 350 337 335
3 351 339 337
3 352 340 339
3 340 353 342
3 342 354 343
3 354 344 343
3 355 356 344
3 356 345 333
3 345 357 347
3 357 348 347
3 358 359 348
3 359 360 350
3 350 361 351
3 351 362 352
3 362 363 352
3 364 353 363
3 365 354 353
3 366 355 354
3 355 367 368
3 367 345 368
3 369 357 370
3 357 371 358
3 358 372 373
3 373 374 360
3 374 361 360
3 361 375 362
3 375 364 362
3 364 376 365
3 376 366 365
3 377 378 366
3 379 367 378
3 380 370 367
3 381 382 369
3 383 371 382
3 384 372 371
3 385 374 372
3 386 387 374
3 387 388 375
3 388 389 375
3 390 376 389
3 391 377 376
3 377 392 379
3 392 380 379
3 380 381 369
3 393 383 381
3 383 394 384
3 394 385 384
3 395 386 385
3 386 396 397
3 397 398 388
3 398 390 388
3 399 391 390
3 391 400 401
3 401 402 392
3 402 403 392
3 403 393 381
3 404 405 393
3 406 394 405
3 407 395 394
3 408 409 395
3 410 396 409
3 411 398 396
3 398 412 399
3 412 413 399
3 414 400 413
3 400 415 402
3 415 416 402
3 416 404 393
3 417 406 404
3 418 407 406
3 407 419 408
3 419 410 408
3 420 411 410
3 421 422 411
3 423 412 422
3 412 424 414
3 414 425 426
3 425 415 426
3 415 427 428
3 428 417 404
3 429 418 417
3 418 430 431
3 431 432 419
3 419 433 420
3 420 434 421
3 434 423 421
3 423 435 436
3 435 424 436
3 437 425 424
3 438 439 425
3 440 427 439
3 427 429 417
3 441 442 429
3 442 443 430
3 443 432 430
3 444 433 432
3 433 445 434
3 445 446 434
3 446 447 435
3 447 437 435
3 448 438 437
3 438 449 440
3 449 450 440
3 450 441 429
3 451 452 441
3 452 453 443
3 453 444 443
3 454 455 444
3 455 456 445
3 456 457 445
3 457 458 447
3 458 448 447
3 448 459 460
3 460 461 449
3 461 462 449
3 462 451 441
3 463 464 451
3 465 453 464
3 466 454 453
3 467 468 454
3 469 456 468
3 470 471 456
3 472 458 471
3 458 473 474
3 473 459 474
3 475 461 459
3 461 476 477
3 477 463 451
3 478 465 463
3 479 466 465
3 466 480 467
3 467 481 469
3 481 470 469
3 470 482 472
3 482 483 472
3 484 473 483
3 485 475 473
3 486 487 475
3 487 488 476
3 488 463 476
3 489 479 478
3 490 491 479
3 491 492 480
3 480 493 481
3 481 494 495
3 495 496 482
3 496 484 482
3 497 485 484
3 498 486 485
3 499 500 486
3 500 501 488
3 501 478 488
3 489 502 490
3 502 503 490
3 504 492 503
3 492 505 493
3 505 494 493
3 506 496 494
3 496 507 497
3 497 508 498
3 508 499 498
3 509 510 499
3 511 501 510
3 512 489 501
3 513 502 514
3 515 504 502
3 516 517 504
3 518 505 517
3 519 506 505
3 520 521 506
3 522 507 521
3 507 523 508
3 508 524 509
3 524 511 509
3 511 525 512
3 512 513 514
3 513 526 515
3 515 527 516
3 527 518 516
3 528 519 518
3 529 520 519
3 530 522 520
3 531 532 522
3 532 533 523
3 523 534 524
3 524 535 536
3 535 525 536
3 537 513 525
3 538 539 526
3 539 527 526
3 527 540 528
3 540 529 528
3 529 541 530
3 530 542 531
3 542 543 531
3 544 533 543
3 533 545 534
3 545 535 534
3 535 546 537
3 546 538 537
3 547 548 539
3 548 549 539
3 549 550 540
3 550 551 540
3 552 541 551
3 553 542 541
3 542 554 544
3 554 555 544
3 556 545 555
3 557 558 545
3 559 546 558
3 560 547 546
3 561 548 562
3 548 563 564
3 563 550 564
3 565 552 550
3 566 553 552
3 567 568 553
3 569 554 568
3 554 570 556
3 570 557 556
3 571 559 557
3 572 560 559
3 573 562 560
3 0 574 561
3 2 563 574
3 3 565 563
3 5 566 565
3 7 567 566
3 9 569 567
3 569 12 575
3 575 14 570
3 14 571 570
3 571 17 572
3 17 573 572
3 19 561 573
3 0 20 1
3 1 4 3
3 4 6 5
3 6 24 7
3 7 24 8
3 8 11 10
3 11 13 12
3 13 27 14
3 14 27 15
3 15 30 17
3 17 30 18
3 19 18 20
3 21 33 1
3 1 33 22
3 22 36 6
3 6 36 23
3 24 23 25
3 25 38 11
3 11 38 26
3 26 28 27
3 28 42 15
3 15 42 29
3 29 31 18
3 31 21 20
3 32 45 33
3 33 45 34
3 22 34 35
3 35 48 23
3 23 48 37
3 37 39 38
3 39 40 26
3 40 52 28
3 28 52 41
3 41 43 29
3 43 54 31
3 31 54 32
3 44 56 45
3 45 56 46
3 46 59 35
3 35 59 47
3 47 49 37
3 49 50 39
3 50 63 40
3 40 63 51
3 51 66 41
3 41 66 53
3 53 69 54
3 54 69 44
3 55 57 56
3 57 72 46
3 46 72 58
3 59 58 60
3 47 60 61
3 49 61 62
3 62 64 63
3 64 65 51
3 65 67 66
3 67 68 53
3 68 80 69
3 69 80 55
3 70 82 57
3 57 82 71
3 71 73 58
3 73 74 60
3 74 75 61
3 75 87 62
3 62 87 76
3 64 76 77
3 65 77 78
3 67 78 79
3 79 91 80
3 80 91 70
3 81 94 82
3 82 94 83
3 83 84 73
3 84 85 74
3 85 99 75
3 75 99 86
3 86 88 76
3 88 102 77
3 77 102 89
3 78 89 90
3 90 92 91
3 92 81 70
3 81 108 93
3 94 93 95
3 83 95 96
3 84 96 97
3 85 97 98
3 99 98 100
3 100 101 88
3 101 103 102
3 103 104 89
3 104 105 90
3 105 106 92
3 106 108 81
3 107 118 93
3 93 118 109
3 109 110 96
3 110 111 97
3 111 112 98
3 112 122 100
3 100 122 113
3 113 124 103
3 103 124 114
3 104 114 115
3 115 116 106
3 116 107 108
3 107 129 117
3 118 117 119
3 119 132 110
3 110 132 120
3 120 121 112
3 121 135 122
3 122 135 123
3 123 125 124
3 125 126 114
3 126 127 115
3 127 128 116
3 128 129 107
3 129 141 130
3 130 143 119
3 119 143 131
3 132 131 133
3 133 134 121
3 134 136 135
3 136 137 123
3 137 138 125
3 138 139 126
3 139 149 127
3 127 149 140
3 140 141 129
3 141 151 142
3 142 153 143
3 143 153 144
3 144 145 133
3 145 157 134
3 134 157 146
3 146 160 137
3 137 160 147
3 147 148 139
3 148 163 149
3 149 163 150
3 150 151 141
3 151 165 152
3 152 154 153
3 154 155 144
3 155 156 145
3 156 158 157
3 158 159 146
3 159 161 160
3 161 172 147
3 147 172 162
3 162 175 163
3 163 175 164
3 164 165 151
3 165 177 166
3 166 167 154
3 167 180 155
3 155 180 168
3 156 168 169
3 169 170 159
3 170 171 161
3 171 173 172
3 173 174 162
3 174 188 175
3 175 188 176
3 176 177 165
3 177 190 178
3 178 179 167
3 179 181 180
3 181 182 168
3 182 183 169
3 183 184 170
3 184 196 171
3 171 196 185
3 173 185 186
3 174 186 187
3 187 189 176
3 189 190 177
3 190 200 191
3 191 202 179
3 179 202 192
3 181 192 193
3 193 194 183
3 194 195 184
3 195 207 196
3 196 207 197
3 197 198 186
3 198 210 187
3 187 210 199
3 199 200 190
3 200 213 201
3 201 203 202
3 203 204 192
3 204 205 193
3 205 218 194
3 194 218 206
3 206 220 207
3 207 220 208
3 197 208 209
3 209 223 210
3 210 223 211
3 211 213 200
3 212 214 201
3 214 215 203
3 215 216 204
3 216 229 205
3 205 229 217
3 218 217 219
3 219 232 220
3 220 232 221
3 221 222 209
3 222 235 223
3 223 235 224
3 224 212 213
3 225 226 214
3 226 227 215
3 227 238 216
3 216 238 228
3 228 230 217
3 230 241 219
3 219 241 231
3 232 231 233
3 233 244 222
3 222 244 234
3 234 246 224
3 224 246 225
3 225 249 236
3 226 236 237
3 237 252 238
3 238 252 239
3 228 239 240
3 240 256 241
3 241 256 242
3 242 243 233
3 243 260 244
3 244 260 245
3 245 247 246
3 247 249 225
3 248 250 236
3 250 251 237
3 251 253 252
3 253 254 239
3 254 255 240
3 255 268 256
3 256 268 257
3 242 257 258
3 243 258 259
3 260 259 261
3 245 261 262
3 262 248 249
3 248 276 263
3 250 263 264
3 251 264 265
3 253 265 266
3 254 266 267
3 267 269 268
3 269 270 257
3 270 271 258
3 271 272 259
3 272 273 261
3 273 274 262
3 274 276 248
3 275 277 263
3 277 278 264
3 278 289 265
3 265 289 279
3 266 279 280
3 267 280 281
3 281 282 270
3 282 283 271
3 283 284 272
3 284 297 273
3 273 297 285
3 285 275 276
3 286 287 277
3 287 288 278
3 288 290 289
3 290 291 279
3 291 292 280
3 292 293 281
3 293 303 282
3 282 303 294
3 283 294 295
3 284 295 296
3 297 296 298
3 285 298 286
3 286 308 299
3 299 311 288
3 288 311 300
3 300 313 291
3 291 313 301
3 292 301 302
3 302 304 303
3 304 305 294
3 305 306 295
3 306 318 296
3 296 318 307
3 307 308 286
3 308 322 309
3 299 309 310
3 310 312 300
3 312 314 313
3 314 327 301
3 301 327 315
3 315 316 304
3 316 329 305
3 305 329 317
3 317 319 318
3 319 320 307
3 320 322 308
3 321 323 309
3 323 324 310
3 324 325 312
3 325 336 314
3 314 336 326
3 326 338 315
3 315 338 328
3 328 341 329
3 329 341 330
3 317 330 331
3 319 331 332
3 320 332 321
3 333 346 323
3 323 346 334
3 334 349 325
3 325 349 335
3 336 335 337
3 337 339 338
3 339 340 328
3 340 342 341
3 342 343 330
3 343 344 331
3 344 356 332
3 332 356 333
3 345 347 346
3 347 348 334
3 348 359 349
3 349 359 350
3 350 351 337
3 351 352 339
3 352 363 340
3 340 363 353
3 342 353 354
3 354 355 344
3 355 368 356
3 356 368 345
3 345 370 357
3 357 358 348
3 358 373 359
3 359 373 360
3 350 360 361
3 351 361 362
3 362 364 363
3 364 365 353
3 365 366 354
3 366 378 355
3 355 378 367
3 367 370 345
3 369 382 357
3 357 382 371
3 358 371 372
3 373 372 374
3 374 387 361
3 361 387 375
3 375 389 364
3 364 389 376
3 376 377 366
3 377 379 378
3 379 380 367
3 380 369 370
3 381 383 382
3 383 384 371
3 384 385 372
3 385 386 374
3 386 397 387
3 387 397 388
3 388 390 389
3 390 391 376
3 391 401 377
3 377 401 392
3 392 403 380
3 380 403 381
3 393 405 383
3 383 405 394
3 394 395 385
3 395 409 386
3 386 409 396
3 397 396 398
3 398 399 390
3 399 413 391
3 391 413 400
3 401 400 402
3 402 416 403
3 403 416 393
3 404 406 405
3 406 407 394
3 407 408 395
3 408 410 409
3 410 411 396
3 411 422 398
3 398 422 412
3 412 414 413
3 414 426 400
3 400 426 415
3 415 428 416
3 416 428 404
3 417 418 406
3 418 431 407
3 407 431 419
3 419 420 410
3 420 421 411
3 421 423 422
3 423 436 412
3 412 436 424
3 414 424 425
3 425 439 415
3 415 439 427
3 428 427 417
3 429 442 418
3 418 442 430
3 431 430 432
3 419 432 433
3 420 433 434
3 434 446 423
3 423 446 435
3 435 437 424
3 437 438 425
3 438 440 439
3 440 450 427
3 427 450 429
3 441 452 442
3 442 452 443
3 443 444 432
3 444 455 433
3 433 455 445
3 445 457 446
3 446 457 447
3 447 448 437
3 448 460 438
3 438 460 449
3 449 462 450
3 450 462 441
3 451 464 452
3 452 464 453
3 453 454 444
3 454 468 455
3 455 468 456
3 456 471 457
3 457 471 458
3 458 474 448
3 448 474 459
3 460 459 461
3 461 477 462
3 462 477 451
3 463 465 464
3 465 466 453
3 466 467 454
3 467 469 468
3 469 470 456
3 470 472 471
3 472 483 458
3 458 483 473
3 473 475 459
3 475 487 461
3 461 487 476
3 477 476 463
3 478 479 465
3 479 491 466
3 466 491 480
3 467 480 481
3 481 495 470
3 470 495 482
3 482 484 483
3 484 485 473
3 485 486 475
3 486 500 487
3 487 500 488
3 488 478 463
3 489 490 479
3 490 503 491
3 491 503 492
3 480 492 493
3 481 493 494
3 495 494 496
3 496 497 484
3 497 498 485
3 498 499 486
3 499 510 500
3 500 510 501
3 501 489 478
3 489 514 502
3 502 504 503
3 504 517 492
3 492 517 505
3 505 506 494
3 506 521 496
3 496 521 507
3 497 507 508
3 508 509 499
3 509 511 510
3 511 512 501
3 512 514 489
3 513 515 502
3 515 516 504
3 516 518 517
3 518 519 505
3 519 520 506
3 520 522 521
3 522 532 507
3 507 532 523
3 508 523 524
3 524 536 511
3 511 536 525
3 512 525 513
3 513 538 526
3 515 526 527
3 527 528 518
3 528 529 519
3 529 530 520
3 530 531 522
3 531 543 532
3 532 543 533
3 523 533 534
3 524 534 535
3 535 537 525
3 537 538 513
3 538 547 539
3 539 549 527
3 527 549 540
3 540 551 529
3 529 551 541
3 530 541 542
3 542 544 543
3 544 555 533
3 533 555 545
3 545 558 535
3 535 558 546
3 546 547 538
3 547 562 548
3 548 564 549
3 549 564 550
3 550 552 551
3 552 553 541
3 553 568 542
3 542 568 554
3 554 556 555
3 556 557 545
3 557 559 558
3 559 560 546
3 560 562 547
3 561 574 548
3 548 574 563
3 563 565 550
3 565 566 552
3 566 567 553
3 567 569 568
3 569 575 554
3 554 575 570
3 570 571 557
3 571 572 559
3 572 573 560
3 573 561 562
3 0 2 574
3 2 3 563
3 3 5 565
3 5 7 566
3 7 9 567
3 9 10 569
3 569 10 12
3 575 12 14
3 14 16 571
3 571 16 17
3 17 19 573
3 19 0 561
