ply
format ascii 1.0
comment Created by Blender 2.78 (sub 0) - www.blender.org, source file: ''
element vertex 12
property float x
property float y
property float z
element face 24
property list uchar uint vertex_indices
end_header
-1.000000 -1.000000 1.000000
1.000000 -1.000000 -1.000000
1.000000 -1.000000 1.000000
1.000000 1.000000 1.000000
1.000000 1.000000 -1.000000
-1.000000 -1.000000 -1.000000
-0.907614 -0.961733 1.000000
0.929292 -0.929292 1.000000
0.929292 -0.929292 -1.000000
0.961733 0.907614 1.000000
0.961733 0.907614 -1.000000
-0.907614 -0.961733 -1.000000
3 0 1 2
3 3 1 4
3 0 4 5
3 1 0 5
3 2 1 3
3 0 3 4
3 6 7 8
3 9 10 8
3 6 11 10
3 11 6 8
3 7 9 8
3 6 10 9
3 2 9 7
3 0 9 3
3 4 11 5
3 1 10 4
3 6 0 2
3 1 11 8
3 2 3 9
3 0 6 9
3 4 10 11
3 1 8 10
3 2 7 6
3 1 5 11
