ply
format ascii 1.0
comment Created by Blender 2.78 (sub 0) - www.blender.org, source file: ''
element vertex 12
property float x
property float y
property float z
element face 20
property list uchar uint vertex_indices
end_header
0.000000 1.000000 1.000000
0.866025 -0.500000 -1.000000
0.000000 1.000000 -1.000000
0.866025 -0.500000 1.000000
-0.866025 -0.500000 -1.000000
-0.866025 -0.500000 1.000000
-0.072057 0.958400 0.944533
-0.072057 0.958400 -0.944533
0.793968 -0.458400 -0.944533
0.793968 -0.458400 0.944533
-0.866025 -0.416797 -0.944533
-0.866025 -0.416797 0.944533
3 0 1 2
3 3 4 1
3 3 0 5
3 2 1 4
3 0 3 1
3 3 5 4
3 6 7 8
3 9 8 10
3 9 11 6
3 7 10 8
3 6 8 9
3 9 10 11
3 2 6 0
3 5 10 4
3 2 10 7
3 0 11 5
3 2 7 6
3 5 11 10
3 2 4 10
3 0 6 11
