ply
format ascii 1.0
comment Created by Blender 2.78 (sub 0) - www.blender.org, source file: ''
element vertex 12
property float x
property float y
property float z
element face 20
property list uchar uint vertex_indices
end_header
1.000000 -1.000000 -1.000000
-1.000000 -1.000000 -1.000000
1.000000 1.000000 -1.000000
1.000000 1.000000 1.000000
-1.000000 -1.000000 1.000000
1.000000 -1.000000 1.000000
0.942265 -0.942265 -0.942265
0.910559 1.000000 -0.955281
-1.000000 -0.910559 -0.955281
0.910559 1.000000 0.955281
0.942265 -0.942265 0.942265
-1.000000 -0.910559 0.955281
3 0 1 2
3 3 4 5
3 4 0 5
3 3 0 2
3 1 0 4
3 5 0 3
3 6 7 8
3 9 10 11
3 11 10 6
3 9 7 6
3 11 6 8
3 9 6 10
3 2 9 3
3 4 8 1
3 4 9 11
3 2 8 7
3 2 7 9
3 4 11 8
3 4 3 9
3 2 1 8
