ply
format ascii 1.0
comment Created by Blender 2.78 (sub 0) - www.blender.org, source file: ''
element vertex 12
property float x
property float y
property float z
element face 24
property list uchar uint vertex_indices
end_header
0.000000 1.000000 1.000000
0.866025 -0.500000 -1.000000
0.000000 1.000000 -1.000000
0.866025 -0.500000 1.000000
-0.866025 -0.500000 -1.000000
-0.866025 -0.500000 1.000000
0.779423 -0.450002 -1.000000
0.000000 0.900000 1.000000
0.000000 0.900000 -1.000000
-0.779423 -0.450001 -1.000000
0.779423 -0.450002 1.000000
-0.779423 -0.450001 1.000000
3 0 1 2
3 3 4 1
3 5 2 4
3 6 7 8
3 9 10 6
3 8 11 9
3 1 8 2
3 0 10 3
3 1 9 6
3 3 11 5
3 4 8 9
3 5 7 0
3 0 3 1
3 3 5 4
3 5 0 2
3 6 10 7
3 9 11 10
3 8 7 11
3 1 6 8
3 0 7 10
3 1 4 9
3 3 10 11
3 4 2 8
3 5 11 7
